<?xml version="1.0" encoding="utf-8"?>
<svg viewBox="0 0 1404 1059" xmlns="http://www.w3.org/2000/svg" xmlns:bx="https://boxy-svg.com">
  <defs>
    <filter id="drop-shadow-filter-0" color-interpolation-filters="sRGB" x="-50%" y="-50%" width="200%" height="200%" bx:preset="drop-shadow 1 0 1 2 0.5 rgba(0,0,0,0.3)">
      <feGaussianBlur in="SourceAlpha" stdDeviation="2"/>
      <feOffset dx="0" dy="1"/>
      <feComponentTransfer result="offsetblur">
        <feFuncA id="spread-ctrl" type="linear" slope="1"/>
      </feComponentTransfer>
      <feFlood flood-color="rgba(0,0,0,0.3)"/>
      <feComposite in2="offsetblur" operator="in"/>
      <feMerge>
        <feMergeNode/>
        <feMergeNode in="SourceGraphic"/>
      </feMerge>
    </filter>
    <filter id="filter-1" color-interpolation-filters="sRGB" x="-50%" y="-50%" width="200%" height="200%" bx:preset="drop-shadow 1 0 1 2 0.5 rgba(0,0,0,0.3)">
      <feGaussianBlur in="SourceAlpha" stdDeviation="2"/>
      <feOffset dx="0" dy="1"/>
      <feComponentTransfer result="offsetblur">
        <feFuncA id="feFuncA-1" type="linear" slope="1"/>
      </feComponentTransfer>
      <feFlood flood-color="rgba(0,0,0,0.3)"/>
      <feComposite in2="offsetblur" operator="in"/>
      <feMerge>
        <feMergeNode/>
        <feMergeNode in="SourceGraphic"/>
      </feMerge>
    </filter>
    <clipPath id="clip-0">
      <path style="filter: none;" d="M 120.5 100.5 H 1283.5 A 19 19 0 0 1 1302.5 119.5 V 170.5 H 101.5 V 119.5 A 19 19 0 0 1 120.5 100.5 Z" bx:shape="rect 101.5 100.5 1201 70 19 19 0 0 1@526a241e"/>
    </clipPath>
    <filter id="drop-shadow-filter-1" color-interpolation-filters="sRGB" x="-50%" y="-50%" width="200%" height="200%" bx:preset="drop-shadow 1 0 1 1 0.5 rgba(0,0,0,0.3)">
      <feGaussianBlur in="SourceAlpha" stdDeviation="1"/>
      <feOffset dx="0" dy="1"/>
      <feComponentTransfer result="offsetblur">
        <feFuncA id="spread-ctrl" type="linear" slope="1"/>
      </feComponentTransfer>
      <feFlood flood-color="rgba(0,0,0,0.3)"/>
      <feComposite in2="offsetblur" operator="in"/>
      <feMerge>
        <feMergeNode/>
        <feMergeNode in="SourceGraphic"/>
      </feMerge>
    </filter>
    <filter id="drop-shadow-filter-2" color-interpolation-filters="sRGB" x="-50%" y="-50%" width="200%" height="200%" bx:preset="drop-shadow 1 0 10 20 0.4 rgba(0,0,0,0.3)">
      <feGaussianBlur in="SourceAlpha" stdDeviation="20"/>
      <feOffset dx="0" dy="10"/>
      <feComponentTransfer result="offsetblur">
        <feFuncA id="spread-ctrl" type="linear" slope="0.8"/>
      </feComponentTransfer>
      <feFlood flood-color="rgba(0,0,0,0.3)"/>
      <feComposite in2="offsetblur" operator="in"/>
      <feMerge>
        <feMergeNode/>
        <feMergeNode in="SourceGraphic"/>
      </feMerge>
    </filter>
    <filter id="filter-2" color-interpolation-filters="sRGB" x="-50%" y="-50%" width="200%" height="200%" bx:preset="drop-shadow 1 0 1 2 0.5 rgba(0,0,0,0.3)">
      <feGaussianBlur in="SourceAlpha" stdDeviation="2"/>
      <feOffset dx="0" dy="1"/>
      <feComponentTransfer result="offsetblur">
        <feFuncA id="feFuncA-2" type="linear" slope="1"/>
      </feComponentTransfer>
      <feFlood flood-color="rgba(0,0,0,0.3)"/>
      <feComposite in2="offsetblur" operator="in"/>
      <feMerge>
        <feMergeNode/>
        <feMergeNode in="SourceGraphic"/>
      </feMerge>
    </filter>
    <filter id="filter-3" color-interpolation-filters="sRGB" x="-50%" y="-50%" width="200%" height="200%" bx:preset="drop-shadow 1 0 1 2 0.5 rgba(0,0,0,0.3)">
      <feGaussianBlur in="SourceAlpha" stdDeviation="2"/>
      <feOffset dx="0" dy="1"/>
      <feComponentTransfer result="offsetblur">
        <feFuncA id="feFuncA-3" type="linear" slope="1"/>
      </feComponentTransfer>
      <feFlood flood-color="rgba(0,0,0,0.3)"/>
      <feComposite in2="offsetblur" operator="in"/>
      <feMerge>
        <feMergeNode/>
        <feMergeNode in="SourceGraphic"/>
      </feMerge>
    </filter>
    <filter id="filter-4" color-interpolation-filters="sRGB" x="-50%" y="-50%" width="200%" height="200%" bx:preset="drop-shadow 1 0 1 2 0.5 rgba(0,0,0,0.3)">
      <feGaussianBlur in="SourceAlpha" stdDeviation="2"/>
      <feOffset dx="0" dy="1"/>
      <feComponentTransfer result="offsetblur">
        <feFuncA id="feFuncA-4" type="linear" slope="1"/>
      </feComponentTransfer>
      <feFlood flood-color="rgba(0,0,0,0.3)"/>
      <feComposite in2="offsetblur" operator="in"/>
      <feMerge>
        <feMergeNode/>
        <feMergeNode in="SourceGraphic"/>
      </feMerge>
    </filter>
  </defs>
  <rect width="1404" height="1059" style="fill: rgb(227, 228, 229);" transform="matrix(1, 0, 0, 1, -1.950365913216956e-8, 0)"/>
  <g style="filter: url('#drop-shadow-filter-2');">
    <rect style="stroke: rgb(198, 198, 198); filter: none; fill: rgb(245, 245, 245);" x="101" y="100" width="1202" height="841" rx="20" ry="20"/>
    <g>
      <path style="fill: rgb(250, 250, 250); clip-path: url('#clip-0'); filter: url('#drop-shadow-filter-1');" d="M 120.5 100.5 H 1283.5 A 19 19 0 0 1 1302.5 119.5 V 157.5 H 101.5 V 119.5 A 19 19 0 0 1 120.5 100.5 Z" bx:shape="rect 101.5 100.5 1201 57 19 19 0 0 1@b8bb7788"/>
      <g>
        <ellipse style="fill: rgb(255, 94, 87); stroke: rgb(226, 65, 56); filter: none;" cx="130" cy="129.646" rx="12" ry="12"/>
        <ellipse style="fill: rgb(253, 188, 46); stroke: rgb(224, 157, 28); filter: none;" cx="170" cy="129.646" rx="12" ry="12"/>
        <ellipse style="fill: rgb(37, 199, 66); stroke: rgb(37, 172, 45); filter: none;" cx="210" cy="129.646" rx="12" ry="12"/>
      </g>
      <text style="fill: rgb(74, 74, 74); font-family: Arial, sans-serif; font-size: 26px; font-weight: 700; white-space: pre;" transform="matrix(1, 0, 0, 1, 88.321892, 3.082367)"><tspan x="544.678" y="134.145">JS Blocker</tspan><tspan x="544.678" dy="1em">​</tspan></text>
    </g>
    <text style="fill: rgb(37, 37, 37); font-family: Arial, sans-serif; font-size: 32px; font-weight: 700; white-space: pre;" x="418.18" y="240.862">Domains where JavaScript is allowed</text>
    <g>
      <g>
        <rect style="fill: rgb(255, 255, 255); filter: url(&quot;#filter-4&quot;);" x="142" y="298" width="817" height="40" rx="10" ry="10"/>
        <path d="M 150 315.686 C 150 314.335 150.254 313.067 150.762 311.883 C 151.269 310.7 151.974 309.659 152.874 308.758 C 153.775 307.857 154.817 307.152 156 306.645 C 157.184 306.137 158.451 305.884 159.802 305.884 C 161.152 305.884 162.42 306.137 163.603 306.645 C 164.787 307.152 165.828 307.857 166.728 308.758 C 167.629 309.659 168.334 310.7 168.841 311.883 C 169.349 313.067 169.603 314.335 169.603 315.686 C 169.603 316.807 169.425 317.872 169.068 318.879 C 168.712 319.886 168.219 320.799 167.588 321.617 L 173.595 327.661 C 173.725 327.792 173.826 327.943 173.895 328.115 C 173.964 328.287 174 328.472 174 328.668 C 174 328.937 173.94 329.183 173.821 329.405 C 173.703 329.625 173.537 329.8 173.324 329.927 C 173.112 330.053 172.866 330.116 172.588 330.116 C 172.391 330.116 172.204 330.082 172.028 330.013 C 171.852 329.943 171.691 329.839 171.543 329.7 L 165.5 323.644 C 164.699 324.217 163.813 324.667 162.848 324.995 C 161.881 325.322 160.866 325.486 159.802 325.486 C 158.451 325.486 157.184 325.232 156 324.725 C 154.817 324.217 153.775 323.512 152.874 322.612 C 151.974 321.712 151.269 320.669 150.762 319.486 C 150.254 318.304 150 317.035 150 315.686 Z M 152.1 315.686 C 152.1 316.749 152.299 317.746 152.696 318.676 C 153.093 319.605 153.646 320.422 154.354 321.126 C 155.062 321.831 155.881 322.384 156.811 322.784 C 157.74 323.185 158.737 323.386 159.802 323.386 C 160.866 323.386 161.863 323.185 162.792 322.784 C 163.722 322.384 164.539 321.831 165.242 321.126 C 165.947 320.422 166.5 319.605 166.9 318.676 C 167.302 317.746 167.503 316.749 167.503 315.686 C 167.503 314.621 167.302 313.624 166.9 312.695 C 166.5 311.765 165.947 310.946 165.242 310.238 C 164.539 309.53 163.722 308.977 162.792 308.58 C 161.863 308.182 160.866 307.984 159.802 307.984 C 158.737 307.984 157.74 308.182 156.811 308.58 C 155.881 308.977 155.062 309.53 154.354 310.238 C 153.646 310.946 153.093 311.765 152.696 312.695 C 152.299 313.624 152.1 314.621 152.1 315.686 Z" style="text-wrap-mode: nowrap;"/>
      </g>
      <g>
        <text style="fill: rgb(143, 143, 143); font-family: Arial, sans-serif; font-size: 18px; white-space: pre;" x="996.987" y="284.302">export</text>
        <rect style="fill: rgb(255, 255, 255); filter: url(&quot;#filter-3&quot;);" x="982" y="298" width="80" height="40" rx="10" ry="10"/>
        <path d="M 1014.55 332.559 C 1013.2 332.559 1012.21 332.226 1011.54 331.557 C 1010.86 330.887 1010.5 329.88 1010.5 328.544 L 1010.5 315.754 C 1010.5 314.414 1010.86 313.411 1011.54 312.741 C 1012.21 312.071 1013.2 311.733 1014.55 311.733 L 1018.53 311.733 L 1018.53 313.823 L 1014.58 313.823 C 1013.95 313.823 1013.44 313.991 1013.12 314.332 C 1012.74 314.677 1012.59 315.183 1012.59 315.854 L 1012.59 328.437 C 1012.59 329.113 1012.74 329.621 1013.12 329.961 C 1013.44 330.302 1013.95 330.475 1014.58 330.475 L 1029.4 330.475 C 1030.03 330.475 1030.54 330.302 1030.87 329.961 C 1031.25 329.621 1031.41 329.113 1031.41 328.437 L 1031.41 315.854 C 1031.41 315.183 1031.25 314.677 1030.87 314.332 C 1030.54 313.991 1030.03 313.823 1029.4 313.823 L 1025.45 313.823 L 1025.45 311.733 L 1029.45 311.733 C 1030.8 311.733 1031.79 312.071 1032.46 312.741 C 1033.15 313.411 1033.5 314.414 1033.5 315.754 L 1033.5 328.544 C 1033.5 329.88 1033.15 330.887 1032.46 331.557 C 1031.79 332.226 1030.8 332.559 1029.45 332.559 L 1014.55 332.559 Z M 1021.99 322.402 C 1021.71 322.402 1021.46 322.3 1021.27 322.104 C 1021.07 321.901 1020.95 321.669 1020.95 321.401 L 1020.95 308.213 L 1021.04 306.282 L 1020.3 307.042 L 1018.31 309.18 C 1018.14 309.388 1017.9 309.494 1017.59 309.494 C 1017.31 309.494 1017.1 309.41 1016.93 309.233 C 1016.77 309.064 1016.66 308.845 1016.66 308.584 C 1016.66 308.335 1016.79 308.107 1016.99 307.898 L 1021.22 303.776 C 1021.4 303.649 1021.5 303.562 1021.64 303.514 C 1021.73 303.467 1021.88 303.442 1021.99 303.442 C 1022.13 303.442 1022.27 303.467 1022.36 303.514 C 1022.5 303.562 1022.6 303.649 1022.76 303.776 L 1027.01 307.898 C 1027.2 308.107 1027.33 308.335 1027.33 308.584 C 1027.33 308.845 1027.21 309.064 1027.05 309.233 C 1026.88 309.41 1026.66 309.494 1026.37 309.494 C 1026.08 309.494 1025.84 309.388 1025.67 309.18 L 1023.7 307.042 L 1022.96 306.282 L 1023.05 308.213 L 1023.05 321.401 C 1023.05 321.669 1022.93 321.901 1022.73 322.104 C 1022.54 322.3 1022.3 322.402 1021.99 322.402 Z" style="text-wrap-mode: nowrap;"/>
      </g>
      <g>
        <text style="fill: rgb(143, 143, 143); font-family: Arial, sans-serif; font-size: 18px; white-space: pre;" x="1097" y="284.302">import</text>
        <rect style="fill: rgb(255, 255, 255); filter: url(&quot;#filter-2&quot;);" x="1082" y="298" width="80" height="40" rx="10" ry="10"/>
        <path d="M 1114.24 332.461 C 1112.83 332.461 1111.77 332.111 1111.07 331.414 C 1110.35 330.715 1110 329.666 1110 328.27 L 1110 314.924 C 1110 313.527 1110.35 312.478 1111.07 311.78 C 1111.77 311.081 1112.83 310.732 1114.24 310.732 L 1118.38 310.732 L 1118.38 312.909 L 1114.27 312.909 C 1113.6 312.909 1113.08 313.087 1112.72 313.442 C 1112.35 313.799 1112.18 314.328 1112.18 315.032 L 1112.18 328.161 C 1112.18 328.864 1112.35 329.395 1112.72 329.751 C 1113.08 330.107 1113.6 330.285 1114.27 330.285 L 1129.72 330.285 C 1130.38 330.285 1130.9 330.107 1131.27 329.751 C 1131.64 329.395 1131.82 328.864 1131.82 328.161 L 1131.82 315.032 C 1131.82 314.328 1131.64 313.799 1131.27 313.442 C 1130.9 313.087 1130.38 312.909 1129.72 312.909 L 1125.6 312.909 L 1125.6 310.732 L 1129.76 310.732 C 1131.17 310.732 1132.23 311.081 1132.93 311.78 C 1133.65 312.478 1134 313.527 1134 314.924 L 1134 328.27 C 1134 329.666 1133.65 330.715 1132.93 331.414 C 1132.23 332.111 1131.17 332.461 1129.76 332.461 L 1114.24 332.461 Z M 1121.99 303.538 C 1122.29 303.538 1122.55 303.642 1122.75 303.85 C 1122.97 304.057 1123.08 304.3 1123.08 304.58 L 1123.08 318.331 L 1122.99 320.359 L 1123.76 319.561 L 1125.83 317.33 C 1126.02 317.114 1126.27 317.006 1126.56 317.006 C 1126.85 317.006 1127.08 317.096 1127.27 317.277 C 1127.45 317.456 1127.55 317.682 1127.55 317.952 C 1127.55 318.214 1127.44 318.453 1127.24 318.669 L 1122.78 322.968 C 1122.64 323.104 1122.52 323.197 1122.39 323.246 C 1122.27 323.296 1122.13 323.321 1121.99 323.321 C 1121.87 323.321 1121.73 323.296 1121.61 323.246 C 1121.48 323.197 1121.36 323.104 1121.21 322.968 L 1116.76 318.669 C 1116.55 318.453 1116.44 318.214 1116.44 317.952 C 1116.44 317.682 1116.53 317.456 1116.71 317.277 C 1116.9 317.096 1117.13 317.006 1117.41 317.006 C 1117.72 317.006 1117.96 317.114 1118.15 317.33 L 1120.24 319.561 L 1121.01 320.359 L 1120.93 318.331 L 1120.93 304.58 C 1120.93 304.3 1121.03 304.057 1121.25 303.85 C 1121.45 303.642 1121.71 303.538 1121.99 303.538 Z" style="text-wrap-mode: nowrap;"/>
      </g>
      <g>
        <rect style="filter: url(&quot;#drop-shadow-filter-0&quot;); fill: rgb(255, 255, 255);" x="1182" y="298" width="80" height="40" rx="10" ry="10"/>
        <path d="M 1220.84 331.5 L 1223.16 331.5 C 1223.83 331.5 1224.3 331.106 1224.47 330.466 L 1225.14 327.596 C 1225.68 327.415 1226.18 327.219 1226.66 326.989 L 1229.18 328.531 C 1229.68 328.859 1230.32 328.81 1230.76 328.366 L 1232.4 326.743 C 1232.84 326.3 1232.91 325.628 1232.54 325.087 L 1231.03 322.594 C 1231.26 322.133 1231.46 321.625 1231.6 321.149 L 1234.53 320.46 C 1235.13 320.312 1235.5 319.837 1235.5 319.165 L 1235.5 316.901 C 1235.5 316.261 1235.13 315.785 1234.53 315.638 L 1231.63 314.933 C 1231.46 314.375 1231.23 313.883 1231.06 313.472 L 1232.57 310.93 C 1232.91 310.373 1232.88 309.766 1232.44 309.305 L 1230.76 307.682 C 1230.32 307.271 1229.75 307.158 1229.21 307.485 L 1226.66 309.06 C 1226.22 308.83 1225.71 308.633 1225.14 308.453 L 1224.47 305.534 C 1224.3 304.894 1223.83 304.5 1223.16 304.5 L 1220.84 304.5 C 1220.2 304.5 1219.73 304.894 1219.56 305.534 L 1218.89 308.42 C 1218.35 308.6 1217.81 308.798 1217.37 309.044 L 1214.82 307.485 C 1214.28 307.158 1213.71 307.24 1213.24 307.682 L 1211.6 309.305 C 1211.12 309.766 1211.12 310.373 1211.46 310.93 L 1212.97 313.472 C 1212.8 313.883 1212.57 314.375 1212.4 314.933 L 1209.54 315.638 C 1208.9 315.785 1208.5 316.261 1208.5 316.901 L 1208.5 319.165 C 1208.5 319.837 1208.9 320.312 1209.54 320.46 L 1212.44 321.149 C 1212.57 321.625 1212.77 322.133 1213.01 322.594 L 1211.49 325.087 C 1211.12 325.628 1211.19 326.3 1211.63 326.743 L 1213.24 328.366 C 1213.71 328.81 1214.35 328.859 1214.89 328.531 L 1217.37 326.989 C 1217.85 327.219 1218.35 327.415 1218.89 327.596 L 1219.56 330.466 C 1219.73 331.106 1220.2 331.5 1220.84 331.5 Z M 1222.02 322.51 C 1219.53 322.51 1217.51 320.477 1217.51 318 C 1217.51 315.523 1219.53 313.489 1222.02 313.489 C 1224.5 313.489 1226.52 315.523 1226.52 318 C 1226.52 320.477 1224.5 322.51 1222.02 322.51 Z" style="fill: rgb(38, 38, 38);"/>
      </g>
    </g>
    <g>
      <rect x="143" y="363" width="1118" height="407" style="fill: rgb(255, 255, 255); stroke-width: 2px; stroke: rgb(220, 220, 220);"/>
      <g>
        <text style="fill: rgb(39, 39, 39); font-family: Arial, sans-serif; font-size: 23px; white-space: pre;" x="165" y="399.402">domain name</text>
        <text style="fill: rgb(39, 39, 39); font-family: Arial, sans-serif; font-size: 23px; letter-spacing: 0.4px; white-space: pre;" x="1075" y="399.402">global</text>
        <line style="fill: rgb(216, 216, 216); stroke-width: 2px; stroke: rgb(229, 229, 229);" x1="1030" y1="372" x2="1030" y2="403"/>
        <line style="fill: rgb(216, 216, 216); stroke-width: 2px; stroke: rgb(229, 229, 229);" x1="1185" y1="372" x2="1185" y2="403"/>
        <line style="fill: rgb(216, 216, 216); stroke-width: 2px; stroke: rgb(220, 220, 220);" x1="144" y1="419" x2="1260" y2="419"/>
      </g>
      <g>
        <g>
          <rect x="144" y="420" width="1116" height="49" style="fill: rgb(220, 221, 220);"/>
          <text style="font-family: Arial, sans-serif; font-size: 27px; white-space: pre;" x="159.408" y="453.756">example.com</text>
          <text style="font-family: Arial, sans-serif; font-size: 27px; white-space: pre;" x="1086.74" y="453.756">yes</text>
        </g>
        <rect x="144" y="467" width="1116" height="48" style="fill: rgb(244, 245, 245);"/>
        <rect x="144" y="563" width="1116" height="48" style="fill: rgb(244, 245, 245);"/>
        <rect x="144" y="659" width="1116" height="48" style="fill: rgb(244, 245, 245);"/>
        <rect x="144" y="755" width="1116" height="15" style="fill: rgb(244, 245, 245);"/>
        <line style="fill: rgb(216, 216, 216); stroke-width: 2px; stroke: rgb(220, 220, 220);" x1="1030" y1="420" x2="1030" y2="769.999"/>
        <line style="fill: rgb(216, 216, 216); stroke-width: 2px; stroke: rgb(220, 220, 220);" x1="1185" y1="420" x2="1185" y2="769.999"/>
        <g>
          <g>
            <ellipse style="fill: rgb(233, 233, 233);" cx="1223" cy="443" rx="20" ry="20"/>
            <path d="M 1223 454 C 1221.48 454 1220.06 453.714 1218.73 453.143 C 1217.4 452.57 1216.23 451.782 1215.22 450.774 C 1214.22 449.769 1213.43 448.6 1212.86 447.27 C 1212.29 445.94 1212 444.517 1212 443 C 1212 441.483 1212.29 440.06 1212.86 438.73 C 1213.43 437.4 1214.22 436.229 1215.22 435.22 C 1216.23 434.209 1217.4 433.419 1218.73 432.852 C 1220.06 432.284 1221.48 432 1223 432 C 1224.52 432 1225.94 432.284 1227.27 432.852 C 1228.6 433.419 1229.77 434.209 1230.78 435.22 C 1231.78 436.229 1232.57 437.4 1233.14 438.73 C 1233.71 440.06 1234 441.483 1234 443 C 1234 444.517 1233.71 445.94 1233.14 447.27 C 1232.57 448.6 1231.78 449.769 1230.78 450.774 C 1229.77 451.782 1228.6 452.57 1227.27 453.143 C 1225.94 453.714 1224.52 454 1223 454 Z M 1223 452.167 C 1224.27 452.167 1225.45 451.929 1226.56 451.456 C 1227.67 450.98 1228.64 450.323 1229.48 449.482 C 1230.32 448.64 1230.98 447.665 1231.46 446.559 C 1231.93 445.452 1232.17 444.265 1232.17 443 C 1232.17 441.735 1231.93 440.547 1231.46 439.435 C 1230.98 438.324 1230.32 437.351 1229.48 436.512 C 1228.64 435.676 1227.67 435.02 1226.56 434.544 C 1225.45 434.071 1224.27 433.833 1223 433.833 C 1221.73 433.833 1220.55 434.071 1219.44 434.544 C 1218.33 435.02 1217.36 435.676 1216.52 436.512 C 1215.68 437.351 1215.02 438.324 1214.55 439.435 C 1214.07 440.547 1213.83 441.735 1213.83 443 C 1213.83 444.265 1214.07 445.452 1214.55 446.559 C 1215.02 447.665 1215.68 448.64 1216.52 449.482 C 1217.36 450.323 1218.33 450.98 1219.44 451.456 C 1220.55 451.929 1221.73 452.167 1223 452.167 Z M 1218.48 448.436 C 1218.24 448.549 1218.03 448.574 1217.85 448.51 C 1217.66 448.445 1217.54 448.322 1217.48 448.139 C 1217.41 447.955 1217.44 447.745 1217.55 447.507 L 1220.57 441.317 C 1220.75 440.964 1221 440.713 1221.32 440.563 L 1227.49 437.554 C 1227.87 437.374 1228.16 437.393 1228.38 437.608 C 1228.59 437.823 1228.6 438.115 1228.42 438.481 L 1225.42 444.661 C 1225.24 444.998 1224.99 445.247 1224.67 445.404 L 1218.48 448.436 Z M 1223 444.327 C 1223.36 444.327 1223.67 444.198 1223.93 443.938 C 1224.19 443.679 1224.32 443.367 1224.32 443 C 1224.32 442.634 1224.19 442.322 1223.93 442.067 C 1223.67 441.812 1223.36 441.684 1223 441.684 C 1222.63 441.684 1222.32 441.812 1222.06 442.067 C 1221.8 442.322 1221.67 442.634 1221.67 443 C 1221.67 443.367 1221.8 443.679 1222.06 443.938 C 1222.32 444.198 1222.63 444.327 1223 444.327 Z" style="text-wrap-mode: nowrap; fill: rgb(173, 173, 173);"/>
          </g>
          <g>
            <ellipse style="fill: rgb(233, 233, 233);" cx="1223" cy="491" rx="20" ry="20"/>
            <path d="M 1223 502 C 1221.48 502 1220.06 501.714 1218.73 501.143 C 1217.4 500.57 1216.23 499.782 1215.22 498.774 C 1214.22 497.769 1213.43 496.6 1212.86 495.27 C 1212.29 493.94 1212 492.517 1212 491 C 1212 489.483 1212.29 488.06 1212.86 486.73 C 1213.43 485.4 1214.22 484.229 1215.22 483.22 C 1216.23 482.209 1217.4 481.419 1218.73 480.852 C 1220.06 480.284 1221.48 480 1223 480 C 1224.52 480 1225.94 480.284 1227.27 480.852 C 1228.6 481.419 1229.77 482.209 1230.78 483.22 C 1231.78 484.229 1232.57 485.4 1233.14 486.73 C 1233.71 488.06 1234 489.483 1234 491 C 1234 492.517 1233.71 493.94 1233.14 495.27 C 1232.57 496.6 1231.78 497.769 1230.78 498.774 C 1229.77 499.782 1228.6 500.57 1227.27 501.143 C 1225.94 501.714 1224.52 502 1223 502 Z M 1223 500.167 C 1224.27 500.167 1225.45 499.929 1226.56 499.456 C 1227.67 498.98 1228.64 498.323 1229.48 497.482 C 1230.32 496.64 1230.98 495.665 1231.46 494.559 C 1231.93 493.452 1232.17 492.265 1232.17 491 C 1232.17 489.735 1231.93 488.547 1231.46 487.435 C 1230.98 486.324 1230.32 485.351 1229.48 484.512 C 1228.64 483.676 1227.67 483.02 1226.56 482.544 C 1225.45 482.071 1224.27 481.833 1223 481.833 C 1221.73 481.833 1220.55 482.071 1219.44 482.544 C 1218.33 483.02 1217.36 483.676 1216.52 484.512 C 1215.68 485.351 1215.02 486.324 1214.55 487.435 C 1214.07 488.547 1213.83 489.735 1213.83 491 C 1213.83 492.265 1214.07 493.452 1214.55 494.559 C 1215.02 495.665 1215.68 496.64 1216.52 497.482 C 1217.36 498.323 1218.33 498.98 1219.44 499.456 C 1220.55 499.929 1221.73 500.167 1223 500.167 Z M 1218.48 496.436 C 1218.24 496.549 1218.03 496.574 1217.85 496.51 C 1217.66 496.445 1217.54 496.322 1217.48 496.139 C 1217.41 495.955 1217.44 495.745 1217.55 495.507 L 1220.57 489.317 C 1220.75 488.964 1221 488.713 1221.32 488.563 L 1227.49 485.554 C 1227.87 485.374 1228.16 485.393 1228.38 485.608 C 1228.59 485.823 1228.6 486.115 1228.42 486.481 L 1225.42 492.661 C 1225.24 492.998 1224.99 493.247 1224.67 493.404 L 1218.48 496.436 Z M 1223 492.327 C 1223.36 492.327 1223.67 492.198 1223.93 491.938 C 1224.19 491.679 1224.32 491.367 1224.32 491 C 1224.32 490.634 1224.19 490.322 1223.93 490.067 C 1223.67 489.812 1223.36 489.684 1223 489.684 C 1222.63 489.684 1222.32 489.812 1222.06 490.067 C 1221.8 490.322 1221.67 490.634 1221.67 491 C 1221.67 491.367 1221.8 491.679 1222.06 491.938 C 1222.32 492.198 1222.63 492.327 1223 492.327 Z" style="text-wrap-mode: nowrap; fill: rgb(173, 173, 173);"/>
          </g>
          <g>
            <ellipse style="fill: rgb(233, 233, 233);" cx="1223" cy="539" rx="20" ry="20"/>
            <path d="M 1223 550 C 1221.48 550 1220.06 549.714 1218.73 549.143 C 1217.4 548.57 1216.23 547.782 1215.22 546.774 C 1214.22 545.769 1213.43 544.6 1212.86 543.27 C 1212.29 541.94 1212 540.517 1212 539 C 1212 537.483 1212.29 536.06 1212.86 534.73 C 1213.43 533.4 1214.22 532.229 1215.22 531.22 C 1216.23 530.209 1217.4 529.419 1218.73 528.852 C 1220.06 528.284 1221.48 528 1223 528 C 1224.52 528 1225.94 528.284 1227.27 528.852 C 1228.6 529.419 1229.77 530.209 1230.78 531.22 C 1231.78 532.229 1232.57 533.4 1233.14 534.73 C 1233.71 536.06 1234 537.483 1234 539 C 1234 540.517 1233.71 541.94 1233.14 543.27 C 1232.57 544.6 1231.78 545.769 1230.78 546.774 C 1229.77 547.782 1228.6 548.57 1227.27 549.143 C 1225.94 549.714 1224.52 550 1223 550 Z M 1223 548.167 C 1224.27 548.167 1225.45 547.929 1226.56 547.456 C 1227.67 546.98 1228.64 546.323 1229.48 545.482 C 1230.32 544.64 1230.98 543.665 1231.46 542.559 C 1231.93 541.452 1232.17 540.265 1232.17 539 C 1232.17 537.735 1231.93 536.547 1231.46 535.435 C 1230.98 534.324 1230.32 533.351 1229.48 532.512 C 1228.64 531.676 1227.67 531.02 1226.56 530.544 C 1225.45 530.071 1224.27 529.833 1223 529.833 C 1221.73 529.833 1220.55 530.071 1219.44 530.544 C 1218.33 531.02 1217.36 531.676 1216.52 532.512 C 1215.68 533.351 1215.02 534.324 1214.55 535.435 C 1214.07 536.547 1213.83 537.735 1213.83 539 C 1213.83 540.265 1214.07 541.452 1214.55 542.559 C 1215.02 543.665 1215.68 544.64 1216.52 545.482 C 1217.36 546.323 1218.33 546.98 1219.44 547.456 C 1220.55 547.929 1221.73 548.167 1223 548.167 Z M 1218.48 544.436 C 1218.24 544.549 1218.03 544.574 1217.85 544.51 C 1217.66 544.445 1217.54 544.322 1217.48 544.139 C 1217.41 543.955 1217.44 543.745 1217.55 543.507 L 1220.57 537.317 C 1220.75 536.964 1221 536.713 1221.32 536.563 L 1227.49 533.554 C 1227.87 533.374 1228.16 533.393 1228.38 533.608 C 1228.59 533.823 1228.6 534.115 1228.42 534.481 L 1225.42 540.661 C 1225.24 540.998 1224.99 541.247 1224.67 541.404 L 1218.48 544.436 Z M 1223 540.327 C 1223.36 540.327 1223.67 540.198 1223.93 539.938 C 1224.19 539.679 1224.32 539.367 1224.32 539 C 1224.32 538.634 1224.19 538.322 1223.93 538.067 C 1223.67 537.812 1223.36 537.684 1223 537.684 C 1222.63 537.684 1222.32 537.812 1222.06 538.067 C 1221.8 538.322 1221.67 538.634 1221.67 539 C 1221.67 539.367 1221.8 539.679 1222.06 539.938 C 1222.32 540.198 1222.63 540.327 1223 540.327 Z" style="text-wrap-mode: nowrap; fill: rgb(173, 173, 173);"/>
          </g>
          <g>
            <ellipse style="fill: rgb(233, 233, 233);" cx="1223" cy="587" rx="20" ry="20"/>
            <path d="M 1223 598 C 1221.48 598 1220.06 597.714 1218.73 597.143 C 1217.4 596.57 1216.23 595.782 1215.22 594.774 C 1214.22 593.769 1213.43 592.6 1212.86 591.27 C 1212.29 589.94 1212 588.517 1212 587 C 1212 585.483 1212.29 584.06 1212.86 582.73 C 1213.43 581.4 1214.22 580.229 1215.22 579.22 C 1216.23 578.209 1217.4 577.419 1218.73 576.852 C 1220.06 576.284 1221.48 576 1223 576 C 1224.52 576 1225.94 576.284 1227.27 576.852 C 1228.6 577.419 1229.77 578.209 1230.78 579.22 C 1231.78 580.229 1232.57 581.4 1233.14 582.73 C 1233.71 584.06 1234 585.483 1234 587 C 1234 588.517 1233.71 589.94 1233.14 591.27 C 1232.57 592.6 1231.78 593.769 1230.78 594.774 C 1229.77 595.782 1228.6 596.57 1227.27 597.143 C 1225.94 597.714 1224.52 598 1223 598 Z M 1223 596.167 C 1224.27 596.167 1225.45 595.929 1226.56 595.456 C 1227.67 594.98 1228.64 594.323 1229.48 593.482 C 1230.32 592.64 1230.98 591.665 1231.46 590.559 C 1231.93 589.452 1232.17 588.265 1232.17 587 C 1232.17 585.735 1231.93 584.547 1231.46 583.435 C 1230.98 582.324 1230.32 581.351 1229.48 580.512 C 1228.64 579.676 1227.67 579.02 1226.56 578.544 C 1225.45 578.071 1224.27 577.833 1223 577.833 C 1221.73 577.833 1220.55 578.071 1219.44 578.544 C 1218.33 579.02 1217.36 579.676 1216.52 580.512 C 1215.68 581.351 1215.02 582.324 1214.55 583.435 C 1214.07 584.547 1213.83 585.735 1213.83 587 C 1213.83 588.265 1214.07 589.452 1214.55 590.559 C 1215.02 591.665 1215.68 592.64 1216.52 593.482 C 1217.36 594.323 1218.33 594.98 1219.44 595.456 C 1220.55 595.929 1221.73 596.167 1223 596.167 Z M 1218.48 592.436 C 1218.24 592.549 1218.03 592.574 1217.85 592.51 C 1217.66 592.445 1217.54 592.322 1217.48 592.139 C 1217.41 591.955 1217.44 591.745 1217.55 591.507 L 1220.57 585.317 C 1220.75 584.964 1221 584.713 1221.32 584.563 L 1227.49 581.554 C 1227.87 581.374 1228.16 581.393 1228.38 581.608 C 1228.59 581.823 1228.6 582.115 1228.42 582.481 L 1225.42 588.661 C 1225.24 588.998 1224.99 589.247 1224.67 589.404 L 1218.48 592.436 Z M 1223 588.327 C 1223.36 588.327 1223.67 588.198 1223.93 587.938 C 1224.19 587.679 1224.32 587.367 1224.32 587 C 1224.32 586.634 1224.19 586.322 1223.93 586.067 C 1223.67 585.812 1223.36 585.684 1223 585.684 C 1222.63 585.684 1222.32 585.812 1222.06 586.067 C 1221.8 586.322 1221.67 586.634 1221.67 587 C 1221.67 587.367 1221.8 587.679 1222.06 587.938 C 1222.32 588.198 1222.63 588.327 1223 588.327 Z" style="text-wrap-mode: nowrap; fill: rgb(173, 173, 173);"/>
          </g>
          <g>
            <ellipse style="fill: rgb(233, 233, 233);" cx="1223" cy="635" rx="20" ry="20"/>
            <path d="M 1223 646 C 1221.48 646 1220.06 645.714 1218.73 645.143 C 1217.4 644.57 1216.23 643.782 1215.22 642.774 C 1214.22 641.769 1213.43 640.6 1212.86 639.27 C 1212.29 637.94 1212 636.517 1212 635 C 1212 633.483 1212.29 632.06 1212.86 630.73 C 1213.43 629.4 1214.22 628.229 1215.22 627.22 C 1216.23 626.209 1217.4 625.419 1218.73 624.852 C 1220.06 624.284 1221.48 624 1223 624 C 1224.52 624 1225.94 624.284 1227.27 624.852 C 1228.6 625.419 1229.77 626.209 1230.78 627.22 C 1231.78 628.229 1232.57 629.4 1233.14 630.73 C 1233.71 632.06 1234 633.483 1234 635 C 1234 636.517 1233.71 637.94 1233.14 639.27 C 1232.57 640.6 1231.78 641.769 1230.78 642.774 C 1229.77 643.782 1228.6 644.57 1227.27 645.143 C 1225.94 645.714 1224.52 646 1223 646 Z M 1223 644.167 C 1224.27 644.167 1225.45 643.929 1226.56 643.456 C 1227.67 642.98 1228.64 642.323 1229.48 641.482 C 1230.32 640.64 1230.98 639.665 1231.46 638.559 C 1231.93 637.452 1232.17 636.265 1232.17 635 C 1232.17 633.735 1231.93 632.547 1231.46 631.435 C 1230.98 630.324 1230.32 629.351 1229.48 628.512 C 1228.64 627.676 1227.67 627.02 1226.56 626.544 C 1225.45 626.071 1224.27 625.833 1223 625.833 C 1221.73 625.833 1220.55 626.071 1219.44 626.544 C 1218.33 627.02 1217.36 627.676 1216.52 628.512 C 1215.68 629.351 1215.02 630.324 1214.55 631.435 C 1214.07 632.547 1213.83 633.735 1213.83 635 C 1213.83 636.265 1214.07 637.452 1214.55 638.559 C 1215.02 639.665 1215.68 640.64 1216.52 641.482 C 1217.36 642.323 1218.33 642.98 1219.44 643.456 C 1220.55 643.929 1221.73 644.167 1223 644.167 Z M 1218.48 640.436 C 1218.24 640.549 1218.03 640.574 1217.85 640.51 C 1217.66 640.445 1217.54 640.322 1217.48 640.139 C 1217.41 639.955 1217.44 639.745 1217.55 639.507 L 1220.57 633.317 C 1220.75 632.964 1221 632.713 1221.32 632.563 L 1227.49 629.554 C 1227.87 629.374 1228.16 629.393 1228.38 629.608 C 1228.59 629.823 1228.6 630.115 1228.42 630.481 L 1225.42 636.661 C 1225.24 636.998 1224.99 637.247 1224.67 637.404 L 1218.48 640.436 Z M 1223 636.327 C 1223.36 636.327 1223.67 636.198 1223.93 635.938 C 1224.19 635.679 1224.32 635.367 1224.32 635 C 1224.32 634.634 1224.19 634.322 1223.93 634.067 C 1223.67 633.812 1223.36 633.684 1223 633.684 C 1222.63 633.684 1222.32 633.812 1222.06 634.067 C 1221.8 634.322 1221.67 634.634 1221.67 635 C 1221.67 635.367 1221.8 635.679 1222.06 635.938 C 1222.32 636.198 1222.63 636.327 1223 636.327 Z" style="text-wrap-mode: nowrap; fill: rgb(173, 173, 173);"/>
          </g>
          <g>
            <ellipse style="fill: rgb(233, 233, 233);" cx="1223" cy="683" rx="20" ry="20"/>
            <path d="M 1223 694 C 1221.48 694 1220.06 693.714 1218.73 693.143 C 1217.4 692.57 1216.23 691.782 1215.22 690.774 C 1214.22 689.769 1213.43 688.6 1212.86 687.27 C 1212.29 685.94 1212 684.517 1212 683 C 1212 681.483 1212.29 680.06 1212.86 678.73 C 1213.43 677.4 1214.22 676.229 1215.22 675.22 C 1216.23 674.209 1217.4 673.419 1218.73 672.852 C 1220.06 672.284 1221.48 672 1223 672 C 1224.52 672 1225.94 672.284 1227.27 672.852 C 1228.6 673.419 1229.77 674.209 1230.78 675.22 C 1231.78 676.229 1232.57 677.4 1233.14 678.73 C 1233.71 680.06 1234 681.483 1234 683 C 1234 684.517 1233.71 685.94 1233.14 687.27 C 1232.57 688.6 1231.78 689.769 1230.78 690.774 C 1229.77 691.782 1228.6 692.57 1227.27 693.143 C 1225.94 693.714 1224.52 694 1223 694 Z M 1223 692.167 C 1224.27 692.167 1225.45 691.929 1226.56 691.456 C 1227.67 690.98 1228.64 690.323 1229.48 689.482 C 1230.32 688.64 1230.98 687.665 1231.46 686.559 C 1231.93 685.452 1232.17 684.265 1232.17 683 C 1232.17 681.735 1231.93 680.547 1231.46 679.435 C 1230.98 678.324 1230.32 677.351 1229.48 676.512 C 1228.64 675.676 1227.67 675.02 1226.56 674.544 C 1225.45 674.071 1224.27 673.833 1223 673.833 C 1221.73 673.833 1220.55 674.071 1219.44 674.544 C 1218.33 675.02 1217.36 675.676 1216.52 676.512 C 1215.68 677.351 1215.02 678.324 1214.55 679.435 C 1214.07 680.547 1213.83 681.735 1213.83 683 C 1213.83 684.265 1214.07 685.452 1214.55 686.559 C 1215.02 687.665 1215.68 688.64 1216.52 689.482 C 1217.36 690.323 1218.33 690.98 1219.44 691.456 C 1220.55 691.929 1221.73 692.167 1223 692.167 Z M 1218.48 688.436 C 1218.24 688.549 1218.03 688.574 1217.85 688.51 C 1217.66 688.445 1217.54 688.322 1217.48 688.139 C 1217.41 687.955 1217.44 687.745 1217.55 687.507 L 1220.57 681.317 C 1220.75 680.964 1221 680.713 1221.32 680.563 L 1227.49 677.554 C 1227.87 677.374 1228.16 677.393 1228.38 677.608 C 1228.59 677.823 1228.6 678.115 1228.42 678.481 L 1225.42 684.661 C 1225.24 684.998 1224.99 685.247 1224.67 685.404 L 1218.48 688.436 Z M 1223 684.327 C 1223.36 684.327 1223.67 684.198 1223.93 683.938 C 1224.19 683.679 1224.32 683.367 1224.32 683 C 1224.32 682.634 1224.19 682.322 1223.93 682.067 C 1223.67 681.812 1223.36 681.684 1223 681.684 C 1222.63 681.684 1222.32 681.812 1222.06 682.067 C 1221.8 682.322 1221.67 682.634 1221.67 683 C 1221.67 683.367 1221.8 683.679 1222.06 683.938 C 1222.32 684.198 1222.63 684.327 1223 684.327 Z" style="text-wrap-mode: nowrap; fill: rgb(173, 173, 173);"/>
          </g>
          <g>
            <ellipse style="fill: rgb(233, 233, 233);" cx="1223" cy="731" rx="20" ry="20"/>
            <path d="M 1223 742 C 1221.48 742 1220.06 741.714 1218.73 741.143 C 1217.4 740.57 1216.23 739.782 1215.22 738.774 C 1214.22 737.769 1213.43 736.6 1212.86 735.27 C 1212.29 733.94 1212 732.517 1212 731 C 1212 729.483 1212.29 728.06 1212.86 726.73 C 1213.43 725.4 1214.22 724.229 1215.22 723.22 C 1216.23 722.209 1217.4 721.419 1218.73 720.852 C 1220.06 720.284 1221.48 720 1223 720 C 1224.52 720 1225.94 720.284 1227.27 720.852 C 1228.6 721.419 1229.77 722.209 1230.78 723.22 C 1231.78 724.229 1232.57 725.4 1233.14 726.73 C 1233.71 728.06 1234 729.483 1234 731 C 1234 732.517 1233.71 733.94 1233.14 735.27 C 1232.57 736.6 1231.78 737.769 1230.78 738.774 C 1229.77 739.782 1228.6 740.57 1227.27 741.143 C 1225.94 741.714 1224.52 742 1223 742 Z M 1223 740.167 C 1224.27 740.167 1225.45 739.929 1226.56 739.456 C 1227.67 738.98 1228.64 738.323 1229.48 737.482 C 1230.32 736.64 1230.98 735.665 1231.46 734.559 C 1231.93 733.452 1232.17 732.265 1232.17 731 C 1232.17 729.735 1231.93 728.547 1231.46 727.435 C 1230.98 726.324 1230.32 725.351 1229.48 724.512 C 1228.64 723.676 1227.67 723.02 1226.56 722.544 C 1225.45 722.071 1224.27 721.833 1223 721.833 C 1221.73 721.833 1220.55 722.071 1219.44 722.544 C 1218.33 723.02 1217.36 723.676 1216.52 724.512 C 1215.68 725.351 1215.02 726.324 1214.55 727.435 C 1214.07 728.547 1213.83 729.735 1213.83 731 C 1213.83 732.265 1214.07 733.452 1214.55 734.559 C 1215.02 735.665 1215.68 736.64 1216.52 737.482 C 1217.36 738.323 1218.33 738.98 1219.44 739.456 C 1220.55 739.929 1221.73 740.167 1223 740.167 Z M 1218.48 736.436 C 1218.24 736.549 1218.03 736.574 1217.85 736.51 C 1217.66 736.445 1217.54 736.322 1217.48 736.139 C 1217.41 735.955 1217.44 735.745 1217.55 735.507 L 1220.57 729.317 C 1220.75 728.964 1221 728.713 1221.32 728.563 L 1227.49 725.554 C 1227.87 725.374 1228.16 725.393 1228.38 725.608 C 1228.59 725.823 1228.6 726.115 1228.42 726.481 L 1225.42 732.661 C 1225.24 732.998 1224.99 733.247 1224.67 733.404 L 1218.48 736.436 Z M 1223 732.327 C 1223.36 732.327 1223.67 732.198 1223.93 731.938 C 1224.19 731.679 1224.32 731.367 1224.32 731 C 1224.32 730.634 1224.19 730.322 1223.93 730.067 C 1223.67 729.812 1223.36 729.684 1223 729.684 C 1222.63 729.684 1222.32 729.812 1222.06 730.067 C 1221.8 730.322 1221.67 730.634 1221.67 731 C 1221.67 731.367 1221.8 731.679 1222.06 731.938 C 1222.32 732.198 1222.63 732.327 1223 732.327 Z" style="text-wrap-mode: nowrap; fill: rgb(173, 173, 173);"/>
          </g>
        </g>
      </g>
      <text style="fill: rgb(142, 142, 146); font-family: Arial, sans-serif; font-size: 23px; letter-spacing: 0.2px; white-space: pre;" x="348.516" y="806.035">note: New Domains are added in Safari via the "JS Blocker" pop-up.</text>
    </g>
    <g>
      <rect style="fill: rgb(255, 255, 255); filter: url('#filter-1');" x="568" y="853" width="268" height="39" rx="10" ry="10"/>
      <text style="fill: rgb(38, 38, 38); font-family: Arial, sans-serif; font-size: 27px; white-space: pre;" x="664.633" y="880.146">delete</text>
    </g>
  </g>
</svg>