<?xml version="1.0" encoding="utf-8"?>
<svg viewBox="0 0 1000 300" xmlns="http://www.w3.org/2000/svg">
  <defs/>
  <g style="transform-origin: 1010px 1010px;" transform="matrix(0.353553, 0.353553, -0.353553, 0.353553, -509.999969, -860)">
    <rect width="20" height="2020" style=""/>
    <rect width="20" height="2020" style="" x="40"/>
    <rect width="20" height="2020" style="" x="80"/>
    <rect width="20" height="2020" style="" x="120"/>
    <rect width="20" height="2020" style="" x="160"/>
    <rect width="20" height="2020" style="" x="200"/>
    <rect width="20" height="2020" style="" x="240"/>
    <rect width="20" height="2020" style="" x="280"/>
    <rect width="20" height="2020" style="" x="320"/>
    <rect width="20" height="2020" style="" x="360"/>
    <rect width="20" height="2020" style="" x="400"/>
    <rect width="20" height="2020" style="" x="440"/>
    <rect width="20" height="2020" style="" x="480"/>
    <rect width="20" height="2020" style="" x="520"/>
    <rect width="20" height="2020" style="" x="560"/>
    <rect width="20" height="2020" style="" x="600"/>
    <rect width="20" height="2020" style="" x="640"/>
    <rect width="20" height="2020" style="" x="680"/>
    <rect width="20" height="2020" style="" x="720"/>
    <rect width="20" height="2020" style="" x="760"/>
    <rect width="20" height="2020" style="" x="800"/>
    <rect width="20" height="2020" style="" x="840"/>
    <rect width="20" height="2020" style="" x="880"/>
    <rect width="20" height="2020" style="" x="920"/>
    <rect width="20" height="2020" style="" x="960"/>
    <rect width="20" height="2020" style="" x="1000"/>
    <rect width="20" height="2020" style="" x="1040"/>
    <rect width="20" height="2020" style="" x="1080"/>
    <rect width="20" height="2020" style="" x="1120"/>
    <rect width="20" height="2020" style="" x="1160"/>
    <rect width="20" height="2020" style="" x="1200"/>
    <rect width="20" height="2020" style="" x="1240"/>
    <rect width="20" height="2020" style="" x="1280"/>
    <rect width="20" height="2020" style="" x="1320"/>
    <rect width="20" height="2020" style="" x="1360"/>
    <rect width="20" height="2020" style="" x="1400"/>
    <rect width="20" height="2020" style="" x="1440"/>
    <rect width="20" height="2020" style="" x="1480"/>
    <rect width="20" height="2020" style="" x="1520"/>
    <rect width="20" height="2020" style="" x="1560"/>
    <rect width="20" height="2020" style="" x="1600"/>
    <rect width="20" height="2020" style="" x="1640"/>
    <rect width="20" height="2020" style="" x="1680"/>
    <rect width="20" height="2020" style="" x="1720"/>
    <rect width="20" height="2020" style="" x="1760"/>
    <rect width="20" height="2020" style="" x="1800"/>
    <rect width="20" height="2020" style="" x="1840"/>
    <rect width="20" height="2020" style="" x="1880"/>
    <rect width="20" height="2020" style="" x="1920"/>
    <rect width="20" height="2020" style="" x="1960"/>
    <rect width="20" height="2020" style="" x="2000"/>
  </g>
</svg>