<?xml version="1.0" encoding="utf-8"?>
<svg viewBox="0 0 1000 500" width="1000px" height="500px" xmlns="http://www.w3.org/2000/svg">
  <defs>
    <linearGradient gradientUnits="userSpaceOnUse" x1="100" y1="0" x2="100" y2="50" id="gradient-18" gradientTransform="matrix(1, 0, 0, 1, 115, 75)">
      <stop offset="0" style="stop-color: rgb(1, 199, 227);"/>
      <stop offset="1" style="stop-color: rgb(0, 136, 175);"/>
    </linearGradient>
    <linearGradient gradientUnits="userSpaceOnUse" x1="100" y1="0" x2="100" y2="50" id="gradient-2" gradientTransform="matrix(0.999989, -0.004629, 0.004638, 1, 115.001068, 135.462868)">
      <stop offset="0" style="stop-color: rgb(0, 216, 196);"/>
      <stop offset="1" style="stop-color: rgb(0, 163, 163);"/>
    </linearGradient>
    <linearGradient gradientUnits="userSpaceOnUse" x1="100" y1="0" x2="100" y2="50" id="gradient-7" gradientTransform="matrix(0.999989, -0.004632, 0.004638, 1, 115.001068, 195.463242)">
      <stop offset="0" style="stop-color: rgb(2, 216, 151);"/>
      <stop offset="1" style="stop-color: rgb(4, 172, 73);"/>
    </linearGradient>
    <linearGradient gradientUnits="userSpaceOnUse" x1="100" y1="0" x2="100" y2="50" id="gradient-8" gradientTransform="matrix(0.999989, -0.004632, 0.004638, 1, 115.001068, 255.463242)">
      <stop offset="0" style="stop-color: rgb(161, 142, 248);"/>
      <stop offset="1" style="stop-color: rgb(141, 88, 197);"/>
    </linearGradient>
    <linearGradient gradientUnits="userSpaceOnUse" x1="100" y1="0" x2="100" y2="50" id="gradient-9" gradientTransform="matrix(0.999989, -0.004632, 0.004638, 1, 115.001068, 315.463135)">
      <stop offset="0" style="stop-color: rgb(215, 106, 235);"/>
      <stop offset="1" style="stop-color: rgb(186, 52, 182);"/>
    </linearGradient>
    <linearGradient gradientUnits="userSpaceOnUse" x1="100" y1="0" x2="100" y2="50" id="gradient-10" gradientTransform="matrix(0.999989, -0.004632, 0.004638, 1, 115.001068, 375.463135)">
      <stop offset="0" style="stop-color: rgb(255, 121, 156);"/>
      <stop offset="1" style="stop-color: rgb(221, 84, 86);"/>
    </linearGradient>
    <linearGradient gradientUnits="userSpaceOnUse" x1="100" y1="0" x2="100" y2="50" id="gradient-1" gradientTransform="matrix(1.25, 0, 0, 1, 325.000427, 74.999603)">
      <stop offset="0" style="stop-color: rgb(1, 199, 227);"/>
      <stop offset="1" style="stop-color: rgb(0, 136, 175);"/>
    </linearGradient>
    <linearGradient gradientUnits="userSpaceOnUse" x1="100" y1="0" x2="100" y2="50" id="gradient-3" gradientTransform="matrix(1.249986, -0.004629, 0.005798, 1, 325.00177, 135.462494)">
      <stop offset="0" style="stop-color: rgb(0, 216, 196);"/>
      <stop offset="1" style="stop-color: rgb(0, 163, 163);"/>
    </linearGradient>
    <linearGradient gradientUnits="userSpaceOnUse" x1="100" y1="0" x2="100" y2="50" id="gradient-4" gradientTransform="matrix(1.249986, -0.004632, 0.005798, 1, 325.00177, 195.46286)">
      <stop offset="0" style="stop-color: rgb(2, 216, 151);"/>
      <stop offset="1" style="stop-color: rgb(4, 172, 73);"/>
    </linearGradient>
    <linearGradient gradientUnits="userSpaceOnUse" x1="100" y1="0" x2="100" y2="50" id="gradient-5" gradientTransform="matrix(1.249986, -0.004632, 0.005798, 1, 325.00177, 255.46286)">
      <stop offset="0" style="stop-color: rgb(161, 142, 248);"/>
      <stop offset="1" style="stop-color: rgb(141, 88, 197);"/>
    </linearGradient>
    <linearGradient gradientUnits="userSpaceOnUse" x1="100" y1="0" x2="100" y2="50" id="gradient-6" gradientTransform="matrix(1.249986, -0.004632, 0.005798, 1, 325.00177, 315.462738)">
      <stop offset="0" style="stop-color: rgb(215, 106, 235);"/>
      <stop offset="1" style="stop-color: rgb(186, 52, 182);"/>
    </linearGradient>
    <linearGradient gradientUnits="userSpaceOnUse" x1="100" y1="0" x2="100" y2="50" id="gradient-11" gradientTransform="matrix(1.249986, -0.004632, 0.005798, 1, 325.00177, 375.462769)">
      <stop offset="0" style="stop-color: rgb(255, 121, 156);"/>
      <stop offset="1" style="stop-color: rgb(221, 84, 86);"/>
    </linearGradient>
    <linearGradient gradientUnits="userSpaceOnUse" x1="100" y1="0" x2="100" y2="50" id="gradient-12" gradientTransform="matrix(1.5, 0, 0, 1, 585.000467, 74.999352)">
      <stop offset="0" style="stop-color: rgb(1, 199, 227);"/>
      <stop offset="1" style="stop-color: rgb(0, 136, 175);"/>
    </linearGradient>
    <linearGradient gradientUnits="userSpaceOnUse" x1="100" y1="0" x2="100" y2="50" id="gradient-13" gradientTransform="matrix(1.499983, -0.004629, 0.006958, 1, 585.002079, 135.462234)">
      <stop offset="0" style="stop-color: rgb(0, 216, 196);"/>
      <stop offset="1" style="stop-color: rgb(0, 163, 163);"/>
    </linearGradient>
    <linearGradient gradientUnits="userSpaceOnUse" x1="100" y1="0" x2="100" y2="50" id="gradient-14" gradientTransform="matrix(1.499983, -0.004632, 0.006958, 1, 585.002079, 195.462616)">
      <stop offset="0" style="stop-color: rgb(2, 216, 151);"/>
      <stop offset="1" style="stop-color: rgb(4, 172, 73);"/>
    </linearGradient>
    <linearGradient gradientUnits="userSpaceOnUse" x1="100" y1="0" x2="100" y2="50" id="gradient-15" gradientTransform="matrix(1.499983, -0.004632, 0.006958, 1, 585.002079, 255.462616)">
      <stop offset="0" style="stop-color: rgb(161, 142, 248);"/>
      <stop offset="1" style="stop-color: rgb(141, 88, 197);"/>
    </linearGradient>
    <linearGradient gradientUnits="userSpaceOnUse" x1="100" y1="0" x2="100" y2="50" id="gradient-16" gradientTransform="matrix(1.499983, -0.004632, 0.006958, 1, 585.002079, 315.462494)">
      <stop offset="0" style="stop-color: rgb(215, 106, 235);"/>
      <stop offset="1" style="stop-color: rgb(186, 52, 182);"/>
    </linearGradient>
    <linearGradient gradientUnits="userSpaceOnUse" x1="100" y1="0" x2="100" y2="50" id="gradient-17" gradientTransform="matrix(1.499983, -0.004632, 0.006958, 1, 585.002079, 375.462524)">
      <stop offset="0" style="stop-color: rgb(255, 121, 156);"/>
      <stop offset="1" style="stop-color: rgb(221, 84, 86);"/>
    </linearGradient>
    <mask id="mask-0">
      <path d="M -7.501 -257.501 L -2.501 -257.501 L -2.501 757.501 L -7.501 757.501 L -7.501 -257.501 Z M 2.499 -257.501 L 7.499 -257.501 L 7.499 757.501 L 2.499 757.501 L 2.499 -257.501 Z M 12.499 -257.501 L 17.499 -257.501 L 17.499 757.501 L 12.499 757.501 L 12.499 -257.501 Z M 22.499 -257.501 L 27.499 -257.501 L 27.499 757.501 L 22.499 757.501 L 22.499 -257.501 Z M 32.499 -257.501 L 37.499 -257.501 L 37.499 757.501 L 32.499 757.501 L 32.499 -257.501 Z M 42.499 -257.501 L 47.499 -257.501 L 47.499 757.501 L 42.499 757.501 L 42.499 -257.501 Z M 52.499 -257.501 L 57.499 -257.501 L 57.499 757.501 L 52.499 757.501 L 52.499 -257.501 Z M 62.499 -257.501 L 67.499 -257.501 L 67.499 757.501 L 62.499 757.501 L 62.499 -257.501 Z M 72.499 -257.501 L 77.499 -257.501 L 77.499 757.501 L 72.499 757.501 L 72.499 -257.501 Z M 82.499 -257.501 L 87.499 -257.501 L 87.499 757.501 L 82.499 757.501 L 82.499 -257.501 Z M 92.499 -257.501 L 97.499 -257.501 L 97.499 757.501 L 92.499 757.501 L 92.499 -257.501 Z M 102.499 -257.501 L 107.499 -257.501 L 107.499 757.501 L 102.499 757.501 L 102.499 -257.501 Z M 112.499 -257.501 L 117.499 -257.501 L 117.499 757.501 L 112.499 757.501 L 112.499 -257.501 Z M 122.499 -257.501 L 127.499 -257.501 L 127.499 757.501 L 122.499 757.501 L 122.499 -257.501 Z M 132.499 -257.501 L 137.499 -257.501 L 137.499 757.501 L 132.499 757.501 L 132.499 -257.501 Z M 142.499 -257.501 L 147.499 -257.501 L 147.499 757.501 L 142.499 757.501 L 142.499 -257.501 Z M 152.499 -257.501 L 157.499 -257.501 L 157.499 757.501 L 152.499 757.501 L 152.499 -257.501 Z M 162.499 -257.501 L 167.499 -257.501 L 167.499 757.501 L 162.499 757.501 L 162.499 -257.501 Z M 172.5 -257.501 L 177.5 -257.501 L 177.5 757.501 L 172.5 757.501 L 172.5 -257.501 Z M 182.5 -257.501 L 187.5 -257.501 L 187.5 757.501 L 182.5 757.501 L 182.5 -257.501 Z M 192.5 -257.501 L 197.5 -257.501 L 197.5 757.501 L 192.5 757.501 L 192.5 -257.501 Z M 202.5 -257.501 L 207.5 -257.501 L 207.5 757.501 L 202.5 757.501 L 202.5 -257.501 Z M 212.5 -257.501 L 217.5 -257.501 L 217.5 757.501 L 212.5 757.501 L 212.5 -257.501 Z M 222.5 -257.501 L 227.5 -257.501 L 227.5 757.501 L 222.5 757.501 L 222.5 -257.501 Z M 232.5 -257.501 L 237.5 -257.501 L 237.5 757.501 L 232.5 757.501 L 232.5 -257.501 Z M 242.5 -257.501 L 247.5 -257.501 L 247.5 757.501 L 242.5 757.501 L 242.5 -257.501 Z M 252.5 -257.501 L 257.5 -257.501 L 257.5 757.501 L 252.5 757.501 L 252.5 -257.501 Z M 262.5 -257.501 L 267.5 -257.501 L 267.5 757.501 L 262.5 757.501 L 262.5 -257.501 Z M 272.5 -257.501 L 277.5 -257.501 L 277.5 757.501 L 272.5 757.501 L 272.5 -257.501 Z M 282.5 -257.501 L 287.5 -257.501 L 287.5 757.501 L 282.5 757.501 L 282.5 -257.501 Z M 292.5 -257.501 L 297.5 -257.501 L 297.5 757.501 L 292.5 757.501 L 292.5 -257.501 Z M 302.5 -257.501 L 307.5 -257.501 L 307.5 757.501 L 302.5 757.501 L 302.5 -257.501 Z M 312.5 -257.501 L 317.5 -257.501 L 317.5 757.501 L 312.5 757.501 L 312.5 -257.501 Z M 322.5 -257.501 L 327.5 -257.501 L 327.5 757.501 L 322.5 757.501 L 322.5 -257.501 Z M 332.5 -257.501 L 337.5 -257.501 L 337.5 757.501 L 332.5 757.501 L 332.5 -257.501 Z M 342.5 -257.501 L 347.5 -257.501 L 347.5 757.501 L 342.5 757.501 L 342.5 -257.501 Z M 352.5 -257.501 L 357.5 -257.501 L 357.5 757.501 L 352.5 757.501 L 352.5 -257.501 Z M 362.5 -257.501 L 367.5 -257.501 L 367.5 757.501 L 362.5 757.501 L 362.5 -257.501 Z M 372.5 -257.501 L 377.5 -257.501 L 377.5 757.501 L 372.5 757.501 L 372.5 -257.501 Z M 382.5 -257.501 L 387.5 -257.501 L 387.5 757.501 L 382.5 757.501 L 382.5 -257.501 Z M 392.5 -257.501 L 397.5 -257.501 L 397.5 757.501 L 392.5 757.501 L 392.5 -257.501 Z M 402.5 -257.501 L 407.5 -257.501 L 407.5 757.501 L 402.5 757.501 L 402.5 -257.501 Z M 412.5 -257.501 L 417.5 -257.501 L 417.5 757.501 L 412.5 757.501 L 412.5 -257.501 Z M 422.5 -257.501 L 427.5 -257.501 L 427.5 757.501 L 422.5 757.501 L 422.5 -257.501 Z M 432.5 -257.501 L 437.5 -257.501 L 437.5 757.501 L 432.5 757.501 L 432.5 -257.501 Z M 442.5 -257.501 L 447.5 -257.501 L 447.5 757.501 L 442.5 757.501 L 442.5 -257.501 Z M 452.5 -257.501 L 457.5 -257.501 L 457.5 757.501 L 452.5 757.501 L 452.5 -257.501 Z M 462.5 -257.501 L 467.5 -257.501 L 467.5 757.501 L 462.5 757.501 L 462.5 -257.501 Z M 472.5 -257.501 L 477.5 -257.501 L 477.5 757.501 L 472.5 757.501 L 472.5 -257.501 Z M 482.5 -257.501 L 487.5 -257.501 L 487.5 757.501 L 482.5 757.501 L 482.5 -257.501 Z M 492.5 -257.501 L 497.5 -257.501 L 497.5 757.501 L 492.5 757.501 L 492.5 -257.501 Z M 502.5 -257.501 L 507.5 -257.501 L 507.5 757.501 L 502.5 757.501 L 502.5 -257.501 Z M 512.5 -257.501 L 517.5 -257.501 L 517.5 757.501 L 512.5 757.501 L 512.5 -257.501 Z M 522.5 -257.501 L 527.5 -257.501 L 527.5 757.501 L 522.5 757.501 L 522.5 -257.501 Z M 532.5 -257.501 L 537.5 -257.501 L 537.5 757.501 L 532.5 757.501 L 532.5 -257.501 Z M 542.5 -257.501 L 547.5 -257.501 L 547.5 757.501 L 542.5 757.501 L 542.5 -257.501 Z M 552.5 -257.501 L 557.5 -257.501 L 557.5 757.501 L 552.5 757.501 L 552.5 -257.501 Z M 562.5 -257.501 L 567.501 -257.501 L 567.501 757.501 L 562.5 757.501 L 562.5 -257.501 Z M 572.501 -257.501 L 577.501 -257.501 L 577.501 757.501 L 572.501 757.501 L 572.501 -257.501 Z M 582.501 -257.501 L 587.501 -257.501 L 587.501 757.501 L 582.501 757.501 L 582.501 -257.501 Z M 592.501 -257.501 L 597.501 -257.501 L 597.501 757.501 L 592.501 757.501 L 592.501 -257.501 Z M 602.501 -257.501 L 607.501 -257.501 L 607.501 757.501 L 602.501 757.501 L 602.501 -257.501 Z M 612.501 -257.501 L 617.501 -257.501 L 617.501 757.501 L 612.501 757.501 L 612.501 -257.501 Z M 622.501 -257.501 L 627.501 -257.501 L 627.501 757.501 L 622.501 757.501 L 622.501 -257.501 Z M 632.501 -257.501 L 637.501 -257.501 L 637.501 757.501 L 632.501 757.501 L 632.501 -257.501 Z M 642.501 -257.501 L 647.501 -257.501 L 647.501 757.501 L 642.501 757.501 L 642.501 -257.501 Z M 652.501 -257.501 L 657.501 -257.501 L 657.501 757.501 L 652.501 757.501 L 652.501 -257.501 Z M 662.501 -257.501 L 667.501 -257.501 L 667.501 757.501 L 662.501 757.501 L 662.501 -257.501 Z M 672.501 -257.501 L 677.501 -257.501 L 677.501 757.501 L 672.501 757.501 L 672.501 -257.501 Z M 682.501 -257.501 L 687.501 -257.501 L 687.501 757.501 L 682.501 757.501 L 682.501 -257.501 Z M 692.501 -257.501 L 697.501 -257.501 L 697.501 757.501 L 692.501 757.501 L 692.501 -257.501 Z M 702.501 -257.501 L 707.501 -257.501 L 707.501 757.501 L 702.501 757.501 L 702.501 -257.501 Z M 712.501 -257.501 L 717.501 -257.501 L 717.501 757.501 L 712.501 757.501 L 712.501 -257.501 Z M 722.501 -257.501 L 727.501 -257.501 L 727.501 757.501 L 722.501 757.501 L 722.501 -257.501 Z M 732.501 -257.501 L 737.501 -257.501 L 737.501 757.501 L 732.501 757.501 L 732.501 -257.501 Z M 742.501 -257.501 L 747.501 -257.501 L 747.501 757.501 L 742.501 757.501 L 742.501 -257.501 Z M 752.501 -257.501 L 757.501 -257.501 L 757.501 757.501 L 752.501 757.501 L 752.501 -257.501 Z M 762.501 -257.501 L 767.501 -257.501 L 767.501 757.501 L 762.501 757.501 L 762.501 -257.501 Z M 772.501 -257.501 L 777.501 -257.501 L 777.501 757.501 L 772.501 757.501 L 772.501 -257.501 Z M 782.501 -257.501 L 787.501 -257.501 L 787.501 757.501 L 782.501 757.501 L 782.501 -257.501 Z M 792.501 -257.501 L 797.501 -257.501 L 797.501 757.501 L 792.501 757.501 L 792.501 -257.501 Z M 802.501 -257.501 L 807.501 -257.501 L 807.501 757.501 L 802.501 757.501 L 802.501 -257.501 Z M 812.501 -257.501 L 817.501 -257.501 L 817.501 757.501 L 812.501 757.501 L 812.501 -257.501 Z M 822.501 -257.501 L 827.501 -257.501 L 827.501 757.501 L 822.501 757.501 L 822.501 -257.501 Z M 832.501 -257.501 L 837.501 -257.501 L 837.501 757.501 L 832.501 757.501 L 832.501 -257.501 Z M 842.501 -257.501 L 847.501 -257.501 L 847.501 757.501 L 842.501 757.501 L 842.501 -257.501 Z M 852.501 -257.501 L 857.501 -257.501 L 857.501 757.501 L 852.501 757.501 L 852.501 -257.501 Z M 862.501 -257.501 L 867.501 -257.501 L 867.501 757.501 L 862.501 757.501 L 862.501 -257.501 Z M 872.501 -257.501 L 877.501 -257.501 L 877.501 757.501 L 872.501 757.501 L 872.501 -257.501 Z M 882.501 -257.501 L 887.501 -257.501 L 887.501 757.501 L 882.501 757.501 L 882.501 -257.501 Z M 892.501 -257.501 L 897.501 -257.501 L 897.501 757.501 L 892.501 757.501 L 892.501 -257.501 Z M 902.501 -257.501 L 907.501 -257.501 L 907.501 757.501 L 902.501 757.501 L 902.501 -257.501 Z M 912.501 -257.501 L 917.501 -257.501 L 917.501 757.501 L 912.501 757.501 L 912.501 -257.501 Z M 922.501 -257.501 L 927.501 -257.501 L 927.501 757.501 L 922.501 757.501 L 922.501 -257.501 Z M 932.501 -257.501 L 937.501 -257.501 L 937.501 757.501 L 932.501 757.501 L 932.501 -257.501 Z M 942.501 -257.501 L 947.501 -257.501 L 947.501 757.501 L 942.501 757.501 L 942.501 -257.501 Z M 952.501 -257.501 L 957.501 -257.501 L 957.501 757.501 L 952.501 757.501 L 952.501 -257.501 Z M 962.501 -257.501 L 967.501 -257.501 L 967.501 757.501 L 962.501 757.501 L 962.501 -257.501 Z M 972.501 -257.501 L 977.501 -257.501 L 977.501 757.501 L 972.501 757.501 L 972.501 -257.501 Z M 982.501 -257.501 L 987.501 -257.501 L 987.501 757.501 L 982.501 757.501 L 982.501 -257.501 Z M 992.501 -257.501 L 997.501 -257.501 L 997.501 757.501 L 992.501 757.501 L 992.501 -257.501 Z M 1002.501 -257.501 L 1007.501 -257.501 L 1007.501 757.501 L 1002.501 757.501 L 1002.501 -257.501 Z" style="fill: rgb(255, 255, 255); transform-box: fill-box; transform-origin: 50% 50%;" transform="matrix(0.707107, 0.707107, -0.707107, 0.707107, -0.000014, -0.000016)"/>
    </mask>
  </defs>
  <g>
    <rect width="200" height="50" x="115" y="75" rx="25" ry="25" style="fill: url('#gradient-18');"/>
    <rect width="200" height="50" x="115" y="135" rx="25" ry="25" style="fill: url('#gradient-2');"/>
    <rect width="200" height="50" x="115" y="195" rx="25" ry="25" style="fill: url('#gradient-7');"/>
    <rect width="200" height="50" x="115" y="255" rx="25" ry="25" style="fill: url('#gradient-8');"/>
    <rect width="200" height="50" x="115" y="315" rx="25" ry="25" style="fill: url('#gradient-9');"/>
    <rect width="200" height="50" x="115" y="375" rx="25" ry="25" style="fill: url('#gradient-10');"/>
    <rect width="250" height="50" x="325" y="75" rx="25" ry="25" style="fill: url('#gradient-1');"/>
    <rect width="250" height="50" x="325" y="135" rx="25" ry="25" style="fill: url('#gradient-3');"/>
    <rect width="250" height="50" x="325" y="195" rx="25" ry="25" style="fill: url('#gradient-4');"/>
    <rect width="250" height="50" x="325" y="255" rx="25" ry="25" style="fill: url('#gradient-5');"/>
    <rect width="250" height="50" x="325" y="315" rx="25" ry="25" style="fill: url('#gradient-6');"/>
    <rect width="250" height="50" x="325" y="375" rx="25" ry="25" style="fill: url('#gradient-11');"/>
    <rect width="300" height="50" x="585" y="75" rx="25" ry="25" style="fill: url('#gradient-12');"/>
    <rect width="300" height="50" x="585" y="135" rx="25" ry="25" style="fill: url('#gradient-13');"/>
    <rect width="300" height="50" x="585" y="195" rx="25" ry="25" style="fill: url('#gradient-14');"/>
    <rect width="300" height="50" x="585" y="255" rx="25" ry="25" style="fill: url('#gradient-15');"/>
    <rect width="300" height="50" x="585" y="315" rx="25" ry="25" style="fill: url('#gradient-16');"/>
    <rect width="300" height="50" x="585" y="375" rx="25" ry="25" style="fill: url('#gradient-17');"/>
  </g>
  <g style="mask: url('#mask-0'); opacity: 0.07;">
    <rect width="200" height="50" x="115" y="75" rx="25" ry="25" style="fill: white"/>
    <rect width="200" height="50" x="115" y="135" rx="25" ry="25" style="fill: white"/>
    <rect width="200" height="50" x="115" y="195" rx="25" ry="25" style="fill: white"/>
    <rect width="200" height="50" x="115" y="255" rx="25" ry="25" style="fill: white"/>
    <rect width="200" height="50" x="115" y="315" rx="25" ry="25" style="fill: white"/>
    <rect width="200" height="50" x="115" y="375" rx="25" ry="25" style="fill: white"/>
    <rect width="250" height="50" x="325" y="75" rx="25" ry="25" style="fill: white"/>
    <rect width="250" height="50" x="325" y="135" rx="25" ry="25" style="fill: white"/>
    <rect width="250" height="50" x="325" y="195" rx="25" ry="25" style="fill: white"/>
    <rect width="250" height="50" x="325" y="255" rx="25" ry="25" style="fill: white"/>
    <rect width="250" height="50" x="325" y="315" rx="25" ry="25" style="fill: white"/>
    <rect width="250" height="50" x="325" y="375" rx="25" ry="25" style="fill: white"/>
    <rect width="300" height="50" x="585" y="75" rx="25" ry="25" style="fill: white"/>
    <rect width="300" height="50" x="585" y="135" rx="25" ry="25" style="fill: white"/>
    <rect width="300" height="50" x="585" y="195" rx="25" ry="25" style="fill: white"/>
    <rect width="300" height="50" x="585" y="255" rx="25" ry="25" style="fill: white"/>
    <rect width="300" height="50" x="585" y="315" rx="25" ry="25" style="fill: white"/>
    <rect width="300" height="50" x="585" y="375" rx="25" ry="25" style="fill: white"/>
  </g>
</svg>