<?xml version="1.0" encoding="utf-8"?>
<svg viewBox="0 0 1000 1325" xmlns="http://www.w3.org/2000/svg" xmlns:bx="https://boxy-svg.com">
  <defs>
    <linearGradient gradientUnits="userSpaceOnUse" x1="100" y1="0" x2="100" y2="50" id="gradient-8" gradientTransform="matrix(1.499983, -0.006948, 0.006957, 1.499999, 350.002808, 484.910095)">
      <stop offset="0" style="stop-color: rgb(161, 142, 248);"/>
      <stop offset="1" style="stop-color: rgb(141, 88, 197);"/>
    </linearGradient>
    <linearGradient gradientUnits="userSpaceOnUse" x1="100" y1="0" x2="100" y2="50" id="gradient-12" gradientTransform="matrix(2.245, 0, 0, 1.498901, 275.500732, 1137.020813)">
      <stop offset="0" style="stop-color: rgb(1, 199, 227);"/>
      <stop offset="1" style="stop-color: rgb(0, 136, 175);"/>
    </linearGradient>
    <linearGradient gradientUnits="userSpaceOnUse" x1="100" y1="0" x2="100" y2="50" id="gradient-2" gradientTransform="matrix(1.499983, -0.006948, 0.006957, 1.499999, 350.002808, 938.694214)">
      <stop offset="0" style="stop-color: rgb(161, 142, 248);"/>
      <stop offset="1" style="stop-color: rgb(141, 88, 197);"/>
    </linearGradient>
    <filter id="drop-shadow-filter-1" color-interpolation-filters="sRGB" x="-50%" y="-50%" width="200%" height="200%" bx:preset="drop-shadow 1 0 0 10 0.4 rgba(0,0,0,0.3)">
      <feGaussianBlur in="SourceAlpha" stdDeviation="10"/>
      <feOffset dx="0" dy="0"/>
      <feComponentTransfer result="offsetblur">
        <feFuncA id="spread-ctrl" type="linear" slope="0.8"/>
      </feComponentTransfer>
      <feFlood flood-color="rgba(0,0,0,0.3)"/>
      <feComposite in2="offsetblur" operator="in"/>
      <feMerge>
        <feMergeNode/>
        <feMergeNode in="SourceGraphic"/>
      </feMerge>
    </filter>
  </defs>
  <rect width="1000" height="1326.24" style="fill: rgb(227, 228, 229);" x="-0.128" y="-1.237"/>
  <g style="filter: url('#drop-shadow-filter-1');">
    <path d="M 69.5 49 L 472 49 C 486 49 493.375 25 500 25 C 506.625 25 514 49 528 49 L 930.5 49 C 941.822 49 951 58.178 951 69.5 L 951 1254.5 C 951 1265.822 941.822 1276 930.5 1276 L 69.5 1276 C 58.178 1276 49 1265.822 49 1254.5 L 49 69.5 C 49 58.178 58.178 49 69.5 49 Z" style="filter: none; stroke: rgb(198, 198, 198); stroke-width: 2px; fill: rgb(233, 233, 233);"/>
    <rect style="fill: rgb(227, 232, 238); stroke-width: 2px; filter: none;" x="50" width="900" height="1225" rx="19.5" ry="19.5" y="50"/>
    <g>
      <path style="fill: rgb(74, 155, 36);" d="M 69.5 50 H 930.5 A 19.5 19.5 0 0 1 950 69.5 V 250 H 50 V 69.5 A 19.5 19.5 0 0 1 69.5 50 Z" bx:shape="rect 50 50 900 200 19.5 19.5 0 0 1@19aba10c"/>
      <text style="fill: rgb(255, 255, 255); font-family: Tahoma; font-size: 28px; font-weight: 700; white-space: pre;" transform="matrix(1, 0, 0, 1, -182.496414, -53.611458)" x="273.2909851074219" y="152.7239990234375">Global permissions for the following domains were added:<tspan x="273.2909851074219" dy="1em">​</tspan></text>
      <rect style="fill: rgb(255, 255, 255); fill-opacity: 0.15;" x="50" y="125.612" width="900" height="124.388"/>
      <text style="fill: rgb(255, 255, 255); font-family: Arial; font-size: 26px; white-space: pre;" transform="matrix(1, 0, 0, 1, 54.034245, 26.73229)"><tspan x="273.291" y="152.724">sub3.sub2.sub1.example.com</tspan><tspan x="273.2909851074219" dy="1em">​</tspan></text>
      <text style="fill: rgb(255, 255, 255); font-family: Arial; font-size: 26px; white-space: pre;" transform="matrix(1, 0, 0, 1, 85.828323, 65.024269)"><tspan x="273.291" y="152.724">sub2.sub1.example.com</tspan><tspan x="273.2909851074219" dy="1em">​</tspan></text>
    </g>
    <g>
      <path d="M 900.566 325 L 904.432 325 C 905.553 325 906.338 324.344 906.618 323.278 L 907.739 318.493 C 908.635 318.192 909.475 317.864 910.261 317.482 L 914.463 320.052 C 915.304 320.599 916.368 320.516 917.098 319.777 L 919.842 317.071 C 920.571 316.333 920.683 315.212 920.067 314.311 L 917.546 310.156 C 917.938 309.389 918.273 308.542 918.498 307.749 L 923.376 306.6 C 924.379 306.354 925 305.562 925 304.441 L 925 300.667 C 925 299.601 924.379 298.809 923.376 298.562 L 918.554 297.387 C 918.273 296.458 917.881 295.638 917.6 294.954 L 920.122 290.716 C 920.683 289.788 920.627 288.776 919.899 288.009 L 917.098 285.303 C 916.368 284.62 915.416 284.429 914.519 284.976 L 910.261 287.601 C 909.533 287.217 908.691 286.889 907.739 286.589 L 906.618 281.722 C 906.338 280.656 905.553 280 904.432 280 L 900.566 280 C 899.502 280 898.716 280.656 898.436 281.722 L 897.314 286.533 C 896.419 286.834 895.522 287.163 894.793 287.572 L 890.535 284.976 C 889.639 284.429 888.686 284.566 887.9 285.303 L 885.155 288.009 C 884.371 288.776 884.371 289.788 884.931 290.716 L 887.453 294.954 C 887.173 295.638 886.78 296.458 886.5 297.387 L 881.736 298.562 C 880.673 298.809 880 299.601 880 300.667 L 880 304.441 C 880 305.562 880.673 306.354 881.736 306.6 L 886.556 307.749 C 886.78 308.542 887.117 309.389 887.509 310.156 L 884.988 314.311 C 884.371 315.212 884.483 316.333 885.211 317.071 L 887.9 319.777 C 888.686 320.516 889.75 320.599 890.647 320.052 L 894.793 317.482 C 895.579 317.864 896.419 318.192 897.314 318.493 L 898.436 323.278 C 898.716 324.344 899.502 325 900.566 325 Z M 902.527 310.017 C 898.38 310.017 895.018 306.628 895.018 302.5 C 895.018 298.371 898.38 294.982 902.527 294.982 C 906.674 294.982 910.036 298.371 910.036 302.5 C 910.036 306.628 906.674 310.017 902.527 310.017 Z" style="fill: rgb(210, 220, 228);"/>
    </g>
    <g>
      <text style="fill: rgb(69, 70, 72); font-family: Arial, sans-serif; font-size: 29px; font-weight: 700; white-space: pre;" x="321.94" y="341.283">JavaScript on the Domain</text>
      <g>
        <rect style="fill: rgb(255, 255, 255);" x="110" y="371.216" width="780" height="86" rx="22" ry="22"/>
        <text style="font-family: Arial, sans-serif; font-size: 26px; font-weight: 700; white-space: pre; opacity: 0.5;" x="315.779" y="423.301">sub3.sub2.sub1.example.com</text>
      </g>
      <g style="opacity: 0.5;">
        <rect width="300" height="75" x="350" y="484.216" style="fill: url(&quot;#gradient-8&quot;);" rx="37.5" ry="37.5"/>
        <text style="fill: rgb(255, 255, 255); font-family: Arial, sans-serif; font-size: 27px; white-space: pre;" x="469.24" y="531.04">allow</text>
      </g>
    </g>
    <g>
      <text style="fill: rgb(69, 70, 72); font-family: Arial, sans-serif; font-size: 29px; font-weight: 700; white-space: pre;" x="218.413" y="670.982">JavaScript on the Domain + Subdomains</text>
      <g>
        <rect style="fill: rgb(255, 255, 255); stroke-width: 4px; stroke: rgb(149, 84, 202);" x="110" y="700.915" width="780" height="211.085" rx="22" ry="22"/>
        <g>
          <text style="fill: rgb(149, 84, 201); font-family: Arial, sans-serif; font-size: 26px; font-weight: 700; white-space: pre;" x="281.055" y="753">*.sub3.sub2.sub1.example.com</text>
          <path d="M 693.647 729.591 L 715.243 729.591 C 716.158 729.656 717.273 730.088 717.861 730.675 C 718.448 731.263 718.88 732.378 718.945 733.293 L 718.945 754.889 C 718.88 755.804 718.448 756.919 717.861 757.507 C 717.273 758.094 716.158 758.526 715.243 758.591 L 693.647 758.591 C 692.732 758.526 691.617 758.094 691.029 757.507 C 690.442 756.919 690.01 755.804 689.945 754.889 L 689.945 733.293 C 690.01 732.378 690.442 731.263 691.029 730.675 C 691.617 730.088 692.732 729.656 693.647 729.591 Z M 693.151 732.797 C 692.941 733.006 692.88 732.991 692.945 733.293 L 692.945 754.889 C 692.88 755.191 692.941 755.176 693.151 755.385 C 693.36 755.595 693.345 755.656 693.647 755.591 L 715.243 755.591 C 715.545 755.656 715.53 755.595 715.739 755.385 C 715.949 755.176 716.01 755.191 715.945 754.889 L 715.945 733.293 C 716.01 732.991 715.949 733.006 715.739 732.797 C 715.53 732.587 715.545 732.526 715.243 732.591 L 693.647 732.591 C 693.345 732.526 693.36 732.587 693.151 732.797 Z M 695.445 735.091 L 713.445 735.091 L 713.445 753.091 L 695.445 753.091 L 695.445 735.091 Z" style="fill: rgb(149, 84, 201);"/>
        </g>
        <g>
          <text style="fill: rgb(149, 84, 201); font-family: Arial, sans-serif; font-size: 26px; font-weight: 700; white-space: pre;" x="348.956" y="795.407">*.sub2.sub1.example.com</text>
          <path d="M 693.647 771.932 L 715.243 771.932 C 716.158 771.997 717.273 772.429 717.861 773.016 C 718.448 773.604 718.88 774.719 718.945 775.634 L 718.945 797.23 C 718.88 798.145 718.448 799.26 717.861 799.848 C 717.273 800.435 716.158 800.867 715.243 800.932 L 693.647 800.932 C 692.732 800.867 691.617 800.435 691.029 799.848 C 690.442 799.26 690.01 798.145 689.945 797.23 L 689.945 775.634 C 690.01 774.719 690.442 773.604 691.029 773.016 C 691.617 772.429 692.732 771.997 693.647 771.932 Z M 693.151 775.138 C 692.941 775.347 692.88 775.332 692.945 775.634 L 692.945 797.23 C 692.88 797.532 692.941 797.517 693.151 797.726 C 693.36 797.936 693.345 797.997 693.647 797.932 L 715.243 797.932 C 715.545 797.997 715.53 797.936 715.739 797.726 C 715.949 797.517 716.01 797.532 715.945 797.23 L 715.945 775.634 C 716.01 775.332 715.949 775.347 715.739 775.138 C 715.53 774.928 715.545 774.867 715.243 774.932 L 693.647 774.932 C 693.345 774.867 693.36 774.928 693.151 775.138 Z M 695.445 777.432 L 713.445 777.432 L 713.445 795.432 L 695.445 795.432 L 695.445 777.432 Z" style="fill: rgb(149, 84, 201);"/>
        </g>
        <g style="opacity: 0.5;">
          <text style="fill: rgb(149, 84, 201); font-family: Arial, sans-serif; font-size: 26px; font-weight: 700; white-space: pre;" x="416.857" y="837.814">*.sub1.example.com</text>
          <path d="M 693.647 814.407 L 715.243 814.407 C 716.158 814.472 717.273 814.904 717.861 815.491 C 718.448 816.079 718.88 817.194 718.945 818.109 L 718.945 839.703 C 718.88 840.623 718.448 841.733 717.861 842.323 C 717.273 842.913 716.158 843.343 715.243 843.403 L 693.647 843.403 C 692.732 843.343 691.617 842.913 691.029 842.323 C 690.442 841.733 690.01 840.623 689.945 839.703 L 689.945 818.109 C 690.01 817.194 690.442 816.079 691.029 815.491 C 691.617 814.904 692.732 814.472 693.647 814.407 Z M 693.151 817.613 C 692.941 817.822 692.88 817.807 692.945 818.109 L 692.945 839.703 C 692.88 840.003 692.941 839.993 693.151 840.203 C 693.36 840.413 693.345 840.473 693.647 840.403 L 715.243 840.403 C 715.545 840.473 715.53 840.413 715.739 840.203 C 715.949 839.993 716.01 840.003 715.945 839.703 L 715.945 818.109 C 716.01 817.807 715.949 817.822 715.739 817.613 C 715.53 817.403 715.545 817.342 715.243 817.407 L 693.647 817.407 C 693.345 817.342 693.36 817.403 693.151 817.613 Z" style="fill: rgb(149, 84, 201);"/>
        </g>
        <g style="opacity: 0.5;">
          <text style="fill: rgb(149, 84, 201); font-family: Arial, sans-serif; font-size: 26px; font-weight: 700; white-space: pre;" x="484.758" y="880.22">*.example.com</text>
          <path d="M 693.647 856.814 L 715.243 856.814 C 716.158 856.879 717.273 857.311 717.861 857.898 C 718.448 858.486 718.88 859.601 718.945 860.516 L 718.945 882.108 C 718.88 883.028 718.448 884.138 717.861 884.728 C 717.273 885.318 716.158 885.748 715.243 885.808 L 693.647 885.808 C 692.732 885.748 691.617 885.318 691.029 884.728 C 690.442 884.138 690.01 883.028 689.945 882.108 L 689.945 860.516 C 690.01 859.601 690.442 858.486 691.029 857.898 C 691.617 857.311 692.732 856.879 693.647 856.814 Z M 693.151 860.02 C 692.941 860.229 692.88 860.214 692.945 860.516 L 692.945 882.108 C 692.88 882.408 692.941 882.398 693.151 882.608 C 693.36 882.818 693.345 882.878 693.647 882.808 C 693.833 882.808 715.488 882.808 715.243 882.808 C 715.545 882.878 715.53 882.818 715.739 882.608 C 715.949 882.398 716.01 882.408 715.945 882.108 L 715.945 860.516 C 716.01 860.214 715.949 860.229 715.739 860.02 C 715.53 859.81 715.545 859.749 715.243 859.814 L 693.647 859.814 C 693.345 859.749 693.36 859.81 693.151 860.02 Z" style="fill: rgb(149, 84, 201);"/>
        </g>
      </g>
      <g style="opacity: 0.5;">
        <rect width="300" height="75" x="350" y="938" style="fill: url(&quot;#gradient-2&quot;);" rx="37.5" ry="37.5"/>
        <text style="fill: rgb(255, 255, 255); font-family: Arial, sans-serif; font-size: 27px; white-space: pre;" x="469.24" y="984.824">allow</text>
      </g>
    </g>
    <g>
      <path style="fill: rgb(210, 220, 228);" d="M 50 1075 H 950 V 1255.503 A 19.497 19.497 0 0 1 930.503 1275 H 69.5 A 19.5 19.5 0 0 1 50 1255.5 V 1075 Z" bx:shape="rect 50 1075 900 200 0 0 19.497 19.5 1@9d515b8a"/>
      <g>
        <rect width="449" height="74.945" x="275.5" y="1137.02" rx="37.472" ry="37.472" style="fill: url(&quot;#gradient-12&quot;);"/>
        <text style="fill: rgb(255, 255, 255); font-family: Arial, sans-serif; font-size: 27px; white-space: pre;" x="391.98" y="1183.55">cancel permission</text>
      </g>
    </g>
  </g>
</svg>