<?xml version="1.0" encoding="utf-8"?>
<svg viewBox="0 0 1000 1200" xmlns="http://www.w3.org/2000/svg" xmlns:bx="https://boxy-svg.com">
  <defs>
    <linearGradient gradientUnits="userSpaceOnUse" x1="100" y1="0" x2="100" y2="50" id="gradient-8" gradientTransform="matrix(1.499983, -0.006948, 0.006957, 1.499999, 350.002808, 486.694244)">
      <stop offset="0" style="stop-color: rgb(161, 142, 248);"/>
      <stop offset="1" style="stop-color: rgb(141, 88, 197);"/>
    </linearGradient>
    <linearGradient gradientUnits="userSpaceOnUse" x1="100" y1="0" x2="100" y2="50" id="gradient-12" gradientTransform="matrix(2.245, 0, 0, 1.498901, 275.500732, 1012.020813)">
      <stop offset="0" style="stop-color: rgb(1, 199, 227);"/>
      <stop offset="1" style="stop-color: rgb(0, 136, 175);"/>
    </linearGradient>
    <linearGradient gradientUnits="userSpaceOnUse" x1="100" y1="0" x2="100" y2="50" id="gradient-2" gradientTransform="matrix(1.499983, -0.006948, 0.006957, 1.499999, 350.002808, 813.694214)">
      <stop offset="0" style="stop-color: rgb(161, 142, 248);"/>
      <stop offset="1" style="stop-color: rgb(141, 88, 197);"/>
    </linearGradient>
    <filter id="drop-shadow-filter-1" color-interpolation-filters="sRGB" x="-50%" y="-50%" width="200%" height="200%" bx:preset="drop-shadow 1 0 0 10 0.4 rgba(0,0,0,0.3)">
      <feGaussianBlur in="SourceAlpha" stdDeviation="10"/>
      <feOffset dx="0" dy="0"/>
      <feComponentTransfer result="offsetblur">
        <feFuncA id="spread-ctrl" type="linear" slope="0.8"/>
      </feComponentTransfer>
      <feFlood flood-color="rgba(0,0,0,0.3)"/>
      <feComposite in2="offsetblur" operator="in"/>
      <feMerge>
        <feMergeNode/>
        <feMergeNode in="SourceGraphic"/>
      </feMerge>
    </filter>
  </defs>
  <rect width="1000" height="1200" style="fill: rgb(227, 228, 229);"/>
  <g style="filter: url('#drop-shadow-filter-1');">
    <path d="M 69.5 49 L 472 49 C 486 49 493.375 25 500 25 C 506.625 25 514 49 528 49 L 930.5 49 C 941.822 49 951 58.178 951 69.5 L 951 1130.5 C 951 1141.822 941.822 1151 930.5 1151 L 69.5 1151 C 58.178 1151 49 1141.822 49 1130.5 L 49 69.5 C 49 58.178 58.178 49 69.5 49 Z" style="filter: none; stroke: rgb(198, 198, 198); stroke-width: 2px; fill: rgb(233, 233, 233);"/>
    <rect style="fill: rgb(227, 232, 238); stroke-width: 2px; filter: none;" x="50" width="900" height="1100" rx="19.5" ry="19.5" y="50"/>
    <path d="M 900.566 325 L 904.432 325 C 905.553 325 906.338 324.344 906.618 323.278 L 907.739 318.493 C 908.635 318.192 909.475 317.864 910.261 317.482 L 914.463 320.052 C 915.304 320.599 916.368 320.516 917.098 319.777 L 919.842 317.071 C 920.571 316.333 920.683 315.212 920.067 314.311 L 917.546 310.156 C 917.938 309.389 918.273 308.542 918.498 307.749 L 923.376 306.6 C 924.379 306.354 925 305.562 925 304.441 L 925 300.667 C 925 299.601 924.379 298.809 923.376 298.562 L 918.554 297.387 C 918.273 296.458 917.881 295.638 917.6 294.954 L 920.122 290.716 C 920.683 289.788 920.627 288.776 919.899 288.009 L 917.098 285.303 C 916.368 284.62 915.416 284.429 914.519 284.976 L 910.261 287.601 C 909.533 287.217 908.691 286.889 907.739 286.589 L 906.618 281.722 C 906.338 280.656 905.553 280 904.432 280 L 900.566 280 C 899.502 280 898.716 280.656 898.436 281.722 L 897.314 286.533 C 896.419 286.834 895.522 287.163 894.793 287.572 L 890.535 284.976 C 889.639 284.429 888.686 284.566 887.9 285.303 L 885.155 288.009 C 884.371 288.776 884.371 289.788 884.931 290.716 L 887.453 294.954 C 887.173 295.638 886.78 296.458 886.5 297.387 L 881.736 298.562 C 880.673 298.809 880 299.601 880 300.667 L 880 304.441 C 880 305.562 880.673 306.354 881.736 306.6 L 886.556 307.749 C 886.78 308.542 887.117 309.389 887.509 310.156 L 884.988 314.311 C 884.371 315.212 884.483 316.333 885.211 317.071 L 887.9 319.777 C 888.686 320.516 889.75 320.599 890.647 320.052 L 894.793 317.482 C 895.579 317.864 896.419 318.192 897.314 318.493 L 898.436 323.278 C 898.716 324.344 899.502 325 900.566 325 Z M 902.527 310.017 C 898.38 310.017 895.018 306.628 895.018 302.5 C 895.018 298.371 898.38 294.982 902.527 294.982 C 906.674 294.982 910.036 298.371 910.036 302.5 C 910.036 306.628 906.674 310.017 902.527 310.017 Z" style="fill: rgb(210, 220, 228);"/>
    <g>
      <path style="fill: rgb(201, 90, 90);" d="M 69.5 50 H 930.5 A 19.5 19.5 0 0 1 950 69.5 V 250 H 50 V 69.5 A 19.5 19.5 0 0 1 69.5 50 Z" bx:shape="rect 50 50 900 200 19.5 19.5 0 0 1@19aba10c"/>
      <text style="fill: rgb(255, 255, 255); font-family: Tahoma; font-size: 28px; font-weight: 700; white-space: pre;" transform="matrix(1, 0, 0, 1, 41.341339, -53.611454)"><tspan x="273.291" y="152.724">Message title (type: error)</tspan><tspan x="273.2909851074219" dy="1em">​</tspan></text>
      <rect style="fill: rgb(255, 255, 255); fill-opacity: 0.15;" x="50" y="125.612" width="900" height="124.388"/>
      <g>
        <text style="fill: rgb(255, 255, 255); font-family: Arial; font-size: 26px; white-space: pre;" transform="matrix(1, 0, 0, 1, -140.058319, 26.732292)"><tspan x="273.291" y="152.724">Lorem Ipsum has been the industry's standard dummy text ever</tspan><tspan x="273.2909851074219" dy="1em">​</tspan></text>
        <text style="fill: rgb(255, 255, 255); font-family: Arial; font-size: 26px; white-space: pre;" transform="matrix(1, 0, 0, 1, -103.253723, 65.024269)"><tspan x="273.291" y="152.724">since the 1500s, when an unknown printer took a galley...</tspan><tspan x="273.2909851074219" dy="1em">​</tspan></text>
      </g>
    </g>
    <g>
      <text style="fill: rgb(69, 70, 72); font-family: Arial, sans-serif; font-size: 29px; font-weight: 700; white-space: pre;" x="321.94" y="343.067">JavaScript on the Domain</text>
      <g>
        <rect style="fill: rgb(255, 255, 255);" x="110" y="373" width="780" height="86" rx="22" ry="22"/>
        <text style="font-family: Arial, sans-serif; font-size: 26px; font-weight: 700; white-space: pre;" x="417.631" y="425.085">example.com</text>
      </g>
      <g>
        <rect width="300" height="75" x="350" y="486" style="fill: url('#gradient-8');" rx="37.5" ry="37.5"/>
        <text style="fill: rgb(255, 255, 255); font-family: Arial, sans-serif; font-size: 27px; white-space: pre;" x="469.24" y="532.824">allow</text>
      </g>
    </g>
    <g>
      <text style="fill: rgb(69, 70, 72); font-family: Arial, sans-serif; font-size: 29px; font-weight: 700; white-space: pre;" x="218.413" y="670.067">JavaScript on the Domain + Subdomains</text>
      <g>
        <rect style="fill: rgb(255, 255, 255);" x="110" y="700" width="780" height="86" rx="22" ry="22"/>
        <text style="font-family: Arial, sans-serif; font-size: 26px; font-weight: 700; white-space: pre;" x="408.96" y="752.085">*.example.com</text>
      </g>
      <g>
        <rect width="300" height="75" x="350" y="813" style="fill: url('#gradient-2');" rx="37.5" ry="37.5"/>
        <text style="fill: rgb(255, 255, 255); font-family: Arial, sans-serif; font-size: 27px; white-space: pre;" x="469.24" y="859.824">allow</text>
      </g>
    </g>
    <g>
      <path style="fill: rgb(210, 220, 228);" d="M 50 950 H 950 V 1130.5 A 19.5 19.5 0 0 1 930.5 1150 H 69.5 A 19.5 19.5 0 0 1 50 1130.5 V 950 Z" bx:shape="rect 50 950 900 200 0 0 19.5 19.5 1@b311f3e0"/>
      <g style="opacity: 0.5;">
        <rect width="449" height="74.945" x="275.5" y="1012.023" rx="37.472" ry="37.472" style="fill: url(&quot;#gradient-12&quot;);"/>
        <text style="fill: rgb(255, 255, 255); font-family: Arial, sans-serif; font-size: 27px; white-space: pre;" x="391.98" y="1058.55">cancel permission</text>
      </g>
    </g>
  </g>
</svg>