<?xml version="1.0" encoding="utf-8"?>
<svg viewBox="0 0 1000 1050" xmlns="http://www.w3.org/2000/svg" xmlns:bx="https://boxy-svg.com">
  <defs>
    <linearGradient gradientUnits="userSpaceOnUse" x1="100" y1="0" x2="100" y2="50" id="gradient-8" gradientTransform="matrix(1.499983, -0.006948, 0.006957, 1.499999, 350.002808, 286.693909)">
      <stop offset="0" style="stop-color: rgb(161, 142, 248);"/>
      <stop offset="1" style="stop-color: rgb(141, 88, 197);"/>
    </linearGradient>
    <linearGradient gradientUnits="userSpaceOnUse" x1="100" y1="0" x2="100" y2="50" id="gradient-12" gradientTransform="matrix(2.245, 0, 0, 1.498901, 275.500732, 811.997498)">
      <stop offset="0" style="stop-color: rgb(1, 199, 227);"/>
      <stop offset="1" style="stop-color: rgb(0, 136, 175);"/>
    </linearGradient>
    <linearGradient gradientUnits="userSpaceOnUse" x1="100" y1="0" x2="100" y2="50" id="gradient-2" gradientTransform="matrix(1.499983, -0.006948, 0.006957, 1.499999, 350.002808, 613.693909)">
      <stop offset="0" style="stop-color: rgb(161, 142, 248);"/>
      <stop offset="1" style="stop-color: rgb(141, 88, 197);"/>
    </linearGradient>
    <filter id="drop-shadow-filter-1" color-interpolation-filters="sRGB" x="-50%" y="-50%" width="200%" height="200%" bx:preset="drop-shadow 1 0 0 10 0.4 rgba(0,0,0,0.3)">
      <feGaussianBlur in="SourceAlpha" stdDeviation="10"/>
      <feOffset dx="0" dy="0"/>
      <feComponentTransfer result="offsetblur">
        <feFuncA id="spread-ctrl" type="linear" slope="0.8"/>
      </feComponentTransfer>
      <feFlood flood-color="rgba(0,0,0,0.3)"/>
      <feComposite in2="offsetblur" operator="in"/>
      <feMerge>
        <feMergeNode/>
        <feMergeNode in="SourceGraphic"/>
      </feMerge>
    </filter>
  </defs>
  <rect width="1000" height="1050" style="fill: rgb(227, 228, 229);"/>
  <g style="filter: url('#drop-shadow-filter-1');">
    <path d="M 69.5 49 L 472 49 C 486 49 493.375 25 500 25 C 506.625 25 514 49 528 49 L 930.5 49 C 941.822 49 951 58.178 951 69.5 L 951 930.5 C 951 941.822 941.822 951 930.5 951 L 69.5 951 C 58.178 951 49 941.822 49 930.5 L 49 69.5 C 49 58.178 58.178 49 69.5 49 Z" style="filter: none; stroke: rgb(198, 198, 198); stroke-width: 2px; fill: rgb(233, 233, 233);"/>
    <rect style="stroke-width: 2px; filter: none; fill: rgb(227, 232, 238);" x="50" width="900" height="900" y="50" rx="19.5" ry="19.5"/>
    <g>
      <text style="fill: rgb(69, 70, 72); font-family: Arial, sans-serif; font-size: 29px; font-weight: 700; white-space: pre;" x="321.94" y="143.219">JavaScript on the Domain</text>
      <g>
        <rect style="fill: rgb(255, 255, 255);" x="110" y="173" width="780" height="86" rx="22" ry="22"/>
        <text style="font-family: Arial, sans-serif; font-size: 26px; font-weight: 700; white-space: pre;" x="417.631" y="225.237">example.com</text>
      </g>
      <g>
        <rect width="300" height="75" x="350" y="286" style="fill: url('#gradient-8'); fill-opacity: 0.35;" rx="37.5" ry="37.5"/>
        <text style="fill: rgb(255, 255, 255); fill-opacity: 0.5; font-family: Arial, sans-serif; font-size: 27px; white-space: pre;" x="469.24" y="332.976">allow</text>
      </g>
    </g>
    <g>
      <text style="fill: rgb(69, 70, 72); font-family: Arial, sans-serif; font-size: 29px; font-weight: 700; white-space: pre;" x="218.413" y="470.219">JavaScript on the Domain + Subdomains</text>
      <g>
        <rect style="fill: rgb(255, 255, 255);" x="110" y="500" width="780" height="86" rx="22" ry="22"/>
        <rect style="stroke: rgb(149, 84, 204); stroke-width: 4px; fill: none;" x="112" y="502" width="776" height="82" rx="20" ry="20"/>
        <text style="fill: rgb(149, 84, 204); font-family: Arial, sans-serif; font-size: 26px; font-weight: 700; white-space: pre;" x="408.96" y="552.237">*.example.com</text>
      </g>
      <g>
        <rect width="300" height="75" x="350" y="613" style="fill: url('#gradient-2'); fill-opacity: 0.35;" rx="37.5" ry="37.5"/>
        <text style="fill: rgb(255, 255, 255); fill-opacity: 0.5; font-family: Arial, sans-serif; font-size: 27px; white-space: pre;" x="469.24" y="659.976">allow</text>
      </g>
    </g>
    <g>
      <path style="fill: rgb(210, 220, 228);" d="M 50 750.152 H 950 V 930.652 A 19.5 19.5 0 0 1 930.5 950.152 H 69.5 A 19.5 19.5 0 0 1 50 930.652 V 750.152 Z" bx:shape="rect 50 750.152 900 200 0 0 19.5 19.5 1@4ee9a8c1"/>
      <g>
        <rect width="450" height="75" x="275" y="812" rx="37.5" ry="37.5" style="fill: url('#gradient-12')"/>
        <text style="fill: rgb(255, 255, 255); font-family: Arial, sans-serif; font-size: 27px; white-space: pre;" x="391.967" y="858.862">cancel permission</text>
      </g>
    </g>
  </g>
</svg>