<?xml version="1.0" encoding="utf-8"?>
<svg viewBox="0 0 1000 1050" xmlns="http://www.w3.org/2000/svg" xmlns:bx="https://boxy-svg.com">
  <defs>
    <linearGradient gradientUnits="userSpaceOnUse" x1="100" y1="0" x2="100" y2="50" id="gradient-8" gradientTransform="matrix(1.499983, -0.006948, 0.006957, 1.499999, 350.002808, 280.693939)">
      <stop offset="0" style="stop-color: rgb(161, 142, 248);"/>
      <stop offset="1" style="stop-color: rgb(141, 88, 197);"/>
    </linearGradient>
    <linearGradient gradientUnits="userSpaceOnUse" x1="100" y1="0" x2="100" y2="50" id="gradient-12" gradientTransform="matrix(2.25, 0, 0, 1.500001, 275.000732, 811.997559)">
      <stop offset="0" style="stop-color: rgb(1, 199, 227);"/>
      <stop offset="1" style="stop-color: rgb(0, 136, 175);"/>
    </linearGradient>
    <linearGradient gradientUnits="userSpaceOnUse" x1="100" y1="0" x2="100" y2="50" id="gradient-2" gradientTransform="matrix(1.499983, -0.006948, 0.006957, 1.499999, 350.002808, 608.693909)">
      <stop offset="0" style="stop-color: rgb(161, 142, 248);"/>
      <stop offset="1" style="stop-color: rgb(141, 88, 197);"/>
    </linearGradient>
    <filter id="drop-shadow-filter-1" color-interpolation-filters="sRGB" x="-50%" y="-50%" width="200%" height="200%" bx:preset="drop-shadow 1 0 0 10 0.4 rgba(0,0,0,0.3)">
      <feGaussianBlur in="SourceAlpha" stdDeviation="10"/>
      <feOffset dx="0" dy="0"/>
      <feComponentTransfer result="offsetblur">
        <feFuncA id="spread-ctrl" type="linear" slope="0.8"/>
      </feComponentTransfer>
      <feFlood flood-color="rgba(0,0,0,0.3)"/>
      <feComposite in2="offsetblur" operator="in"/>
      <feMerge>
        <feMergeNode/>
        <feMergeNode in="SourceGraphic"/>
      </feMerge>
    </filter>
  </defs>
  <rect width="1000" height="1050" style="fill: rgb(84, 85, 84);"/>
  <g style="filter: url('#drop-shadow-filter-1');">
    <path d="M 69.5 49 L 472 49 C 486 49 493.375 25 500 25 C 506.625 25 514 49 528 49 L 930.5 49 C 941.822 49 951 58.178 951 69.5 L 951 930.5 C 951 941.822 941.822 951 930.5 951 L 69.5 951 C 58.178 951 49 941.822 49 930.5 L 49 69.5 C 49 58.178 58.178 49 69.5 49 Z" style="filter: none; stroke-width: 2px; fill: rgb(60, 60, 60); stroke: rgb(101, 106, 109);"/>
    <rect style="stroke-width: 2px; filter: none; fill: rgb(63, 69, 73);" x="50" width="900" height="900" rx="19.5" ry="19.5" y="50"/>
    <path d="M 900.566 120 L 904.432 120 C 905.553 120 906.338 119.344 906.618 118.277 L 907.739 113.493 C 908.635 113.192 909.475 112.865 910.261 112.482 L 914.463 115.052 C 915.304 115.599 916.368 115.517 917.098 114.777 L 919.842 112.071 C 920.571 111.334 920.683 110.213 920.067 109.311 L 917.546 105.156 C 917.938 104.389 918.273 103.542 918.498 102.749 L 923.376 101.6 C 924.379 101.354 925 100.562 925 99.441 L 925 95.668 C 925 94.601 924.379 93.809 923.376 93.563 L 918.554 92.388 C 918.273 91.458 917.881 90.638 917.6 89.954 L 920.122 85.717 C 920.683 84.788 920.627 83.776 919.899 83.009 L 917.098 80.303 C 916.368 79.619 915.416 79.43 914.519 79.975 L 910.261 82.6 C 909.533 82.217 908.691 81.889 907.739 81.589 L 906.618 76.723 C 906.338 75.656 905.553 75 904.432 75 L 900.566 75 C 899.502 75 898.716 75.656 898.436 76.723 L 897.314 81.534 C 896.419 81.834 895.522 82.163 894.793 82.573 L 890.535 79.975 C 889.639 79.43 888.686 79.566 887.9 80.303 L 885.155 83.009 C 884.371 83.776 884.371 84.788 884.931 85.717 L 887.453 89.954 C 887.173 90.638 886.78 91.458 886.5 92.388 L 881.736 93.563 C 880.673 93.809 880 94.601 880 95.668 L 880 99.441 C 880 100.562 880.673 101.354 881.736 101.6 L 886.556 102.749 C 886.78 103.542 887.117 104.389 887.509 105.156 L 884.988 109.311 C 884.371 110.213 884.483 111.334 885.211 112.071 L 887.9 114.777 C 888.686 115.517 889.75 115.599 890.647 115.052 L 894.793 112.482 C 895.579 112.865 896.419 113.192 897.314 113.493 L 898.436 118.277 C 898.716 119.344 899.502 120 900.566 120 Z M 902.527 105.017 C 898.38 105.017 895.018 101.628 895.018 97.5 C 895.018 93.371 898.38 89.982 902.527 89.982 C 906.674 89.982 910.036 93.371 910.036 97.5 C 910.036 101.628 906.674 105.017 902.527 105.017 Z" style="fill: rgb(47, 53, 57);"/>
    <g>
      <text style="fill: rgb(236, 236, 236); font-family: Arial, sans-serif; font-size: 29px; font-weight: 700; white-space: pre;" x="321.94" y="138.29">JavaScript on the Domain</text>
      <g transform="matrix(1, 0, 0, 1, 0, -0.223007)">
        <rect style="fill: rgb(37, 37, 36); stroke-width: 4px; stroke: rgb(30, 30, 30)" x="110" y="168.223" width="780" height="86" rx="22" ry="22"/>
        <text style="fill: rgb(255, 255, 255); font-family: Arial, sans-serif; font-size: 26px; font-weight: 700; white-space: pre;" x="417.631" y="220.308">example.com</text>
      </g>
      <g style="">
        <rect width="300" height="75" x="350" y="280" style="fill: url(&quot;#gradient-8&quot;);" rx="37.5" ry="37.5"/>
        <text style="fill: rgb(255, 255, 255); font-family: Arial, sans-serif; font-size: 27px; white-space: pre;" x="469.24" y="328.047">allow</text>
      </g>
    </g>
    <g>
      <text style="fill: rgb(236, 236, 236); font-family: Arial, sans-serif; font-size: 29px; font-weight: 700; white-space: pre;" x="218.413" y="465.29">JavaScript on the Domain + Subdomains</text>
      <g>
        <rect style="fill: rgb(37, 37, 36);" x="110" y="495" width="780" height="86" rx="22" ry="22"/>
        <rect style="fill: none; stroke-width: 4px; stroke: rgb(30, 30, 30);" x="112" y="497" width="776" height="82" rx="20" ry="20"/>
        <text style="fill: rgb(255, 255, 255); font-family: Arial, sans-serif; font-size: 26px; font-weight: 700; white-space: pre;" x="408.96" y="547.308">*.example.com</text>
      </g>
      <g style="">
        <rect width="300" height="75" x="350" y="608" style="fill: url(&quot;#gradient-2&quot;);" rx="37.5" ry="37.5"/>
        <text style="fill: rgb(255, 255, 255); font-family: Arial, sans-serif; font-size: 27px; white-space: pre;" x="469.24" y="655.047">allow</text>
      </g>
    </g>
    <g>
      <path style="fill: rgb(47, 53, 57);" d="M 50 750 H 950 V 930.5 A 19.5 19.5 0 0 1 930.5 950 H 69.5 A 19.5 19.5 0 0 1 50 930.5 V 750 Z" bx:shape="rect 50 750 900 200 0 0 19.5 19.5 1@cb7475d1"/>
      <g>
        <rect width="450" height="75" x="275" y="812" rx="37.5" ry="37.5" style="fill: url(&quot;#gradient-12&quot;); fill-opacity: 0.5;"/>
        <text style="fill: rgb(255, 255, 255); fill-opacity: 0.5; font-family: Arial, sans-serif; font-size: 27px; white-space: pre;" x="391.967" y="858.862">cancel permission</text>
      </g>
    </g>
  </g>
</svg>