<?xml version="1.0" encoding="utf-8"?>
<svg viewBox="0 0 2560 1600" xmlns="http://www.w3.org/2000/svg" xmlns:bx="https://boxy-svg.com">
  <defs>
    <bx:export>
      <bx:file format="png" path="screen-1.png"/>
    </bx:export>
    <filter id="drop-shadow-filter-1" color-interpolation-filters="sRGB" x="-50%" y="-50%" width="200%" height="200%" bx:preset="drop-shadow 1 0 0 10 0.4 rgba(0,0,0,0.3)">
      <feGaussianBlur in="SourceAlpha" stdDeviation="10"/>
      <feOffset dx="0" dy="0"/>
      <feComponentTransfer result="offsetblur">
        <feFuncA id="feFuncA-4" type="linear" slope="0.8"/>
      </feComponentTransfer>
      <feFlood flood-color="rgba(0,0,0,0.3)"/>
      <feComposite in2="offsetblur" operator="in"/>
      <feMerge>
        <feMergeNode/>
        <feMergeNode in="SourceGraphic"/>
      </feMerge>
    </filter>
    <linearGradient gradientUnits="userSpaceOnUse" x1="100" y1="0" x2="100" y2="50" id="gradient-8" gradientTransform="matrix(1.499983, -0.006948, 0.006957, 1.499999, 350.002808, 286.693909)">
      <stop offset="0" style="stop-color: rgb(161, 142, 248);"/>
      <stop offset="1" style="stop-color: rgb(141, 88, 197);"/>
    </linearGradient>
    <linearGradient gradientUnits="userSpaceOnUse" x1="100" y1="0" x2="100" y2="50" id="gradient-2" gradientTransform="matrix(1.499983, -0.006948, 0.006957, 1.499999, 350.002808, 613.693909)">
      <stop offset="0" style="stop-color: rgb(161, 142, 248);"/>
      <stop offset="1" style="stop-color: rgb(141, 88, 197);"/>
    </linearGradient>
    <linearGradient gradientUnits="userSpaceOnUse" x1="100" y1="0" x2="100" y2="50" id="gradient-12" gradientTransform="matrix(2.245, 0, 0, 1.498901, 275.500732, 811.997498)">
      <stop offset="0" style="stop-color: rgb(1, 199, 227);"/>
      <stop offset="1" style="stop-color: rgb(0, 136, 175);"/>
    </linearGradient>
    <filter id="filter-4" color-interpolation-filters="sRGB" x="-50%" y="-50%" width="200%" height="200%" bx:preset="drop-shadow 1 0 0 10 0.4 rgba(0,0,0,0.3)">
      <feGaussianBlur in="SourceAlpha" stdDeviation="10"/>
      <feOffset dx="0" dy="0"/>
      <feComponentTransfer result="offsetblur">
        <feFuncA id="spread-ctrl" type="linear" slope="0.8"/>
      </feComponentTransfer>
      <feFlood flood-color="rgba(0,0,0,0.3)"/>
      <feComposite in2="offsetblur" operator="in"/>
      <feMerge>
        <feMergeNode/>
        <feMergeNode in="SourceGraphic"/>
      </feMerge>
    </filter>
    <linearGradient gradientUnits="userSpaceOnUse" x1="100" y1="0" x2="100" y2="50" id="gradient-1" gradientTransform="matrix(1.499983, -0.006948, 0.006957, 1.499999, 350.002808, 280.693939)">
      <stop offset="0" style="stop-color: rgb(161, 142, 248);"/>
      <stop offset="1" style="stop-color: rgb(141, 88, 197);"/>
    </linearGradient>
    <linearGradient gradientUnits="userSpaceOnUse" x1="100" y1="0" x2="100" y2="50" id="gradient-3" gradientTransform="matrix(1.499983, -0.006948, 0.006957, 1.499999, 350.002808, 608.693909)">
      <stop offset="0" style="stop-color: rgb(161, 142, 248);"/>
      <stop offset="1" style="stop-color: rgb(141, 88, 197);"/>
    </linearGradient>
    <linearGradient gradientUnits="userSpaceOnUse" x1="100" y1="0" x2="100" y2="50" id="gradient-4" gradientTransform="matrix(2.25, 0, 0, 1.500001, 275.000732, 811.997559)">
      <stop offset="0" style="stop-color: rgb(1, 199, 227);"/>
      <stop offset="1" style="stop-color: rgb(0, 136, 175);"/>
    </linearGradient>
    <filter id="window-shadow" color-interpolation-filters="sRGB" x="-50%" y="-50%" width="200%" height="200%" bx:preset="drop-shadow 1 0 10 20 0.4 rgba(0,0,0,0.3)">
      <feGaussianBlur in="SourceAlpha" stdDeviation="20"/>
      <feOffset dx="0" dy="10"/>
      <feComponentTransfer result="offsetblur">
        <feFuncA id="feFuncA-2" type="linear" slope="0.8"/>
      </feComponentTransfer>
      <feFlood flood-color="rgba(0,0,0,0.3)"/>
      <feComposite in2="offsetblur" operator="in"/>
      <feMerge>
        <feMergeNode/>
        <feMergeNode in="SourceGraphic"/>
      </feMerge>
    </filter>
    <linearGradient gradientUnits="userSpaceOnUse" x1="5.729" y1="2.612" x2="5.729" y2="12.637" id="gradient-6" gradientTransform="matrix(3.192264, 0, 0, 3.192264, -12.553222, -8.338209)">
      <stop offset="0" style="stop-color: rgb(0, 208, 123);"/>
      <stop offset="1" style="stop-color: rgb(85, 175, 0);"/>
    </linearGradient>
    <linearGradient gradientUnits="userSpaceOnUse" x1="5.729" y1="2.612" x2="5.729" y2="12.637" id="gradient-7" gradientTransform="matrix(1.420133, 0, 0, 1.444835, -2.406938, -2.935051)">
      <stop offset="0" style="stop-color: rgb(0, 208, 123);"/>
      <stop offset="1" style="stop-color: rgb(85, 175, 0);"/>
    </linearGradient>
    <filter id="filter-2" color-interpolation-filters="sRGB" x="-50%" y="-50%" width="200%" height="200%" bx:preset="drop-shadow 1 0 10 20 0.4 rgba(0,0,0,0.3)">
      <feGaussianBlur in="SourceAlpha" stdDeviation="20"/>
      <feOffset dx="0" dy="10"/>
      <feComponentTransfer result="offsetblur">
        <feFuncA id="feFuncA-3" type="linear" slope="0.8"/>
      </feComponentTransfer>
      <feFlood flood-color="rgba(0,0,0,0.3)"/>
      <feComposite in2="offsetblur" operator="in"/>
      <feMerge>
        <feMergeNode/>
        <feMergeNode in="SourceGraphic"/>
      </feMerge>
    </filter>
    <linearGradient gradientUnits="userSpaceOnUse" x1="5.729" y1="2.612" x2="5.729" y2="12.637" id="gradient-5" gradientTransform="matrix(3.192264, 0, 0, 3.192264, -12.553222, -8.338209)">
      <stop offset="0" style="stop-color: rgb(0, 208, 123);"/>
      <stop offset="1" style="stop-color: rgb(85, 175, 0);"/>
    </linearGradient>
    <linearGradient gradientUnits="userSpaceOnUse" x1="5.729" y1="2.612" x2="5.729" y2="12.637" id="gradient-9" gradientTransform="matrix(1.420133, 0, 0, 1.444835, -2.406938, -2.935051)">
      <stop offset="0" style="stop-color: rgb(0, 208, 123);"/>
      <stop offset="1" style="stop-color: rgb(85, 175, 0);"/>
    </linearGradient>
  </defs>
  <g>
    <rect width="1280" height="1600" style="fill: rgb(227, 228, 229);"/>
    <g style="filter: url('#window-shadow');" transform="matrix(1, 0, 0, 1, 179.000046, 155.000031)">
      <path style="fill: rgb(243, 243, 243); stroke: rgb(198, 198, 198);" d="M 145 102 H 1055 A 20 20 0 0 1 1075 122 V 206 H 125 V 122 A 20 20 0 0 1 145 102 Z" bx:shape="rect 125 102 950 104 20 20 0 0 1@3110c5bc"/>
      <path style="fill: rgb(255, 255, 255); stroke: rgb(198, 198, 198);" d="M 125 206 H 1075 V 315 A 20 20 0 0 1 1055 335 H 145 A 20 20 0 0 1 125 315 V 206 Z" bx:shape="rect 125 206 950 129 0 0 20 20 1@731078df"/>
      <g>
        <ellipse style="fill: rgb(255, 94, 87); stroke: rgb(226, 65, 56);" cx="177" cy="154" rx="12" ry="12"/>
        <ellipse style="fill: rgb(253, 188, 46); stroke: rgb(224, 157, 28);" cx="217" cy="154" rx="12" ry="12"/>
        <ellipse style="fill: rgb(37, 199, 66); stroke: rgb(37, 172, 45);" cx="257" cy="154" rx="12" ry="12"/>
      </g>
      <g>
        <rect style="stroke-width: 2px; stroke: rgb(230, 230, 230); fill: rgb(243, 243, 243);" x="308" y="127" width="64" height="54" rx="9" ry="9"/>
        <rect style="fill: none; stroke-width: 2px; stroke: rgb(130, 130, 134);" x="322" y="140" width="36" height="26" rx="2" ry="2"/>
        <line style="fill: rgb(216, 216, 216); stroke-width: 2px; stroke-linecap: round; stroke: rgb(130, 130, 134);" x1="326" y1="146" x2="331" y2="146"/>
        <line style="fill: rgb(216, 216, 216); stroke-width: 2px; stroke-linecap: round; stroke: rgb(130, 130, 134);" x1="326" y1="150" x2="331" y2="150"/>
        <line style="fill: rgb(216, 216, 216); stroke-width: 2px; stroke-linecap: round; stroke: rgb(130, 130, 134);" x1="326" y1="154" x2="331" y2="154"/>
        <line style="fill: rgb(216, 216, 216); stroke-width: 2px; stroke: rgb(130, 130, 134);" x1="335" y1="140" x2="335" y2="166"/>
      </g>
      <g>
        <rect style="stroke-width: 2px; stroke: rgb(230, 230, 230); fill: rgb(243, 243, 243);" x="375" y="127" width="39" height="54" rx="9" ry="9"/>
        <polyline style="fill: none; stroke-width: 3px; stroke-linecap: round; stroke-linejoin: round; stroke: rgb(130, 130, 134);" points="389.5 151.5 394.5 156.5 399.5 151.5"/>
      </g>
      <g>
        <rect style="stroke-width: 2px; fill: rgb(243, 243, 243); stroke: rgb(213, 213, 213);" x="432" y="127" width="56" height="54" rx="11" ry="11"/>
        <g transform="matrix(1.1875, 0, 0, 1.1875, 441, 135)">
          <path d="M 16.01 0 C 20.281 0 24.468 1.895 27.287 4.717 C 30.106 7.538 32 11.73 32 16.01 C 32 20.281 30.101 24.468 27.278 27.287 C 24.455 30.106 20.264 32 15.99 32 C 11.719 32 7.533 30.105 4.714 27.286 C 1.895 24.467 0 20.281 0 16.01 C 0 11.729 1.898 7.537 4.721 4.716 C 7.545 1.894 11.736 0 16.01 0 Z M 6.842 6.838 C 4.392 9.286 3 12.349 3 16.01 C 3 19.661 4.389 22.72 6.835 25.165 C 9.28 27.611 12.339 29 15.99 29 C 19.645 29 22.709 27.61 25.159 25.164 C 27.608 22.719 29 19.661 29 16.01 C 29 12.348 27.61 9.285 25.165 6.837 C 22.719 4.389 19.661 3 16.01 3 C 12.355 3 9.291 4.39 6.842 6.838 Z" style="fill: url(&quot;#gradient-6&quot;);"/>
          <text style="font-family: Tahoma; font-size: 8.3px; font-weight: 700; white-space: pre; fill: url(&quot;#gradient-7&quot;);" transform="matrix(2.247955, 0, 0, 2.209523, -1.455894, -1.857092)"><tspan x="4" y="10.924">J</tspan><tspan style="font-size: 7.24138px; line-height: 12.3103px;" dx="-0.304">s</tspan></text>
        </g>
      </g>
      <g>
        <rect style="stroke-width: 2px; stroke: rgb(213, 213, 213); fill: rgb(255, 255, 255);" x="506" y="127" width="500" height="54" rx="15" ry="15"/>
        <text style="fill: rgb(175, 175, 175); font-family: Arial, sans-serif; font-size: 21px; white-space: pre;" x="693" y="161.852">example.com</text>
      </g>
    </g>
    <g style="filter: url('#drop-shadow-filter-1');" transform="matrix(1, 0, 0, 1, 139.999985, 312.135986)">
      <path d="M 69.5 49 L 472 49 C 486 49 493.375 25 500 25 C 506.625 25 514 49 528 49 L 930.5 49 C 941.822 49 951 58.178 951 69.5 L 951 930.5 C 951 941.822 941.822 951 930.5 951 L 69.5 951 C 58.178 951 49 941.822 49 930.5 L 49 69.5 C 49 58.178 58.178 49 69.5 49 Z" style="filter: none; stroke: rgb(198, 198, 198); stroke-width: 2px; fill: rgb(233, 233, 233);"/>
      <rect style="stroke-width: 2px; filter: none; fill: rgb(227, 232, 238);" x="50" width="900" height="900" y="50" rx="19.5" ry="19.5"/>
      <path d="M 900.566 120 L 904.432 120 C 905.553 120 906.338 119.344 906.617 118.278 L 907.738 113.493 C 908.635 113.192 909.475 112.864 910.26 112.482 L 914.463 115.052 C 915.304 115.599 916.368 115.516 917.097 114.777 L 919.842 112.071 C 920.572 111.333 920.683 110.212 920.066 109.311 L 917.546 105.156 C 917.938 104.389 918.274 103.542 918.498 102.749 L 923.377 101.6 C 924.379 101.354 925 100.562 925 99.441 L 925 95.667 C 925 94.601 924.379 93.809 923.377 93.562 L 918.554 92.387 C 918.274 91.458 917.881 90.638 917.601 89.954 L 920.123 85.716 C 920.683 84.788 920.627 83.776 919.899 83.009 L 917.097 80.303 C 916.368 79.62 915.416 79.429 914.519 79.976 L 910.26 82.601 C 909.532 82.217 908.691 81.889 907.738 81.589 L 906.617 76.722 C 906.338 75.656 905.553 75 904.432 75 L 900.566 75 C 899.502 75 898.717 75.656 898.437 76.722 L 897.315 81.533 C 896.419 81.834 895.522 82.163 894.794 82.572 L 890.535 79.976 C 889.639 79.429 888.686 79.566 887.901 80.303 L 885.155 83.009 C 884.371 83.776 884.371 84.788 884.932 85.716 L 887.454 89.954 C 887.173 90.638 886.781 91.458 886.5 92.387 L 881.737 93.562 C 880.673 93.809 880 94.601 880 95.667 L 880 99.441 C 880 100.562 880.673 101.354 881.737 101.6 L 886.556 102.749 C 886.781 103.542 887.117 104.389 887.509 105.156 L 884.988 109.311 C 884.371 110.212 884.483 111.333 885.211 112.071 L 887.901 114.777 C 888.686 115.516 889.75 115.599 890.647 115.052 L 894.794 112.482 C 895.579 112.864 896.419 113.192 897.315 113.493 L 898.437 118.278 C 898.717 119.344 899.502 120 900.566 120 Z M 902.527 105.017 C 898.38 105.017 895.018 101.628 895.018 97.5 C 895.018 93.371 898.38 89.982 902.527 89.982 C 906.675 89.982 910.036 93.371 910.036 97.5 C 910.036 101.628 906.675 105.017 902.527 105.017 Z" style="fill: rgb(210, 220, 228);"/>
      <g>
        <text style="fill: rgb(69, 70, 72); font-family: Arial, sans-serif; font-size: 29px; font-weight: 700; white-space: pre;" x="321.94" y="143.219">JavaScript on the Domain</text>
        <g>
          <rect style="fill: rgb(255, 255, 255);" x="110" y="173" width="780" height="86" rx="22" ry="22"/>
          <text style="font-family: Arial, sans-serif; font-size: 26px; font-weight: 700; white-space: pre;" x="417.631" y="225.237">example.com</text>
        </g>
        <g style="">
          <rect width="300" height="75" x="350" y="286" style="fill: url(&quot;#gradient-8&quot;);" rx="37.5" ry="37.5"/>
          <text style="fill: rgb(255, 255, 255); font-family: Arial, sans-serif; font-size: 27px; white-space: pre;" x="469.24" y="332.976">allow</text>
        </g>
      </g>
      <g>
        <text style="fill: rgb(69, 70, 72); font-family: Arial, sans-serif; font-size: 29px; font-weight: 700; white-space: pre;" x="218.413" y="470.219">JavaScript on the Domain + Subdomains</text>
        <g>
          <rect style="fill: rgb(255, 255, 255);" x="110" y="500" width="780" height="86" rx="22" ry="22"/>
          <rect style="stroke-width: 4px; fill: none; stroke: rgb(255, 255, 255);" x="112" y="502" width="776" height="82" rx="20" ry="20"/>
          <text style="font-family: Arial, sans-serif; font-size: 26px; font-weight: 700; white-space: pre;" x="408.96" y="552.237">*.example.com</text>
        </g>
        <g style="">
          <rect width="300" height="75" x="350" y="613" style="fill: url(&quot;#gradient-2&quot;);" rx="37.5" ry="37.5"/>
          <text style="fill: rgb(255, 255, 255); font-family: Arial, sans-serif; font-size: 27px; white-space: pre;" x="469.24" y="659.976">allow</text>
        </g>
      </g>
      <g>
        <path style="fill: rgb(210, 220, 228);" d="M 50 750.152 H 950 V 930.652 A 19.5 19.5 0 0 1 930.5 950.152 H 69.5 A 19.5 19.5 0 0 1 50 930.652 V 750.152 Z" bx:shape="rect 50 750.152 900 200 0 0 19.5 19.5 1@4ee9a8c1"/>
        <g style="opacity: 0.5;">
          <rect width="450" height="75" x="275" y="812" rx="37.5" ry="37.5" style="fill: url('#gradient-12')"/>
          <text style="fill: rgb(255, 255, 255); font-family: Arial, sans-serif; font-size: 27px; white-space: pre;" x="391.967" y="858.862">cancel permission</text>
        </g>
      </g>
    </g>
  </g>
  <g>
    <rect width="1280" height="1600" style="fill: rgb(84, 85, 84);" x="1280"/>
    <g style="filter: url(&quot;#filter-2&quot;);" transform="matrix(1, 0, 0, 1, 1459, 155.000031)">
      <path style="fill: rgb(56, 56, 56); stroke: rgb(101, 106, 109);" d="M 145 102 H 1055 A 20 20 0 0 1 1075 122 V 206 H 125 V 122 A 20 20 0 0 1 145 102 Z" bx:shape="rect 125 102 950 104 20 20 0 0 1@3110c5bc"/>
      <path style="stroke: rgb(101, 106, 109); fill: rgb(255, 255, 255);" d="M 125 206 H 1075 V 315 A 20 20 0 0 1 1055 335 H 145 A 20 20 0 0 1 125 315 V 206 Z" bx:shape="rect 125 206 950 129 0 0 20 20 1@731078df"/>
      <g>
        <ellipse style="fill: rgb(255, 94, 87); stroke: rgb(226, 65, 56);" cx="177" cy="154" rx="12" ry="12"/>
        <ellipse style="fill: rgb(253, 188, 46); stroke: rgb(224, 157, 28);" cx="217" cy="154" rx="12" ry="12"/>
        <ellipse style="fill: rgb(37, 199, 66); stroke: rgb(37, 172, 45);" cx="257" cy="154" rx="12" ry="12"/>
      </g>
      <g>
        <rect style="stroke-width: 2px; fill: rgb(56, 56, 56); stroke: rgb(70, 70, 70);" x="308" y="127" width="64" height="54" rx="9" ry="9"/>
        <rect style="fill: none; stroke-width: 2px; stroke: rgb(130, 130, 134);" x="322" y="140" width="36" height="26" rx="2" ry="2"/>
        <line style="fill: rgb(216, 216, 216); stroke-width: 2px; stroke-linecap: round; stroke: rgb(130, 130, 134);" x1="326" y1="146" x2="331" y2="146"/>
        <line style="fill: rgb(216, 216, 216); stroke-width: 2px; stroke-linecap: round; stroke: rgb(130, 130, 134);" x1="326" y1="150" x2="331" y2="150"/>
        <line style="fill: rgb(216, 216, 216); stroke-width: 2px; stroke-linecap: round; stroke: rgb(130, 130, 134);" x1="326" y1="154" x2="331" y2="154"/>
        <line style="fill: rgb(216, 216, 216); stroke-width: 2px; stroke: rgb(130, 130, 134);" x1="335" y1="140" x2="335" y2="166"/>
      </g>
      <g>
        <rect style="stroke-width: 2px; fill: rgb(56, 56, 56); stroke: rgb(70, 70, 70);" x="375" y="127" width="39" height="54" rx="9" ry="9"/>
        <polyline style="fill: none; stroke-width: 3px; stroke-linecap: round; stroke-linejoin: round; stroke: rgb(130, 130, 134);" points="389.5 151.5 394.5 156.5 399.5 151.5"/>
      </g>
      <g>
        <rect style="stroke-width: 2px; fill: rgb(56, 56, 56); stroke: rgb(70, 70, 70);" x="432" y="127" width="56" height="54" rx="11" ry="11"/>
        <g transform="matrix(1.1875, 0, 0, 1.125, 441, 136)">
          <path d="M 16.01 0 C 20.281 0 24.468 1.895 27.287 4.717 C 30.106 7.538 32 11.73 32 16.01 C 32 20.281 30.101 24.468 27.278 27.287 C 24.455 30.106 20.264 32 15.99 32 C 11.719 32 7.533 30.105 4.714 27.286 C 1.895 24.467 0 20.281 0 16.01 C 0 11.729 1.898 7.537 4.721 4.716 C 7.545 1.894 11.736 0 16.01 0 Z M 6.842 6.838 C 4.392 9.286 3 12.349 3 16.01 C 3 19.661 4.389 22.72 6.835 25.165 C 9.28 27.611 12.339 29 15.99 29 C 19.645 29 22.709 27.61 25.159 25.164 C 27.608 22.719 29 19.661 29 16.01 C 29 12.348 27.61 9.285 25.165 6.837 C 22.719 4.389 19.661 3 16.01 3 C 12.355 3 9.291 4.39 6.842 6.838 Z" style="fill: url(&quot;#gradient-5&quot;);"/>
          <text style="font-family: Tahoma; font-size: 8.3px; font-weight: 700; white-space: pre; fill: url(&quot;#gradient-9&quot;);" transform="matrix(2.247955, 0, 0, 2.209523, -1.455894, -1.857092)"><tspan x="4" y="10.924">J</tspan><tspan style="font-size: 7.24138px; line-height: 12.3103px;" dx="-0.304">s</tspan></text>
        </g>
      </g>
      <g>
        <rect style="stroke-width: 2px; fill: rgb(44, 43, 44); stroke: rgb(70, 70, 70);" x="506" y="127" width="500" height="54" rx="15" ry="15"/>
        <text style="fill: rgb(175, 175, 175); font-family: Arial, sans-serif; font-size: 21px; white-space: pre;" transform="matrix(1.000876, 0, 0, 1, 16.680065, -2.424332)" x="675.728" y="164.416">example.com</text>
      </g>
    </g>
    <g style="filter: url(&quot;#filter-4&quot;);" transform="matrix(1, 0, 0, 1, 1420, 312.136017)">
      <path d="M 69.5 49 L 472 49 C 486 49 493.375 25 500 25 C 506.625 25 514 49 528 49 L 930.5 49 C 941.822 49 951 58.178 951 69.5 L 951 930.5 C 951 941.822 941.822 951 930.5 951 L 69.5 951 C 58.178 951 49 941.822 49 930.5 L 49 69.5 C 49 58.178 58.178 49 69.5 49 Z" style="filter: none; stroke-width: 2px; fill: rgb(60, 60, 60); stroke: rgb(101, 106, 109);"/>
      <rect style="stroke-width: 2px; filter: none; fill: rgb(63, 69, 73);" x="50" width="900" height="900" rx="19.5" ry="19.5" y="50"/>
      <path d="M 900.566 120 L 904.432 120 C 905.553 120 906.338 119.344 906.618 118.277 L 907.739 113.493 C 908.635 113.192 909.475 112.865 910.261 112.482 L 914.463 115.052 C 915.304 115.599 916.368 115.517 917.098 114.777 L 919.842 112.071 C 920.571 111.334 920.683 110.213 920.067 109.311 L 917.546 105.156 C 917.938 104.389 918.273 103.542 918.498 102.749 L 923.376 101.6 C 924.379 101.354 925 100.562 925 99.441 L 925 95.668 C 925 94.601 924.379 93.809 923.376 93.563 L 918.554 92.388 C 918.273 91.458 917.881 90.638 917.6 89.954 L 920.122 85.717 C 920.683 84.788 920.627 83.776 919.899 83.009 L 917.098 80.303 C 916.368 79.619 915.416 79.43 914.519 79.975 L 910.261 82.6 C 909.533 82.217 908.691 81.889 907.739 81.589 L 906.618 76.723 C 906.338 75.656 905.553 75 904.432 75 L 900.566 75 C 899.502 75 898.716 75.656 898.436 76.723 L 897.314 81.534 C 896.419 81.834 895.522 82.163 894.793 82.573 L 890.535 79.975 C 889.639 79.43 888.686 79.566 887.9 80.303 L 885.155 83.009 C 884.371 83.776 884.371 84.788 884.931 85.717 L 887.453 89.954 C 887.173 90.638 886.78 91.458 886.5 92.388 L 881.736 93.563 C 880.673 93.809 880 94.601 880 95.668 L 880 99.441 C 880 100.562 880.673 101.354 881.736 101.6 L 886.556 102.749 C 886.78 103.542 887.117 104.389 887.509 105.156 L 884.988 109.311 C 884.371 110.213 884.483 111.334 885.211 112.071 L 887.9 114.777 C 888.686 115.517 889.75 115.599 890.647 115.052 L 894.793 112.482 C 895.579 112.865 896.419 113.192 897.314 113.493 L 898.436 118.277 C 898.716 119.344 899.502 120 900.566 120 Z M 902.527 105.017 C 898.38 105.017 895.018 101.628 895.018 97.5 C 895.018 93.371 898.38 89.982 902.527 89.982 C 906.674 89.982 910.036 93.371 910.036 97.5 C 910.036 101.628 906.674 105.017 902.527 105.017 Z" style="fill: rgb(47, 53, 57);"/>
      <g>
        <text style="fill: rgb(236, 236, 236); font-family: Arial, sans-serif; font-size: 29px; font-weight: 700; white-space: pre;" x="321.94" y="138.29">JavaScript on the Domain</text>
        <g transform="matrix(1, 0, 0, 1, 0, -0.223007)">
          <rect style="fill: rgb(37, 37, 36); stroke-width: 4px; stroke: rgb(30, 30, 30)" x="110" y="168.223" width="780" height="86" rx="22" ry="22"/>
          <text style="fill: rgb(255, 255, 255); font-family: Arial, sans-serif; font-size: 26px; font-weight: 700; white-space: pre;" x="417.631" y="220.308">example.com</text>
        </g>
        <g style="">
          <rect width="300" height="75" x="350" y="280" style="fill: url(&quot;#gradient-1&quot;);" rx="37.5" ry="37.5"/>
          <text style="fill: rgb(255, 255, 255); font-family: Arial, sans-serif; font-size: 27px; white-space: pre;" x="469.24" y="328.047">allow</text>
        </g>
      </g>
      <g>
        <text style="fill: rgb(236, 236, 236); font-family: Arial, sans-serif; font-size: 29px; font-weight: 700; white-space: pre;" x="218.413" y="465.29">JavaScript on the Domain + Subdomains</text>
        <g>
          <rect style="fill: rgb(37, 37, 36);" x="110" y="495" width="780" height="86" rx="22" ry="22"/>
          <rect style="fill: none; stroke-width: 4px; stroke: rgb(30, 30, 30);" x="112" y="497" width="776" height="82" rx="20" ry="20"/>
          <text style="fill: rgb(255, 255, 255); font-family: Arial, sans-serif; font-size: 26px; font-weight: 700; white-space: pre;" x="408.96" y="547.308">*.example.com</text>
        </g>
        <g style="">
          <rect width="300" height="75" x="350" y="608" style="fill: url(&quot;#gradient-3&quot;);" rx="37.5" ry="37.5"/>
          <text style="fill: rgb(255, 255, 255); font-family: Arial, sans-serif; font-size: 27px; white-space: pre;" x="469.24" y="655.047">allow</text>
        </g>
      </g>
      <g>
        <path style="fill: rgb(47, 53, 57);" d="M 50 750 H 950 V 930.5 A 19.5 19.5 0 0 1 930.5 950 H 69.5 A 19.5 19.5 0 0 1 50 930.5 V 750 Z" bx:shape="rect 50 750 900 200 0 0 19.5 19.5 1@cb7475d1"/>
        <g>
          <rect width="450" height="75" x="275" y="812" rx="37.5" ry="37.5" style="fill-opacity: 0.5; fill: url(&quot;#gradient-4&quot;);"/>
          <text style="fill: rgb(255, 255, 255); fill-opacity: 0.5; font-family: Arial, sans-serif; font-size: 27px; white-space: pre;" x="391.967" y="858.862">cancel permission</text>
        </g>
      </g>
    </g>
  </g>
</svg>