<?xml version="1.0" encoding="utf-8"?>
<svg viewBox="0 0 2560 1600" xmlns="http://www.w3.org/2000/svg" xmlns:bx="https://boxy-svg.com">
  <defs>
    <bx:export>
      <bx:file format="png" path="screen-3.png"/>
    </bx:export>
    <filter id="filter-5" color-interpolation-filters="sRGB" x="-50%" y="-50%" width="200%" height="200%" bx:preset="drop-shadow 1 0 10 20 0.4 rgba(0,0,0,0.3)">
      <feGaussianBlur in="SourceAlpha" stdDeviation="20"/>
      <feOffset dx="0" dy="10"/>
      <feComponentTransfer result="offsetblur">
        <feFuncA id="spread-ctrl" type="linear" slope="0.8"/>
      </feComponentTransfer>
      <feFlood flood-color="rgba(0,0,0,0.3)"/>
      <feComposite in2="offsetblur" operator="in"/>
      <feMerge>
        <feMergeNode/>
        <feMergeNode in="SourceGraphic"/>
      </feMerge>
    </filter>
    <filter id="drop-shadow-filter-1" color-interpolation-filters="sRGB" x="-50%" y="-50%" width="200%" height="200%" bx:preset="drop-shadow 1 0 1 1 0.5 rgba(0,0,0,0.3)">
      <feGaussianBlur in="SourceAlpha" stdDeviation="1"/>
      <feOffset dx="0" dy="1"/>
      <feComponentTransfer result="offsetblur">
        <feFuncA id="spread-ctrl" type="linear" slope="1"/>
      </feComponentTransfer>
      <feFlood flood-color="rgba(0,0,0,0.3)"/>
      <feComposite in2="offsetblur" operator="in"/>
      <feMerge>
        <feMergeNode/>
        <feMergeNode in="SourceGraphic"/>
      </feMerge>
    </filter>
    <clipPath id="clip-1">
      <path style="filter: none;" d="M 120.5 100.5 H 1283.5 A 19 19 0 0 1 1302.5 119.5 V 170.5 H 101.5 V 119.5 A 19 19 0 0 1 120.5 100.5 Z" bx:shape="rect 101.5 100.5 1201 70 19 19 0 0 1@526a241e"/>
    </clipPath>
    <filter id="filter-15" color-interpolation-filters="sRGB" x="-50%" y="-50%" width="200%" height="200%" bx:preset="drop-shadow 1 0 1 2 0.5 rgba(0,0,0,0.3)">
      <feGaussianBlur in="SourceAlpha" stdDeviation="2"/>
      <feOffset dx="0" dy="1"/>
      <feComponentTransfer result="offsetblur">
        <feFuncA id="feFuncA-12" type="linear" slope="1"/>
      </feComponentTransfer>
      <feFlood flood-color="rgba(0,0,0,0.3)"/>
      <feComposite in2="offsetblur" operator="in"/>
      <feMerge>
        <feMergeNode/>
        <feMergeNode in="SourceGraphic"/>
      </feMerge>
    </filter>
    <filter id="filter-16" color-interpolation-filters="sRGB" x="-50%" y="-50%" width="200%" height="200%" bx:preset="drop-shadow 1 0 1 2 0.5 rgba(0,0,0,0.3)">
      <feGaussianBlur in="SourceAlpha" stdDeviation="2"/>
      <feOffset dx="0" dy="1"/>
      <feComponentTransfer result="offsetblur">
        <feFuncA id="feFuncA-3" type="linear" slope="1"/>
      </feComponentTransfer>
      <feFlood flood-color="rgba(0,0,0,0.3)"/>
      <feComposite in2="offsetblur" operator="in"/>
      <feMerge>
        <feMergeNode/>
        <feMergeNode in="SourceGraphic"/>
      </feMerge>
    </filter>
    <filter id="filter-17" color-interpolation-filters="sRGB" x="-50%" y="-50%" width="200%" height="200%" bx:preset="drop-shadow 1 0 1 2 0.5 rgba(0,0,0,0.3)">
      <feGaussianBlur in="SourceAlpha" stdDeviation="2"/>
      <feOffset dx="0" dy="1"/>
      <feComponentTransfer result="offsetblur">
        <feFuncA id="feFuncA-13" type="linear" slope="1"/>
      </feComponentTransfer>
      <feFlood flood-color="rgba(0,0,0,0.3)"/>
      <feComposite in2="offsetblur" operator="in"/>
      <feMerge>
        <feMergeNode/>
        <feMergeNode in="SourceGraphic"/>
      </feMerge>
    </filter>
    <filter id="drop-shadow-filter-0" color-interpolation-filters="sRGB" x="-50%" y="-50%" width="200%" height="200%" bx:preset="drop-shadow 1 0 1 2 0.5 rgba(0,0,0,0.3)">
      <feGaussianBlur in="SourceAlpha" stdDeviation="2"/>
      <feOffset dx="0" dy="1"/>
      <feComponentTransfer result="offsetblur">
        <feFuncA id="spread-ctrl" type="linear" slope="1"/>
      </feComponentTransfer>
      <feFlood flood-color="rgba(0,0,0,0.3)"/>
      <feComposite in2="offsetblur" operator="in"/>
      <feMerge>
        <feMergeNode/>
        <feMergeNode in="SourceGraphic"/>
      </feMerge>
    </filter>
    <filter id="filter-18" color-interpolation-filters="sRGB" x="-50%" y="-50%" width="200%" height="200%" bx:preset="drop-shadow 1 0 1 2 0.5 rgba(0,0,0,0.3)">
      <feGaussianBlur in="SourceAlpha" stdDeviation="2"/>
      <feOffset dx="0" dy="1"/>
      <feComponentTransfer result="offsetblur">
        <feFuncA id="feFuncA-14" type="linear" slope="1"/>
      </feComponentTransfer>
      <feFlood flood-color="rgba(0,0,0,0.3)"/>
      <feComposite in2="offsetblur" operator="in"/>
      <feMerge>
        <feMergeNode/>
        <feMergeNode in="SourceGraphic"/>
      </feMerge>
    </filter>
    <filter id="drop-shadow-filter-2" color-interpolation-filters="sRGB" x="-50%" y="-50%" width="200%" height="200%" bx:preset="drop-shadow 1 0 10 20 0.4 rgba(0,0,0,0.3)">
      <feGaussianBlur in="SourceAlpha" stdDeviation="20"/>
      <feOffset dx="0" dy="10"/>
      <feComponentTransfer result="offsetblur">
        <feFuncA id="feFuncA-5" type="linear" slope="0.8"/>
      </feComponentTransfer>
      <feFlood flood-color="rgba(0,0,0,0.3)"/>
      <feComposite in2="offsetblur" operator="in"/>
      <feMerge>
        <feMergeNode/>
        <feMergeNode in="SourceGraphic"/>
      </feMerge>
    </filter>
    <filter id="filter-6" color-interpolation-filters="sRGB" x="-50%" y="-50%" width="200%" height="200%" bx:preset="drop-shadow 1 0 2 1 0.5 rgba(0,0,0,0.3)">
      <feGaussianBlur in="SourceAlpha" stdDeviation="1"/>
      <feOffset dx="0" dy="2"/>
      <feComponentTransfer result="offsetblur">
        <feFuncA id="feFuncA-5" type="linear" slope="1"/>
      </feComponentTransfer>
      <feFlood flood-color="rgba(0,0,0,0.3)"/>
      <feComposite in2="offsetblur" operator="in"/>
      <feMerge>
        <feMergeNode/>
        <feMergeNode in="SourceGraphic"/>
      </feMerge>
    </filter>
    <clipPath id="clip-0">
      <path style="filter: none;" d="M 120.5 100.5 H 1283.5 A 19 19 0 0 1 1302.5 119.5 V 170.5 H 101.5 V 119.5 A 19 19 0 0 1 120.5 100.5 Z" bx:shape="rect 101.5 100.5 1201 70 19 19 0 0 1@526a241e"/>
    </clipPath>
    <filter id="filter-4" color-interpolation-filters="sRGB" x="-50%" y="-50%" width="200%" height="200%" bx:preset="drop-shadow 1 0 1 2 0.5 rgba(0,0,0,0.3)">
      <feGaussianBlur in="SourceAlpha" stdDeviation="2"/>
      <feOffset dx="0" dy="1"/>
      <feComponentTransfer result="offsetblur">
        <feFuncA id="feFuncA-4" type="linear" slope="1"/>
      </feComponentTransfer>
      <feFlood flood-color="rgba(0,0,0,0.3)"/>
      <feComposite in2="offsetblur" operator="in"/>
      <feMerge>
        <feMergeNode/>
        <feMergeNode in="SourceGraphic"/>
      </feMerge>
    </filter>
    <filter id="filter-3" color-interpolation-filters="sRGB" x="-50%" y="-50%" width="200%" height="200%" bx:preset="drop-shadow 1 0 1 2 0.5 rgba(0,0,0,0.3)">
      <feGaussianBlur in="SourceAlpha" stdDeviation="2"/>
      <feOffset dx="0" dy="1"/>
      <feComponentTransfer result="offsetblur">
        <feFuncA id="feFuncA-6" type="linear" slope="1"/>
      </feComponentTransfer>
      <feFlood flood-color="rgba(0,0,0,0.3)"/>
      <feComposite in2="offsetblur" operator="in"/>
      <feMerge>
        <feMergeNode/>
        <feMergeNode in="SourceGraphic"/>
      </feMerge>
    </filter>
    <filter id="filter-2" color-interpolation-filters="sRGB" x="-50%" y="-50%" width="200%" height="200%" bx:preset="drop-shadow 1 0 1 2 0.5 rgba(0,0,0,0.3)">
      <feGaussianBlur in="SourceAlpha" stdDeviation="2"/>
      <feOffset dx="0" dy="1"/>
      <feComponentTransfer result="offsetblur">
        <feFuncA id="feFuncA-2" type="linear" slope="1"/>
      </feComponentTransfer>
      <feFlood flood-color="rgba(0,0,0,0.3)"/>
      <feComposite in2="offsetblur" operator="in"/>
      <feMerge>
        <feMergeNode/>
        <feMergeNode in="SourceGraphic"/>
      </feMerge>
    </filter>
    <filter id="filter-7" color-interpolation-filters="sRGB" x="-50%" y="-50%" width="200%" height="200%" bx:preset="drop-shadow 1 0 1 2 0.5 rgba(0,0,0,0.3)">
      <feGaussianBlur in="SourceAlpha" stdDeviation="2"/>
      <feOffset dx="0" dy="1"/>
      <feComponentTransfer result="offsetblur">
        <feFuncA id="feFuncA-5" type="linear" slope="1"/>
      </feComponentTransfer>
      <feFlood flood-color="rgba(0,0,0,0.3)"/>
      <feComposite in2="offsetblur" operator="in"/>
      <feMerge>
        <feMergeNode/>
        <feMergeNode in="SourceGraphic"/>
      </feMerge>
    </filter>
    <filter id="filter-1" color-interpolation-filters="sRGB" x="-50%" y="-50%" width="200%" height="200%" bx:preset="drop-shadow 1 0 1 2 0.5 rgba(0,0,0,0.3)">
      <feGaussianBlur in="SourceAlpha" stdDeviation="2"/>
      <feOffset dx="0" dy="1"/>
      <feComponentTransfer result="offsetblur">
        <feFuncA id="feFuncA-1" type="linear" slope="1"/>
      </feComponentTransfer>
      <feFlood flood-color="rgba(0,0,0,0.3)"/>
      <feComposite in2="offsetblur" operator="in"/>
      <feMerge>
        <feMergeNode/>
        <feMergeNode in="SourceGraphic"/>
      </feMerge>
    </filter>
  </defs>
  <rect width="1280" height="1600" style="fill: rgb(227, 228, 229);"/>
  <rect width="1280" height="1600" style="fill: rgb(84, 85, 84);" x="1280"/>
  <g style="filter: url(&quot;#filter-5&quot;);" transform="matrix(1, 0, 0, 1, -61.999996, 242.500015)">
    <rect style="stroke: rgb(198, 198, 198); filter: none; fill: rgb(245, 245, 245);" x="101" y="100" width="1202" height="915" rx="20" ry="20"/>
    <g>
      <path style="fill: rgb(250, 250, 250); filter: url(&quot;#drop-shadow-filter-1&quot;); clip-path: url(&quot;#clip-1&quot;);" d="M 120.5 100.5 H 1283.5 A 19 19 0 0 1 1302.5 119.5 V 157.5 H 101.5 V 119.5 A 19 19 0 0 1 120.5 100.5 Z" bx:shape="rect 101.5 100.5 1201 57 19 19 0 0 1@b8bb7788"/>
      <g>
        <ellipse style="fill: rgb(255, 94, 87); stroke: rgb(226, 65, 56); filter: none;" cx="130" cy="129.646" rx="12" ry="12"/>
        <ellipse style="fill: rgb(253, 188, 46); stroke: rgb(224, 157, 28); filter: none;" cx="170" cy="129.646" rx="12" ry="12"/>
        <ellipse style="fill: rgb(37, 199, 66); stroke: rgb(37, 172, 45); filter: none;" cx="210" cy="129.646" rx="12" ry="12"/>
      </g>
      <text style="fill: rgb(74, 74, 74); font-family: Arial, sans-serif; font-size: 26px; font-weight: 700; white-space: pre;" transform="matrix(1, 0, 0, 1, 88.321892, 3.082367)"><tspan x="544.678" y="134.145">JS Blocker</tspan><tspan x="544.678" dy="1em">​</tspan></text>
    </g>
    <text style="fill: rgb(37, 37, 37); font-family: Arial, sans-serif; font-size: 32px; font-weight: 700; white-space: pre;" x="418.18" y="240.862">Domains where JavaScript is allowed</text>
    <g>
      <rect x="143" y="287" width="1118" height="119.726" style="fill: rgb(227, 227, 227); stroke-width: 1;" rx="19.283" ry="19.283"/>
      <g>
        <rect style="fill: rgb(255, 255, 255); stroke-width: 1; filter: url(&quot;#filter-15&quot;);" x="175" y="319" width="735" height="56" rx="10" ry="10"/>
        <path d="M 188 344.802 C 188 343.451 188.254 342.183 188.762 340.999 C 189.269 339.816 189.974 338.775 190.874 337.874 C 191.775 336.973 192.817 336.268 194 335.761 C 195.184 335.253 196.451 335 197.802 335 C 199.152 335 200.42 335.253 201.603 335.761 C 202.787 336.268 203.828 336.973 204.728 337.874 C 205.629 338.775 206.334 339.816 206.841 340.999 C 207.349 342.183 207.603 343.451 207.603 344.802 C 207.603 345.923 207.425 346.988 207.068 347.995 C 206.712 349.002 206.219 349.915 205.588 350.733 L 211.595 356.777 C 211.725 356.908 211.826 357.059 211.895 357.231 C 211.964 357.403 212 357.588 212 357.784 C 212 358.053 211.94 358.299 211.821 358.521 C 211.703 358.741 211.537 358.916 211.324 359.043 C 211.112 359.169 210.866 359.232 210.588 359.232 C 210.391 359.232 210.204 359.198 210.028 359.129 C 209.852 359.059 209.691 358.955 209.543 358.816 L 203.5 352.76 C 202.699 353.333 201.813 353.783 200.848 354.111 C 199.881 354.438 198.866 354.602 197.802 354.602 C 196.451 354.602 195.184 354.348 194 353.841 C 192.817 353.333 191.775 352.628 190.874 351.728 C 189.974 350.828 189.269 349.785 188.762 348.602 C 188.254 347.42 188 346.151 188 344.802 Z M 190.1 344.802 C 190.1 345.865 190.299 346.862 190.696 347.792 C 191.093 348.721 191.646 349.538 192.354 350.242 C 193.062 350.947 193.881 351.5 194.811 351.9 C 195.74 352.301 196.737 352.502 197.802 352.502 C 198.866 352.502 199.863 352.301 200.792 351.9 C 201.722 351.5 202.539 350.947 203.242 350.242 C 203.947 349.538 204.5 348.721 204.9 347.792 C 205.302 346.862 205.503 345.865 205.503 344.802 C 205.503 343.737 205.302 342.74 204.9 341.811 C 204.5 340.881 203.947 340.062 203.242 339.354 C 202.539 338.646 201.722 338.093 200.792 337.696 C 199.863 337.298 198.866 337.1 197.802 337.1 C 196.737 337.1 195.74 337.298 194.811 337.696 C 193.881 338.093 193.062 338.646 192.354 339.354 C 191.646 340.062 191.093 340.881 190.696 341.811 C 190.299 342.74 190.1 343.737 190.1 344.802 Z" style="text-wrap-mode: nowrap; stroke-width: 1;"/>
      </g>
      <g>
        <rect style="fill: rgb(255, 255, 255); stroke-width: 1; filter: url(&quot;#filter-16&quot;);" x="952" y="319" width="80" height="40" rx="10" ry="10"/>
        <path d="M 984.55 353.558 C 983.2 353.558 982.21 353.225 981.54 352.556 C 980.86 351.886 980.5 350.879 980.5 349.543 L 980.5 336.753 C 980.5 335.413 980.86 334.41 981.54 333.74 C 982.21 333.07 983.2 332.732 984.55 332.732 L 988.53 332.732 L 988.53 334.822 L 984.58 334.822 C 983.95 334.822 983.44 334.99 983.12 335.331 C 982.74 335.676 982.59 336.182 982.59 336.853 L 982.59 349.436 C 982.59 350.112 982.74 350.62 983.12 350.96 C 983.44 351.301 983.95 351.474 984.58 351.474 L 999.4 351.474 C 1000.03 351.474 1000.54 351.301 1000.87 350.96 C 1001.25 350.62 1001.41 350.112 1001.41 349.436 L 1001.41 336.853 C 1001.41 336.182 1001.25 335.676 1000.87 335.331 C 1000.54 334.99 1000.03 334.822 999.4 334.822 L 995.45 334.822 L 995.45 332.732 L 999.45 332.732 C 1000.8 332.732 1001.79 333.07 1002.46 333.74 C 1003.15 334.41 1003.5 335.413 1003.5 336.753 L 1003.5 349.543 C 1003.5 350.879 1003.15 351.886 1002.46 352.556 C 1001.79 353.225 1000.8 353.558 999.45 353.558 L 984.55 353.558 Z M 991.99 343.401 C 991.71 343.401 991.46 343.299 991.27 343.103 C 991.07 342.9 990.95 342.668 990.95 342.4 L 990.95 329.212 L 991.04 327.281 L 990.3 328.041 L 988.31 330.179 C 988.14 330.387 987.9 330.493 987.59 330.493 C 987.31 330.493 987.1 330.409 986.93 330.232 C 986.77 330.063 986.66 329.844 986.66 329.583 C 986.66 329.334 986.79 329.106 986.99 328.897 L 991.22 324.775 C 991.4 324.648 991.5 324.561 991.64 324.513 C 991.73 324.466 991.88 324.441 991.99 324.441 C 992.13 324.441 992.27 324.466 992.36 324.513 C 992.5 324.561 992.6 324.648 992.76 324.775 L 997.01 328.897 C 997.2 329.106 997.33 329.334 997.33 329.583 C 997.33 329.844 997.21 330.063 997.05 330.232 C 996.88 330.409 996.66 330.493 996.37 330.493 C 996.08 330.493 995.84 330.387 995.67 330.179 L 993.7 328.041 L 992.96 327.281 L 993.05 329.212 L 993.05 342.4 C 993.05 342.668 992.93 342.9 992.73 343.103 C 992.54 343.299 992.3 343.401 991.99 343.401 Z" style="text-wrap-mode: nowrap; stroke-width: 1;"/>
        <text style="fill: rgb(143, 143, 143); font-family: Arial, sans-serif; font-size: 18px; white-space: pre; stroke-width: 1;" x="966.987" y="382.369">export</text>
      </g>
      <g>
        <rect style="fill: rgb(255, 255, 255); stroke-width: 1; filter: url(&quot;#filter-17&quot;);" x="1052" y="319" width="80" height="40" rx="10" ry="10"/>
        <path d="M 1084.24 353.461 C 1082.83 353.461 1081.77 353.111 1081.07 352.414 C 1080.35 351.715 1080 350.666 1080 349.27 L 1080 335.924 C 1080 334.527 1080.35 333.478 1081.07 332.78 C 1081.77 332.081 1082.83 331.732 1084.24 331.732 L 1088.38 331.732 L 1088.38 333.909 L 1084.27 333.909 C 1083.6 333.909 1083.08 334.087 1082.72 334.442 C 1082.35 334.799 1082.18 335.328 1082.18 336.032 L 1082.18 349.161 C 1082.18 349.864 1082.35 350.395 1082.72 350.751 C 1083.08 351.107 1083.6 351.285 1084.27 351.285 L 1099.72 351.285 C 1100.38 351.285 1100.9 351.107 1101.27 350.751 C 1101.64 350.395 1101.82 349.864 1101.82 349.161 L 1101.82 336.032 C 1101.82 335.328 1101.64 334.799 1101.27 334.442 C 1100.9 334.087 1100.38 333.909 1099.72 333.909 L 1095.6 333.909 L 1095.6 331.732 L 1099.76 331.732 C 1101.17 331.732 1102.23 332.081 1102.93 332.78 C 1103.65 333.478 1104 334.527 1104 335.924 L 1104 349.27 C 1104 350.666 1103.65 351.715 1102.93 352.414 C 1102.23 353.111 1101.17 353.461 1099.76 353.461 L 1084.24 353.461 Z M 1091.99 324.538 C 1092.29 324.538 1092.55 324.642 1092.75 324.85 C 1092.97 325.057 1093.08 325.3 1093.08 325.58 L 1093.08 339.331 L 1092.99 341.359 L 1093.76 340.561 L 1095.83 338.33 C 1096.02 338.114 1096.27 338.006 1096.56 338.006 C 1096.85 338.006 1097.08 338.096 1097.27 338.277 C 1097.45 338.456 1097.55 338.682 1097.55 338.952 C 1097.55 339.214 1097.44 339.453 1097.24 339.669 L 1092.78 343.968 C 1092.64 344.104 1092.52 344.197 1092.39 344.246 C 1092.27 344.296 1092.13 344.321 1091.99 344.321 C 1091.87 344.321 1091.73 344.296 1091.61 344.246 C 1091.48 344.197 1091.36 344.104 1091.21 343.968 L 1086.76 339.669 C 1086.55 339.453 1086.44 339.214 1086.44 338.952 C 1086.44 338.682 1086.53 338.456 1086.71 338.277 C 1086.9 338.096 1087.13 338.006 1087.41 338.006 C 1087.72 338.006 1087.96 338.114 1088.15 338.33 L 1090.24 340.561 L 1091.01 341.359 L 1090.93 339.331 L 1090.93 325.58 C 1090.93 325.3 1091.03 325.057 1091.25 324.85 C 1091.45 324.642 1091.71 324.538 1091.99 324.538 Z" style="text-wrap-mode: nowrap; stroke-width: 1;"/>
        <text style="fill: rgb(143, 143, 143); font-family: Arial, sans-serif; font-size: 18px; white-space: pre; stroke-width: 1;" x="1067" y="382.369">import</text>
      </g>
      <g>
        <rect style="filter: url(&quot;#drop-shadow-filter-0&quot;); fill: rgb(255, 255, 255); stroke-width: 1;" x="1152" y="319" width="80" height="40" rx="10" ry="10"/>
        <path d="M 1190.84 352.5 L 1193.16 352.5 C 1193.83 352.5 1194.3 352.106 1194.47 351.466 L 1195.14 348.596 C 1195.68 348.415 1196.18 348.219 1196.66 347.989 L 1199.18 349.531 C 1199.68 349.859 1200.32 349.81 1200.76 349.366 L 1202.4 347.743 C 1202.84 347.3 1202.91 346.628 1202.54 346.087 L 1201.03 343.594 C 1201.26 343.133 1201.46 342.625 1201.6 342.149 L 1204.53 341.46 C 1205.13 341.312 1205.5 340.837 1205.5 340.165 L 1205.5 337.901 C 1205.5 337.261 1205.13 336.785 1204.53 336.638 L 1201.63 335.933 C 1201.46 335.375 1201.23 334.883 1201.06 334.472 L 1202.57 331.93 C 1202.91 331.373 1202.88 330.766 1202.44 330.305 L 1200.76 328.682 C 1200.32 328.271 1199.75 328.158 1199.21 328.485 L 1196.66 330.06 C 1196.22 329.83 1195.71 329.633 1195.14 329.453 L 1194.47 326.534 C 1194.3 325.894 1193.83 325.5 1193.16 325.5 L 1190.84 325.5 C 1190.2 325.5 1189.73 325.894 1189.56 326.534 L 1188.89 329.42 C 1188.35 329.6 1187.81 329.798 1187.37 330.044 L 1184.82 328.485 C 1184.28 328.158 1183.71 328.24 1183.24 328.682 L 1181.6 330.305 C 1181.12 330.766 1181.12 331.373 1181.46 331.93 L 1182.97 334.472 C 1182.8 334.883 1182.57 335.375 1182.4 335.933 L 1179.54 336.638 C 1178.9 336.785 1178.5 337.261 1178.5 337.901 L 1178.5 340.165 C 1178.5 340.837 1178.9 341.312 1179.54 341.46 L 1182.44 342.149 C 1182.57 342.625 1182.77 343.133 1183.01 343.594 L 1181.49 346.087 C 1181.12 346.628 1181.19 347.3 1181.63 347.743 L 1183.24 349.366 C 1183.71 349.81 1184.35 349.859 1184.89 349.531 L 1187.37 347.989 C 1187.85 348.219 1188.35 348.415 1188.89 348.596 L 1189.56 351.466 C 1189.73 352.106 1190.2 352.5 1190.84 352.5 Z M 1192.02 343.51 C 1189.53 343.51 1187.51 341.477 1187.51 339 C 1187.51 336.523 1189.53 334.489 1192.02 334.489 C 1194.5 334.489 1196.52 336.523 1196.52 339 C 1196.52 341.477 1194.5 343.51 1192.02 343.51 Z" style="fill: rgb(38, 38, 38); stroke-width: 1;"/>
      </g>
    </g>
    <g>
      <rect x="143" y="437" width="1118" height="407" style="fill: rgb(255, 255, 255); stroke-width: 2; stroke: rgb(220, 220, 220);"/>
      <g>
        <text style="fill: rgb(39, 39, 39); font-family: Arial, sans-serif; font-size: 23px; white-space: pre; stroke-width: 1;" x="165" y="473.402">domain name</text>
        <text style="fill: rgb(39, 39, 39); font-family: Arial, sans-serif; font-size: 23px; letter-spacing: 0.4px; white-space: pre; stroke-width: 1;" x="1075" y="473.402">global</text>
        <line style="fill: rgb(216, 216, 216); stroke-width: 2; stroke: rgb(229, 229, 229);" x1="1030" y1="446" x2="1030" y2="477"/>
        <line style="fill: rgb(216, 216, 216); stroke-width: 2; stroke: rgb(229, 229, 229);" x1="1185" y1="446" x2="1185" y2="477"/>
        <line style="fill: rgb(216, 216, 216); stroke-width: 2; stroke: rgb(220, 220, 220);" x1="144" y1="493" x2="1260" y2="493"/>
      </g>
      <g>
        <g>
          <rect x="144" y="494" width="1116" height="49" style="fill: rgb(220, 221, 220); stroke-width: 1;"/>
          <text style="font-family: Arial, sans-serif; font-size: 27px; white-space: pre; stroke-width: 1;" x="159.408" y="527.756">example.com</text>
          <text style="font-family: Arial, sans-serif; font-size: 27px; white-space: pre; stroke-width: 1;" x="1086.74" y="527.756">yes</text>
        </g>
        <rect x="144" y="541" width="1116" height="48" style="fill: rgb(244, 245, 245); stroke-width: 1;"/>
        <rect x="144" y="637" width="1116" height="48" style="fill: rgb(244, 245, 245); stroke-width: 1;"/>
        <rect x="144" y="733" width="1116" height="48" style="fill: rgb(244, 245, 245); stroke-width: 1;"/>
        <rect x="144" y="829" width="1116" height="15" style="fill: rgb(244, 245, 245); stroke-width: 1;"/>
        <line style="fill: rgb(216, 216, 216); stroke-width: 2; stroke: rgb(220, 220, 220);" x1="1030" y1="494" x2="1030" y2="843.999"/>
        <line style="fill: rgb(216, 216, 216); stroke-width: 2; stroke: rgb(220, 220, 220);" x1="1185" y1="494" x2="1185" y2="843.999"/>
        <g>
          <path d="M 1223 528 C 1221.48 528 1220.06 527.714 1218.73 527.143 C 1217.4 526.57 1216.23 525.782 1215.22 524.774 C 1214.22 523.769 1213.43 522.6 1212.86 521.27 C 1212.29 519.94 1212 518.517 1212 517 C 1212 515.483 1212.29 514.06 1212.86 512.73 C 1213.43 511.4 1214.22 510.229 1215.22 509.22 C 1216.23 508.209 1217.4 507.419 1218.73 506.852 C 1220.06 506.284 1221.48 506 1223 506 C 1224.52 506 1225.94 506.284 1227.27 506.852 C 1228.6 507.419 1229.77 508.209 1230.78 509.22 C 1231.78 510.229 1232.57 511.4 1233.14 512.73 C 1233.71 514.06 1234 515.483 1234 517 C 1234 518.517 1233.71 519.94 1233.14 521.27 C 1232.57 522.6 1231.78 523.769 1230.78 524.774 C 1229.77 525.782 1228.6 526.57 1227.27 527.143 C 1225.94 527.714 1224.52 528 1223 528 Z M 1223 526.167 C 1224.27 526.167 1225.45 525.929 1226.56 525.456 C 1227.67 524.98 1228.64 524.323 1229.48 523.482 C 1230.32 522.64 1230.98 521.665 1231.46 520.559 C 1231.93 519.452 1232.17 518.265 1232.17 517 C 1232.17 515.735 1231.93 514.547 1231.46 513.435 C 1230.98 512.324 1230.32 511.351 1229.48 510.512 C 1228.64 509.676 1227.67 509.02 1226.56 508.544 C 1225.45 508.071 1224.27 507.833 1223 507.833 C 1221.73 507.833 1220.55 508.071 1219.44 508.544 C 1218.33 509.02 1217.36 509.676 1216.52 510.512 C 1215.68 511.351 1215.02 512.324 1214.55 513.435 C 1214.07 514.547 1213.83 515.735 1213.83 517 C 1213.83 518.265 1214.07 519.452 1214.55 520.559 C 1215.02 521.665 1215.68 522.64 1216.52 523.482 C 1217.36 524.323 1218.33 524.98 1219.44 525.456 C 1220.55 525.929 1221.73 526.167 1223 526.167 Z M 1218.48 522.436 C 1218.24 522.549 1218.03 522.574 1217.85 522.51 C 1217.66 522.445 1217.54 522.322 1217.48 522.139 C 1217.41 521.955 1217.44 521.745 1217.55 521.507 L 1220.57 515.317 C 1220.75 514.964 1221 514.713 1221.32 514.563 L 1227.49 511.554 C 1227.87 511.374 1228.16 511.393 1228.38 511.608 C 1228.59 511.823 1228.6 512.115 1228.42 512.481 L 1225.42 518.661 C 1225.24 518.998 1224.99 519.247 1224.67 519.404 L 1218.48 522.436 Z M 1223 518.327 C 1223.36 518.327 1223.67 518.198 1223.93 517.938 C 1224.19 517.679 1224.32 517.367 1224.32 517 C 1224.32 516.634 1224.19 516.322 1223.93 516.067 C 1223.67 515.812 1223.36 515.684 1223 515.684 C 1222.63 515.684 1222.32 515.812 1222.06 516.067 C 1221.8 516.322 1221.67 516.634 1221.67 517 C 1221.67 517.367 1221.8 517.679 1222.06 517.938 C 1222.32 518.198 1222.63 518.327 1223 518.327 Z" style="text-wrap-mode: nowrap; fill: rgb(128, 127, 128); stroke-width: 1;"/>
          <path d="M 1223 576 C 1221.48 576 1220.06 575.714 1218.73 575.143 C 1217.4 574.57 1216.23 573.782 1215.22 572.774 C 1214.22 571.769 1213.43 570.6 1212.86 569.27 C 1212.29 567.94 1212 566.517 1212 565 C 1212 563.483 1212.29 562.06 1212.86 560.73 C 1213.43 559.4 1214.22 558.229 1215.22 557.22 C 1216.23 556.209 1217.4 555.419 1218.73 554.852 C 1220.06 554.284 1221.48 554 1223 554 C 1224.52 554 1225.94 554.284 1227.27 554.852 C 1228.6 555.419 1229.77 556.209 1230.78 557.22 C 1231.78 558.229 1232.57 559.4 1233.14 560.73 C 1233.71 562.06 1234 563.483 1234 565 C 1234 566.517 1233.71 567.94 1233.14 569.27 C 1232.57 570.6 1231.78 571.769 1230.78 572.774 C 1229.77 573.782 1228.6 574.57 1227.27 575.143 C 1225.94 575.714 1224.52 576 1223 576 Z M 1223 574.167 C 1224.27 574.167 1225.45 573.929 1226.56 573.456 C 1227.67 572.98 1228.64 572.323 1229.48 571.482 C 1230.32 570.64 1230.98 569.665 1231.46 568.559 C 1231.93 567.452 1232.17 566.265 1232.17 565 C 1232.17 563.735 1231.93 562.547 1231.46 561.435 C 1230.98 560.324 1230.32 559.351 1229.48 558.512 C 1228.64 557.676 1227.67 557.02 1226.56 556.544 C 1225.45 556.071 1224.27 555.833 1223 555.833 C 1221.73 555.833 1220.55 556.071 1219.44 556.544 C 1218.33 557.02 1217.36 557.676 1216.52 558.512 C 1215.68 559.351 1215.02 560.324 1214.55 561.435 C 1214.07 562.547 1213.83 563.735 1213.83 565 C 1213.83 566.265 1214.07 567.452 1214.55 568.559 C 1215.02 569.665 1215.68 570.64 1216.52 571.482 C 1217.36 572.323 1218.33 572.98 1219.44 573.456 C 1220.55 573.929 1221.73 574.167 1223 574.167 Z M 1218.48 570.436 C 1218.24 570.549 1218.03 570.574 1217.85 570.51 C 1217.66 570.445 1217.54 570.322 1217.48 570.139 C 1217.41 569.955 1217.44 569.745 1217.55 569.507 L 1220.57 563.317 C 1220.75 562.964 1221 562.713 1221.32 562.563 L 1227.49 559.554 C 1227.87 559.374 1228.16 559.393 1228.38 559.608 C 1228.59 559.823 1228.6 560.115 1228.42 560.481 L 1225.42 566.661 C 1225.24 566.998 1224.99 567.247 1224.67 567.404 L 1218.48 570.436 Z M 1223 566.327 C 1223.36 566.327 1223.67 566.198 1223.93 565.938 C 1224.19 565.679 1224.32 565.367 1224.32 565 C 1224.32 564.634 1224.19 564.322 1223.93 564.067 C 1223.67 563.812 1223.36 563.684 1223 563.684 C 1222.63 563.684 1222.32 563.812 1222.06 564.067 C 1221.8 564.322 1221.67 564.634 1221.67 565 C 1221.67 565.367 1221.8 565.679 1222.06 565.938 C 1222.32 566.198 1222.63 566.327 1223 566.327 Z" style="text-wrap-mode: nowrap; fill: rgb(128, 127, 128); stroke-width: 1;"/>
          <path d="M 1223 624 C 1221.48 624 1220.06 623.714 1218.73 623.143 C 1217.4 622.57 1216.23 621.782 1215.22 620.774 C 1214.22 619.769 1213.43 618.6 1212.86 617.27 C 1212.29 615.94 1212 614.517 1212 613 C 1212 611.483 1212.29 610.06 1212.86 608.73 C 1213.43 607.4 1214.22 606.229 1215.22 605.22 C 1216.23 604.209 1217.4 603.419 1218.73 602.852 C 1220.06 602.284 1221.48 602 1223 602 C 1224.52 602 1225.94 602.284 1227.27 602.852 C 1228.6 603.419 1229.77 604.209 1230.78 605.22 C 1231.78 606.229 1232.57 607.4 1233.14 608.73 C 1233.71 610.06 1234 611.483 1234 613 C 1234 614.517 1233.71 615.94 1233.14 617.27 C 1232.57 618.6 1231.78 619.769 1230.78 620.774 C 1229.77 621.782 1228.6 622.57 1227.27 623.143 C 1225.94 623.714 1224.52 624 1223 624 Z M 1223 622.167 C 1224.27 622.167 1225.45 621.929 1226.56 621.456 C 1227.67 620.98 1228.64 620.323 1229.48 619.482 C 1230.32 618.64 1230.98 617.665 1231.46 616.559 C 1231.93 615.452 1232.17 614.265 1232.17 613 C 1232.17 611.735 1231.93 610.547 1231.46 609.435 C 1230.98 608.324 1230.32 607.351 1229.48 606.512 C 1228.64 605.676 1227.67 605.02 1226.56 604.544 C 1225.45 604.071 1224.27 603.833 1223 603.833 C 1221.73 603.833 1220.55 604.071 1219.44 604.544 C 1218.33 605.02 1217.36 605.676 1216.52 606.512 C 1215.68 607.351 1215.02 608.324 1214.55 609.435 C 1214.07 610.547 1213.83 611.735 1213.83 613 C 1213.83 614.265 1214.07 615.452 1214.55 616.559 C 1215.02 617.665 1215.68 618.64 1216.52 619.482 C 1217.36 620.323 1218.33 620.98 1219.44 621.456 C 1220.55 621.929 1221.73 622.167 1223 622.167 Z M 1218.48 618.436 C 1218.24 618.549 1218.03 618.574 1217.85 618.51 C 1217.66 618.445 1217.54 618.322 1217.48 618.139 C 1217.41 617.955 1217.44 617.745 1217.55 617.507 L 1220.57 611.317 C 1220.75 610.964 1221 610.713 1221.32 610.563 L 1227.49 607.554 C 1227.87 607.374 1228.16 607.393 1228.38 607.608 C 1228.59 607.823 1228.6 608.115 1228.42 608.481 L 1225.42 614.661 C 1225.24 614.998 1224.99 615.247 1224.67 615.404 L 1218.48 618.436 Z M 1223 614.327 C 1223.36 614.327 1223.67 614.198 1223.93 613.938 C 1224.19 613.679 1224.32 613.367 1224.32 613 C 1224.32 612.634 1224.19 612.322 1223.93 612.067 C 1223.67 611.812 1223.36 611.684 1223 611.684 C 1222.63 611.684 1222.32 611.812 1222.06 612.067 C 1221.8 612.322 1221.67 612.634 1221.67 613 C 1221.67 613.367 1221.8 613.679 1222.06 613.938 C 1222.32 614.198 1222.63 614.327 1223 614.327 Z" style="text-wrap-mode: nowrap; fill: rgb(128, 127, 128); stroke-width: 1;"/>
          <path d="M 1223 672 C 1221.48 672 1220.06 671.714 1218.73 671.143 C 1217.4 670.57 1216.23 669.782 1215.22 668.774 C 1214.22 667.769 1213.43 666.6 1212.86 665.27 C 1212.29 663.94 1212 662.517 1212 661 C 1212 659.483 1212.29 658.06 1212.86 656.73 C 1213.43 655.4 1214.22 654.229 1215.22 653.22 C 1216.23 652.209 1217.4 651.419 1218.73 650.852 C 1220.06 650.284 1221.48 650 1223 650 C 1224.52 650 1225.94 650.284 1227.27 650.852 C 1228.6 651.419 1229.77 652.209 1230.78 653.22 C 1231.78 654.229 1232.57 655.4 1233.14 656.73 C 1233.71 658.06 1234 659.483 1234 661 C 1234 662.517 1233.71 663.94 1233.14 665.27 C 1232.57 666.6 1231.78 667.769 1230.78 668.774 C 1229.77 669.782 1228.6 670.57 1227.27 671.143 C 1225.94 671.714 1224.52 672 1223 672 Z M 1223 670.167 C 1224.27 670.167 1225.45 669.929 1226.56 669.456 C 1227.67 668.98 1228.64 668.323 1229.48 667.482 C 1230.32 666.64 1230.98 665.665 1231.46 664.559 C 1231.93 663.452 1232.17 662.265 1232.17 661 C 1232.17 659.735 1231.93 658.547 1231.46 657.435 C 1230.98 656.324 1230.32 655.351 1229.48 654.512 C 1228.64 653.676 1227.67 653.02 1226.56 652.544 C 1225.45 652.071 1224.27 651.833 1223 651.833 C 1221.73 651.833 1220.55 652.071 1219.44 652.544 C 1218.33 653.02 1217.36 653.676 1216.52 654.512 C 1215.68 655.351 1215.02 656.324 1214.55 657.435 C 1214.07 658.547 1213.83 659.735 1213.83 661 C 1213.83 662.265 1214.07 663.452 1214.55 664.559 C 1215.02 665.665 1215.68 666.64 1216.52 667.482 C 1217.36 668.323 1218.33 668.98 1219.44 669.456 C 1220.55 669.929 1221.73 670.167 1223 670.167 Z M 1218.48 666.436 C 1218.24 666.549 1218.03 666.574 1217.85 666.51 C 1217.66 666.445 1217.54 666.322 1217.48 666.139 C 1217.41 665.955 1217.44 665.745 1217.55 665.507 L 1220.57 659.317 C 1220.75 658.964 1221 658.713 1221.32 658.563 L 1227.49 655.554 C 1227.87 655.374 1228.16 655.393 1228.38 655.608 C 1228.59 655.823 1228.6 656.115 1228.42 656.481 L 1225.42 662.661 C 1225.24 662.998 1224.99 663.247 1224.67 663.404 L 1218.48 666.436 Z M 1223 662.327 C 1223.36 662.327 1223.67 662.198 1223.93 661.938 C 1224.19 661.679 1224.32 661.367 1224.32 661 C 1224.32 660.634 1224.19 660.322 1223.93 660.067 C 1223.67 659.812 1223.36 659.684 1223 659.684 C 1222.63 659.684 1222.32 659.812 1222.06 660.067 C 1221.8 660.322 1221.67 660.634 1221.67 661 C 1221.67 661.367 1221.8 661.679 1222.06 661.938 C 1222.32 662.198 1222.63 662.327 1223 662.327 Z" style="text-wrap-mode: nowrap; fill: rgb(128, 127, 128); stroke-width: 1;"/>
          <path d="M 1223 720 C 1221.48 720 1220.06 719.714 1218.73 719.143 C 1217.4 718.57 1216.23 717.782 1215.22 716.774 C 1214.22 715.769 1213.43 714.6 1212.86 713.27 C 1212.29 711.94 1212 710.517 1212 709 C 1212 707.483 1212.29 706.06 1212.86 704.73 C 1213.43 703.4 1214.22 702.229 1215.22 701.22 C 1216.23 700.209 1217.4 699.419 1218.73 698.852 C 1220.06 698.284 1221.48 698 1223 698 C 1224.52 698 1225.94 698.284 1227.27 698.852 C 1228.6 699.419 1229.77 700.209 1230.78 701.22 C 1231.78 702.229 1232.57 703.4 1233.14 704.73 C 1233.71 706.06 1234 707.483 1234 709 C 1234 710.517 1233.71 711.94 1233.14 713.27 C 1232.57 714.6 1231.78 715.769 1230.78 716.774 C 1229.77 717.782 1228.6 718.57 1227.27 719.143 C 1225.94 719.714 1224.52 720 1223 720 Z M 1223 718.167 C 1224.27 718.167 1225.45 717.929 1226.56 717.456 C 1227.67 716.98 1228.64 716.323 1229.48 715.482 C 1230.32 714.64 1230.98 713.665 1231.46 712.559 C 1231.93 711.452 1232.17 710.265 1232.17 709 C 1232.17 707.735 1231.93 706.547 1231.46 705.435 C 1230.98 704.324 1230.32 703.351 1229.48 702.512 C 1228.64 701.676 1227.67 701.02 1226.56 700.544 C 1225.45 700.071 1224.27 699.833 1223 699.833 C 1221.73 699.833 1220.55 700.071 1219.44 700.544 C 1218.33 701.02 1217.36 701.676 1216.52 702.512 C 1215.68 703.351 1215.02 704.324 1214.55 705.435 C 1214.07 706.547 1213.83 707.735 1213.83 709 C 1213.83 710.265 1214.07 711.452 1214.55 712.559 C 1215.02 713.665 1215.68 714.64 1216.52 715.482 C 1217.36 716.323 1218.33 716.98 1219.44 717.456 C 1220.55 717.929 1221.73 718.167 1223 718.167 Z M 1218.48 714.436 C 1218.24 714.549 1218.03 714.574 1217.85 714.51 C 1217.66 714.445 1217.54 714.322 1217.48 714.139 C 1217.41 713.955 1217.44 713.745 1217.55 713.507 L 1220.57 707.317 C 1220.75 706.964 1221 706.713 1221.32 706.563 L 1227.49 703.554 C 1227.87 703.374 1228.16 703.393 1228.38 703.608 C 1228.59 703.823 1228.6 704.115 1228.42 704.481 L 1225.42 710.661 C 1225.24 710.998 1224.99 711.247 1224.67 711.404 L 1218.48 714.436 Z M 1223 710.327 C 1223.36 710.327 1223.67 710.198 1223.93 709.938 C 1224.19 709.679 1224.32 709.367 1224.32 709 C 1224.32 708.634 1224.19 708.322 1223.93 708.067 C 1223.67 707.812 1223.36 707.684 1223 707.684 C 1222.63 707.684 1222.32 707.812 1222.06 708.067 C 1221.8 708.322 1221.67 708.634 1221.67 709 C 1221.67 709.367 1221.8 709.679 1222.06 709.938 C 1222.32 710.198 1222.63 710.327 1223 710.327 Z" style="text-wrap-mode: nowrap; fill: rgb(128, 127, 128); stroke-width: 1;"/>
          <path d="M 1223 768 C 1221.48 768 1220.06 767.714 1218.73 767.143 C 1217.4 766.57 1216.23 765.782 1215.22 764.774 C 1214.22 763.769 1213.43 762.6 1212.86 761.27 C 1212.29 759.94 1212 758.517 1212 757 C 1212 755.483 1212.29 754.06 1212.86 752.73 C 1213.43 751.4 1214.22 750.229 1215.22 749.22 C 1216.23 748.209 1217.4 747.419 1218.73 746.852 C 1220.06 746.284 1221.48 746 1223 746 C 1224.52 746 1225.94 746.284 1227.27 746.852 C 1228.6 747.419 1229.77 748.209 1230.78 749.22 C 1231.78 750.229 1232.57 751.4 1233.14 752.73 C 1233.71 754.06 1234 755.483 1234 757 C 1234 758.517 1233.71 759.94 1233.14 761.27 C 1232.57 762.6 1231.78 763.769 1230.78 764.774 C 1229.77 765.782 1228.6 766.57 1227.27 767.143 C 1225.94 767.714 1224.52 768 1223 768 Z M 1223 766.167 C 1224.27 766.167 1225.45 765.929 1226.56 765.456 C 1227.67 764.98 1228.64 764.323 1229.48 763.482 C 1230.32 762.64 1230.98 761.665 1231.46 760.559 C 1231.93 759.452 1232.17 758.265 1232.17 757 C 1232.17 755.735 1231.93 754.547 1231.46 753.435 C 1230.98 752.324 1230.32 751.351 1229.48 750.512 C 1228.64 749.676 1227.67 749.02 1226.56 748.544 C 1225.45 748.071 1224.27 747.833 1223 747.833 C 1221.73 747.833 1220.55 748.071 1219.44 748.544 C 1218.33 749.02 1217.36 749.676 1216.52 750.512 C 1215.68 751.351 1215.02 752.324 1214.55 753.435 C 1214.07 754.547 1213.83 755.735 1213.83 757 C 1213.83 758.265 1214.07 759.452 1214.55 760.559 C 1215.02 761.665 1215.68 762.64 1216.52 763.482 C 1217.36 764.323 1218.33 764.98 1219.44 765.456 C 1220.55 765.929 1221.73 766.167 1223 766.167 Z M 1218.48 762.436 C 1218.24 762.549 1218.03 762.574 1217.85 762.51 C 1217.66 762.445 1217.54 762.322 1217.48 762.139 C 1217.41 761.955 1217.44 761.745 1217.55 761.507 L 1220.57 755.317 C 1220.75 754.964 1221 754.713 1221.32 754.563 L 1227.49 751.554 C 1227.87 751.374 1228.16 751.393 1228.38 751.608 C 1228.59 751.823 1228.6 752.115 1228.42 752.481 L 1225.42 758.661 C 1225.24 758.998 1224.99 759.247 1224.67 759.404 L 1218.48 762.436 Z M 1223 758.327 C 1223.36 758.327 1223.67 758.198 1223.93 757.938 C 1224.19 757.679 1224.32 757.367 1224.32 757 C 1224.32 756.634 1224.19 756.322 1223.93 756.067 C 1223.67 755.812 1223.36 755.684 1223 755.684 C 1222.63 755.684 1222.32 755.812 1222.06 756.067 C 1221.8 756.322 1221.67 756.634 1221.67 757 C 1221.67 757.367 1221.8 757.679 1222.06 757.938 C 1222.32 758.198 1222.63 758.327 1223 758.327 Z" style="text-wrap-mode: nowrap; fill: rgb(128, 127, 128); stroke-width: 1;"/>
          <path d="M 1223 816 C 1221.48 816 1220.06 815.714 1218.73 815.143 C 1217.4 814.57 1216.23 813.782 1215.22 812.774 C 1214.22 811.769 1213.43 810.6 1212.86 809.27 C 1212.29 807.94 1212 806.517 1212 805 C 1212 803.483 1212.29 802.06 1212.86 800.73 C 1213.43 799.4 1214.22 798.229 1215.22 797.22 C 1216.23 796.209 1217.4 795.419 1218.73 794.852 C 1220.06 794.284 1221.48 794 1223 794 C 1224.52 794 1225.94 794.284 1227.27 794.852 C 1228.6 795.419 1229.77 796.209 1230.78 797.22 C 1231.78 798.229 1232.57 799.4 1233.14 800.73 C 1233.71 802.06 1234 803.483 1234 805 C 1234 806.517 1233.71 807.94 1233.14 809.27 C 1232.57 810.6 1231.78 811.769 1230.78 812.774 C 1229.77 813.782 1228.6 814.57 1227.27 815.143 C 1225.94 815.714 1224.52 816 1223 816 Z M 1223 814.167 C 1224.27 814.167 1225.45 813.929 1226.56 813.456 C 1227.67 812.98 1228.64 812.323 1229.48 811.482 C 1230.32 810.64 1230.98 809.665 1231.46 808.559 C 1231.93 807.452 1232.17 806.265 1232.17 805 C 1232.17 803.735 1231.93 802.547 1231.46 801.435 C 1230.98 800.324 1230.32 799.351 1229.48 798.512 C 1228.64 797.676 1227.67 797.02 1226.56 796.544 C 1225.45 796.071 1224.27 795.833 1223 795.833 C 1221.73 795.833 1220.55 796.071 1219.44 796.544 C 1218.33 797.02 1217.36 797.676 1216.52 798.512 C 1215.68 799.351 1215.02 800.324 1214.55 801.435 C 1214.07 802.547 1213.83 803.735 1213.83 805 C 1213.83 806.265 1214.07 807.452 1214.55 808.559 C 1215.02 809.665 1215.68 810.64 1216.52 811.482 C 1217.36 812.323 1218.33 812.98 1219.44 813.456 C 1220.55 813.929 1221.73 814.167 1223 814.167 Z M 1218.48 810.436 C 1218.24 810.549 1218.03 810.574 1217.85 810.51 C 1217.66 810.445 1217.54 810.322 1217.48 810.139 C 1217.41 809.955 1217.44 809.745 1217.55 809.507 L 1220.57 803.317 C 1220.75 802.964 1221 802.713 1221.32 802.563 L 1227.49 799.554 C 1227.87 799.374 1228.16 799.393 1228.38 799.608 C 1228.59 799.823 1228.6 800.115 1228.42 800.481 L 1225.42 806.661 C 1225.24 806.998 1224.99 807.247 1224.67 807.404 L 1218.48 810.436 Z M 1223 806.327 C 1223.36 806.327 1223.67 806.198 1223.93 805.938 C 1224.19 805.679 1224.32 805.367 1224.32 805 C 1224.32 804.634 1224.19 804.322 1223.93 804.067 C 1223.67 803.812 1223.36 803.684 1223 803.684 C 1222.63 803.684 1222.32 803.812 1222.06 804.067 C 1221.8 804.322 1221.67 804.634 1221.67 805 C 1221.67 805.367 1221.8 805.679 1222.06 805.938 C 1222.32 806.198 1222.63 806.327 1223 806.327 Z" style="text-wrap-mode: nowrap; fill: rgb(128, 127, 128); stroke-width: 1;"/>
        </g>
      </g>
      <text style="fill: rgb(142, 142, 146); font-family: Arial, sans-serif; font-size: 23px; letter-spacing: 0.2px; white-space: pre; stroke-width: 1;" x="348.516" y="880.035">note: New Domains are added in Safari via the "JS Blocker" pop-up.</text>
    </g>
    <g>
      <rect style="fill: rgb(255, 255, 255); stroke-width: 1; filter: url(&quot;#filter-18&quot;);" x="568" y="927" width="268" height="39" rx="10" ry="10"/>
      <text style="fill: rgb(38, 38, 38); font-family: Arial, sans-serif; font-size: 27px; white-space: pre; stroke-width: 1;" x="664.633" y="954.146">delete</text>
    </g>
  </g>
  <g style="filter: url('#drop-shadow-filter-2');" transform="matrix(1, 0, 0, 1, 1218, 242.5)">
    <rect style="filter: none; fill: rgb(44, 44, 44); stroke: rgb(114, 114, 114);" x="101" y="100" width="1202" height="915" rx="20" ry="20"/>
    <g>
      <path style="clip-path: url(&quot;#clip-0&quot;); fill: rgb(58, 58, 58); filter: url(&quot;#filter-6&quot;);" d="M 120.5 100.5 H 1283.5 A 19 19 0 0 1 1302.5 119.5 V 157.5 H 101.5 V 119.5 A 19 19 0 0 1 120.5 100.5 Z" bx:shape="rect 101.5 100.5 1201 57 19 19 0 0 1@b8bb7788"/>
      <g>
        <ellipse style="fill: rgb(255, 94, 87); stroke: rgb(226, 65, 56); filter: none;" cx="130" cy="129.646" rx="12" ry="12"/>
        <ellipse style="fill: rgb(253, 188, 46); stroke: rgb(224, 157, 28); filter: none;" cx="170" cy="129.646" rx="12" ry="12"/>
        <ellipse style="fill: rgb(37, 199, 66); stroke: rgb(37, 172, 45); filter: none;" cx="210" cy="129.646" rx="12" ry="12"/>
      </g>
      <text style="fill: rgb(182, 182, 182); font-family: Arial, sans-serif; font-size: 26px; font-weight: 700; white-space: pre;" transform="matrix(1, 0, 0, 1, 88.321892, 3.082367)"><tspan x="544.678" y="134.145">JS Blocker</tspan><tspan x="544.678" dy="1em">​</tspan></text>
    </g>
    <text style="fill: rgb(223, 223, 223); font-family: Arial, sans-serif; font-size: 32px; font-weight: 700; white-space: pre;" x="418.18" y="240.862">Domains where JavaScript is allowed</text>
    <g>
      <rect x="143" y="287" width="1118" height="119.726" style="stroke-width: 1; fill: rgb(35, 35, 35);" rx="19.283" ry="19.283"/>
      <g>
        <rect style="filter: url(&quot;#filter-4&quot;); fill: rgb(46, 46, 46); stroke-width: 1;" x="175" y="319" width="735" height="56" rx="10" ry="10"/>
        <path d="M 188 344.802 C 188 343.451 188.25 342.183 188.76 340.999 C 189.27 339.816 189.97 338.775 190.87 337.874 C 191.77 336.973 192.81 336.268 194 335.761 C 195.18 335.253 196.45 335 197.8 335 C 199.15 335 200.42 335.253 201.6 335.761 C 202.78 336.268 203.82 336.973 204.72 337.874 C 205.62 338.775 206.33 339.816 206.84 340.999 C 207.34 342.183 207.6 343.451 207.6 344.802 C 207.6 345.923 207.42 346.988 207.06 347.995 C 206.71 349.002 206.22 349.915 205.58 350.733 L 211.59 356.777 C 211.72 356.908 211.82 357.059 211.89 357.231 C 211.96 357.403 212 357.588 212 357.784 C 212 358.053 211.94 358.299 211.82 358.521 C 211.7 358.741 211.53 358.916 211.32 359.043 C 211.11 359.169 210.86 359.232 210.58 359.232 C 210.39 359.232 210.2 359.198 210.02 359.129 C 209.85 359.059 209.69 358.955 209.54 358.816 L 203.5 352.76 C 202.7 353.333 201.81 353.783 200.84 354.111 C 199.88 354.438 198.86 354.602 197.8 354.602 C 196.45 354.602 195.18 354.348 194 353.841 C 192.81 353.333 191.77 352.628 190.87 351.728 C 189.97 350.828 189.27 349.785 188.76 348.602 C 188.25 347.42 188 346.151 188 344.802 Z M 190.1 344.802 C 190.1 345.865 190.3 346.862 190.69 347.792 C 191.09 348.721 191.64 349.538 192.35 350.242 C 193.06 350.947 193.88 351.5 194.81 351.9 C 195.74 352.301 196.73 352.502 197.8 352.502 C 198.86 352.502 199.86 352.301 200.79 351.9 C 201.72 351.5 202.54 350.947 203.24 350.242 C 203.94 349.538 204.5 348.721 204.9 347.792 C 205.3 346.862 205.5 345.865 205.5 344.802 C 205.5 343.737 205.3 342.74 204.9 341.811 C 204.5 340.881 203.94 340.062 203.24 339.354 C 202.54 338.646 201.72 338.093 200.79 337.696 C 199.86 337.298 198.86 337.1 197.8 337.1 C 196.73 337.1 195.74 337.298 194.81 337.696 C 193.88 338.093 193.06 338.646 192.35 339.354 C 191.64 340.062 191.09 340.881 190.69 341.811 C 190.3 342.74 190.1 343.737 190.1 344.802 Z" style="text-wrap-mode: nowrap; fill: rgb(255, 255, 255); stroke-width: 1;"/>
      </g>
      <g>
        <rect style="fill: rgb(97, 97, 97); filter: url(&quot;#filter-3&quot;); stroke-width: 1;" x="952" y="319" width="80" height="40" rx="10" ry="10"/>
        <path d="M 984.55 353.559 C 983.2 353.559 982.21 353.226 981.54 352.557 C 980.86 351.887 980.5 350.88 980.5 349.544 L 980.5 336.754 C 980.5 335.414 980.86 334.411 981.54 333.741 C 982.21 333.071 983.2 332.733 984.55 332.733 L 988.53 332.733 L 988.53 334.823 L 984.58 334.823 C 983.95 334.823 983.44 334.991 983.12 335.332 C 982.74 335.677 982.59 336.183 982.59 336.854 L 982.59 349.437 C 982.59 350.113 982.74 350.621 983.12 350.961 C 983.44 351.302 983.95 351.475 984.58 351.475 L 999.4 351.475 C 1000.03 351.475 1000.54 351.302 1000.87 350.961 C 1001.25 350.621 1001.41 350.113 1001.41 349.437 L 1001.41 336.854 C 1001.41 336.183 1001.25 335.677 1000.87 335.332 C 1000.54 334.991 1000.03 334.823 999.4 334.823 L 995.45 334.823 L 995.45 332.733 L 999.45 332.733 C 1000.8 332.733 1001.79 333.071 1002.46 333.741 C 1003.15 334.411 1003.5 335.414 1003.5 336.754 L 1003.5 349.544 C 1003.5 350.88 1003.15 351.887 1002.46 352.557 C 1001.79 353.226 1000.8 353.559 999.45 353.559 L 984.55 353.559 Z M 991.99 343.402 C 991.71 343.402 991.46 343.3 991.27 343.104 C 991.07 342.901 990.95 342.669 990.95 342.401 L 990.95 329.213 L 991.04 327.282 L 990.3 328.042 L 988.31 330.18 C 988.14 330.388 987.9 330.494 987.59 330.494 C 987.31 330.494 987.1 330.41 986.93 330.233 C 986.77 330.064 986.66 329.845 986.66 329.584 C 986.66 329.335 986.79 329.107 986.99 328.898 L 991.22 324.776 C 991.4 324.649 991.5 324.562 991.64 324.514 C 991.73 324.467 991.88 324.442 991.99 324.442 C 992.13 324.442 992.27 324.467 992.36 324.514 C 992.5 324.562 992.6 324.649 992.76 324.776 L 997.01 328.898 C 997.2 329.107 997.33 329.335 997.33 329.584 C 997.33 329.845 997.21 330.064 997.05 330.233 C 996.88 330.41 996.66 330.494 996.37 330.494 C 996.08 330.494 995.84 330.388 995.67 330.18 L 993.7 328.042 L 992.96 327.282 L 993.05 329.213 L 993.05 342.401 C 993.05 342.669 992.93 342.901 992.73 343.104 C 992.54 343.3 992.3 343.402 991.99 343.402 Z" style="text-wrap-mode: nowrap; fill: rgb(255, 255, 255); stroke-width: 1;"/>
        <text style="fill: rgb(143, 143, 143); font-family: Arial, sans-serif; font-size: 18px; white-space: pre; stroke-width: 1;" x="966.986" y="382.028">export</text>
      </g>
      <g>
        <rect style="fill: rgb(97, 97, 97); filter: url(&quot;#filter-2&quot;); stroke-width: 1;" x="1052" y="319" width="80" height="40" rx="10" ry="10"/>
        <path d="M 1084.24 353.462 C 1082.83 353.462 1081.77 353.112 1081.07 352.415 C 1080.35 351.716 1080 350.667 1080 349.271 L 1080 335.925 C 1080 334.528 1080.35 333.479 1081.07 332.781 C 1081.77 332.082 1082.83 331.733 1084.24 331.733 L 1088.38 331.733 L 1088.38 333.91 L 1084.27 333.91 C 1083.6 333.91 1083.08 334.088 1082.72 334.443 C 1082.35 334.8 1082.18 335.329 1082.18 336.033 L 1082.18 349.162 C 1082.18 349.865 1082.35 350.396 1082.72 350.752 C 1083.08 351.108 1083.6 351.286 1084.27 351.286 L 1099.72 351.286 C 1100.38 351.286 1100.9 351.108 1101.27 350.752 C 1101.64 350.396 1101.82 349.865 1101.82 349.162 L 1101.82 336.033 C 1101.82 335.329 1101.64 334.8 1101.27 334.443 C 1100.9 334.088 1100.38 333.91 1099.72 333.91 L 1095.6 333.91 L 1095.6 331.733 L 1099.76 331.733 C 1101.17 331.733 1102.23 332.082 1102.93 332.781 C 1103.65 333.479 1104 334.528 1104 335.925 L 1104 349.271 C 1104 350.667 1103.65 351.716 1102.93 352.415 C 1102.23 353.112 1101.17 353.462 1099.76 353.462 L 1084.24 353.462 Z M 1091.99 324.539 C 1092.29 324.539 1092.55 324.643 1092.75 324.851 C 1092.97 325.058 1093.08 325.301 1093.08 325.581 L 1093.08 339.332 L 1092.99 341.36 L 1093.76 340.562 L 1095.83 338.331 C 1096.02 338.115 1096.27 338.007 1096.56 338.007 C 1096.85 338.007 1097.08 338.097 1097.27 338.278 C 1097.45 338.457 1097.55 338.683 1097.55 338.953 C 1097.55 339.215 1097.44 339.454 1097.24 339.67 L 1092.78 343.969 C 1092.64 344.105 1092.52 344.198 1092.39 344.247 C 1092.27 344.297 1092.13 344.322 1091.99 344.322 C 1091.87 344.322 1091.73 344.297 1091.61 344.247 C 1091.48 344.198 1091.36 344.105 1091.21 343.969 L 1086.76 339.67 C 1086.55 339.454 1086.44 339.215 1086.44 338.953 C 1086.44 338.683 1086.53 338.457 1086.71 338.278 C 1086.9 338.097 1087.13 338.007 1087.41 338.007 C 1087.72 338.007 1087.96 338.115 1088.15 338.331 L 1090.24 340.562 L 1091.01 341.36 L 1090.93 339.332 L 1090.93 325.581 C 1090.93 325.301 1091.03 325.058 1091.25 324.851 C 1091.45 324.643 1091.71 324.539 1091.99 324.539 Z" style="text-wrap-mode: nowrap; fill: rgb(255, 255, 255); stroke-width: 1;"/>
        <text style="fill: rgb(143, 143, 143); font-family: Arial, sans-serif; font-size: 18px; white-space: pre; stroke-width: 1;" x="1067" y="382.028">import</text>
      </g>
      <g>
        <rect style="fill: rgb(97, 97, 97); stroke-width: 1; filter: url(&quot;#filter-7&quot;);" x="1152" y="319" width="80" height="40" rx="10" ry="10"/>
        <path d="M 1190.84 352.5 L 1193.16 352.5 C 1193.83 352.5 1194.3 352.106 1194.47 351.466 L 1195.14 348.596 C 1195.68 348.415 1196.18 348.219 1196.66 347.989 L 1199.18 349.531 C 1199.68 349.859 1200.32 349.81 1200.76 349.366 L 1202.4 347.743 C 1202.84 347.3 1202.91 346.628 1202.54 346.087 L 1201.03 343.594 C 1201.26 343.133 1201.46 342.625 1201.6 342.149 L 1204.53 341.46 C 1205.13 341.312 1205.5 340.837 1205.5 340.165 L 1205.5 337.901 C 1205.5 337.261 1205.13 336.785 1204.53 336.638 L 1201.63 335.933 C 1201.46 335.375 1201.23 334.883 1201.06 334.472 L 1202.57 331.93 C 1202.91 331.373 1202.88 330.766 1202.44 330.305 L 1200.76 328.682 C 1200.32 328.271 1199.75 328.158 1199.21 328.485 L 1196.66 330.06 C 1196.22 329.83 1195.71 329.633 1195.14 329.453 L 1194.47 326.534 C 1194.3 325.894 1193.83 325.5 1193.16 325.5 L 1190.84 325.5 C 1190.2 325.5 1189.73 325.894 1189.56 326.534 L 1188.89 329.42 C 1188.35 329.6 1187.81 329.798 1187.37 330.044 L 1184.82 328.485 C 1184.28 328.158 1183.71 328.24 1183.24 328.682 L 1181.6 330.305 C 1181.12 330.766 1181.12 331.373 1181.46 331.93 L 1182.97 334.472 C 1182.8 334.883 1182.57 335.375 1182.4 335.933 L 1179.54 336.638 C 1178.9 336.785 1178.5 337.261 1178.5 337.901 L 1178.5 340.165 C 1178.5 340.837 1178.9 341.312 1179.54 341.46 L 1182.44 342.149 C 1182.57 342.625 1182.77 343.133 1183.01 343.594 L 1181.49 346.087 C 1181.12 346.628 1181.19 347.3 1181.63 347.743 L 1183.24 349.366 C 1183.71 349.81 1184.35 349.859 1184.89 349.531 L 1187.37 347.989 C 1187.85 348.219 1188.35 348.415 1188.89 348.596 L 1189.56 351.466 C 1189.73 352.106 1190.2 352.5 1190.84 352.5 Z M 1192.02 343.51 C 1189.53 343.51 1187.51 341.477 1187.51 339 C 1187.51 336.523 1189.53 334.489 1192.02 334.489 C 1194.5 334.489 1196.52 336.523 1196.52 339 C 1196.52 341.477 1194.5 343.51 1192.02 343.51 Z" style="fill: rgb(231, 231, 231); stroke-width: 1;"/>
      </g>
    </g>
    <g>
      <rect x="143" y="437" width="1118" height="407" style="stroke-width: 2; fill: rgb(35, 35, 35); stroke: rgb(65, 65, 65);"/>
      <g>
        <text style="fill: rgb(255, 255, 255); font-family: Arial, sans-serif; font-size: 23px; stroke: rgb(65, 65, 65); white-space: pre; stroke-width: 1;" x="165" y="473.402">domain name</text>
        <text style="fill: rgb(255, 255, 255); font-family: Arial, sans-serif; font-size: 23px; letter-spacing: 0.4px; stroke: rgb(65, 65, 65); white-space: pre; stroke-width: 1;" x="1075" y="473.402">global</text>
        <line style="stroke-width: 2; fill: rgb(114, 42, 190); stroke: rgb(65, 65, 65);" x1="1030" y1="446" x2="1030" y2="477"/>
        <line style="stroke-width: 2; fill: rgb(114, 42, 190); stroke: rgb(65, 65, 65);" x1="1185" y1="446" x2="1185" y2="477"/>
        <line style="fill: rgb(216, 216, 216); stroke-width: 2; stroke: rgb(65, 65, 65);" x1="144" y1="493" x2="1260" y2="493"/>
      </g>
      <g>
        <g>
          <rect x="144" y="494" width="1116" height="49" style="fill: rgb(70, 70, 70); stroke-width: 1;"/>
          <text style="fill: rgb(255, 255, 255); font-family: Arial, sans-serif; font-size: 27px; white-space: pre; stroke-width: 1;" x="159.408" y="527.756">example.com</text>
          <text style="fill: rgb(255, 255, 255); font-family: Arial, sans-serif; font-size: 27px; white-space: pre; stroke-width: 1;" x="1086.74" y="527.756">yes</text>
        </g>
        <rect x="144" y="541" width="1116" height="48" style="fill: rgb(45, 45, 45); stroke-width: 1;"/>
        <rect x="144" y="637" width="1116" height="48" style="fill: rgb(45, 45, 45); stroke-width: 1;"/>
        <rect x="144" y="733" width="1116" height="48" style="fill: rgb(45, 45, 45); stroke-width: 1;"/>
        <rect x="144" y="829" width="1116" height="15" style="fill: rgb(45, 45, 45); stroke-width: 1;"/>
        <line style="fill: rgb(216, 216, 216); stroke-width: 2; stroke: rgb(65, 65, 65);" x1="1030" y1="494" x2="1030" y2="843.999"/>
        <line style="fill: rgb(216, 216, 216); stroke-width: 2; stroke: rgb(65, 65, 65);" x1="1185" y1="494" x2="1185" y2="843.999"/>
        <g>
          <path d="M 1223 528 C 1221.48 528 1220.06 527.714 1218.73 527.143 C 1217.4 526.57 1216.23 525.782 1215.22 524.774 C 1214.22 523.769 1213.43 522.6 1212.86 521.27 C 1212.29 519.94 1212 518.517 1212 517 C 1212 515.483 1212.29 514.06 1212.86 512.73 C 1213.43 511.4 1214.22 510.229 1215.22 509.22 C 1216.23 508.209 1217.4 507.419 1218.73 506.852 C 1220.06 506.284 1221.48 506 1223 506 C 1224.52 506 1225.94 506.284 1227.27 506.852 C 1228.6 507.419 1229.77 508.209 1230.78 509.22 C 1231.78 510.229 1232.57 511.4 1233.14 512.73 C 1233.71 514.06 1234 515.483 1234 517 C 1234 518.517 1233.71 519.94 1233.14 521.27 C 1232.57 522.6 1231.78 523.769 1230.78 524.774 C 1229.77 525.782 1228.6 526.57 1227.27 527.143 C 1225.94 527.714 1224.52 528 1223 528 Z M 1223 526.167 C 1224.27 526.167 1225.45 525.929 1226.56 525.456 C 1227.67 524.98 1228.64 524.323 1229.48 523.482 C 1230.32 522.64 1230.98 521.665 1231.46 520.559 C 1231.93 519.452 1232.17 518.265 1232.17 517 C 1232.17 515.735 1231.93 514.547 1231.46 513.435 C 1230.98 512.324 1230.32 511.351 1229.48 510.512 C 1228.64 509.676 1227.67 509.02 1226.56 508.544 C 1225.45 508.071 1224.27 507.833 1223 507.833 C 1221.73 507.833 1220.55 508.071 1219.44 508.544 C 1218.33 509.02 1217.36 509.676 1216.52 510.512 C 1215.68 511.351 1215.02 512.324 1214.55 513.435 C 1214.07 514.547 1213.83 515.735 1213.83 517 C 1213.83 518.265 1214.07 519.452 1214.55 520.559 C 1215.02 521.665 1215.68 522.64 1216.52 523.482 C 1217.36 524.323 1218.33 524.98 1219.44 525.456 C 1220.55 525.929 1221.73 526.167 1223 526.167 Z M 1218.48 522.436 C 1218.24 522.549 1218.03 522.574 1217.85 522.51 C 1217.66 522.445 1217.54 522.322 1217.48 522.139 C 1217.41 521.955 1217.44 521.745 1217.55 521.507 L 1220.57 515.317 C 1220.75 514.964 1221 514.713 1221.32 514.563 L 1227.49 511.554 C 1227.87 511.374 1228.16 511.393 1228.38 511.608 C 1228.59 511.823 1228.6 512.115 1228.42 512.481 L 1225.42 518.661 C 1225.24 518.998 1224.99 519.247 1224.67 519.404 L 1218.48 522.436 Z M 1223 518.327 C 1223.36 518.327 1223.67 518.198 1223.93 517.938 C 1224.19 517.679 1224.32 517.367 1224.32 517 C 1224.32 516.634 1224.19 516.322 1223.93 516.067 C 1223.67 515.812 1223.36 515.684 1223 515.684 C 1222.63 515.684 1222.32 515.812 1222.06 516.067 C 1221.8 516.322 1221.67 516.634 1221.67 517 C 1221.67 517.367 1221.8 517.679 1222.06 517.938 C 1222.32 518.198 1222.63 518.327 1223 518.327 Z" style="text-wrap-mode: nowrap; fill: rgb(160, 160, 160); stroke-width: 1;"/>
          <path d="M 1223 576 C 1221.48 576 1220.06 575.714 1218.73 575.143 C 1217.4 574.57 1216.23 573.782 1215.22 572.774 C 1214.22 571.769 1213.43 570.6 1212.86 569.27 C 1212.29 567.94 1212 566.517 1212 565 C 1212 563.483 1212.29 562.06 1212.86 560.73 C 1213.43 559.4 1214.22 558.229 1215.22 557.22 C 1216.23 556.209 1217.4 555.419 1218.73 554.852 C 1220.06 554.284 1221.48 554 1223 554 C 1224.52 554 1225.94 554.284 1227.27 554.852 C 1228.6 555.419 1229.77 556.209 1230.78 557.22 C 1231.78 558.229 1232.57 559.4 1233.14 560.73 C 1233.71 562.06 1234 563.483 1234 565 C 1234 566.517 1233.71 567.94 1233.14 569.27 C 1232.57 570.6 1231.78 571.769 1230.78 572.774 C 1229.77 573.782 1228.6 574.57 1227.27 575.143 C 1225.94 575.714 1224.52 576 1223 576 Z M 1223 574.167 C 1224.27 574.167 1225.45 573.929 1226.56 573.456 C 1227.67 572.98 1228.64 572.323 1229.48 571.482 C 1230.32 570.64 1230.98 569.665 1231.46 568.559 C 1231.93 567.452 1232.17 566.265 1232.17 565 C 1232.17 563.735 1231.93 562.547 1231.46 561.435 C 1230.98 560.324 1230.32 559.351 1229.48 558.512 C 1228.64 557.676 1227.67 557.02 1226.56 556.544 C 1225.45 556.071 1224.27 555.833 1223 555.833 C 1221.73 555.833 1220.55 556.071 1219.44 556.544 C 1218.33 557.02 1217.36 557.676 1216.52 558.512 C 1215.68 559.351 1215.02 560.324 1214.55 561.435 C 1214.07 562.547 1213.83 563.735 1213.83 565 C 1213.83 566.265 1214.07 567.452 1214.55 568.559 C 1215.02 569.665 1215.68 570.64 1216.52 571.482 C 1217.36 572.323 1218.33 572.98 1219.44 573.456 C 1220.55 573.929 1221.73 574.167 1223 574.167 Z M 1218.48 570.436 C 1218.24 570.549 1218.03 570.574 1217.85 570.51 C 1217.66 570.445 1217.54 570.322 1217.48 570.139 C 1217.41 569.955 1217.44 569.745 1217.55 569.507 L 1220.57 563.317 C 1220.75 562.964 1221 562.713 1221.32 562.563 L 1227.49 559.554 C 1227.87 559.374 1228.16 559.393 1228.38 559.608 C 1228.59 559.823 1228.6 560.115 1228.42 560.481 L 1225.42 566.661 C 1225.24 566.998 1224.99 567.247 1224.67 567.404 L 1218.48 570.436 Z M 1223 566.327 C 1223.36 566.327 1223.67 566.198 1223.93 565.938 C 1224.19 565.679 1224.32 565.367 1224.32 565 C 1224.32 564.634 1224.19 564.322 1223.93 564.067 C 1223.67 563.812 1223.36 563.684 1223 563.684 C 1222.63 563.684 1222.32 563.812 1222.06 564.067 C 1221.8 564.322 1221.67 564.634 1221.67 565 C 1221.67 565.367 1221.8 565.679 1222.06 565.938 C 1222.32 566.198 1222.63 566.327 1223 566.327 Z" style="text-wrap-mode: nowrap; fill: rgb(160, 160, 160); stroke-width: 1;"/>
          <path d="M 1223 624 C 1221.48 624 1220.06 623.714 1218.73 623.143 C 1217.4 622.57 1216.23 621.782 1215.22 620.774 C 1214.22 619.769 1213.43 618.6 1212.86 617.27 C 1212.29 615.94 1212 614.517 1212 613 C 1212 611.483 1212.29 610.06 1212.86 608.73 C 1213.43 607.4 1214.22 606.229 1215.22 605.22 C 1216.23 604.209 1217.4 603.419 1218.73 602.852 C 1220.06 602.284 1221.48 602 1223 602 C 1224.52 602 1225.94 602.284 1227.27 602.852 C 1228.6 603.419 1229.77 604.209 1230.78 605.22 C 1231.78 606.229 1232.57 607.4 1233.14 608.73 C 1233.71 610.06 1234 611.483 1234 613 C 1234 614.517 1233.71 615.94 1233.14 617.27 C 1232.57 618.6 1231.78 619.769 1230.78 620.774 C 1229.77 621.782 1228.6 622.57 1227.27 623.143 C 1225.94 623.714 1224.52 624 1223 624 Z M 1223 622.167 C 1224.27 622.167 1225.45 621.929 1226.56 621.456 C 1227.67 620.98 1228.64 620.323 1229.48 619.482 C 1230.32 618.64 1230.98 617.665 1231.46 616.559 C 1231.93 615.452 1232.17 614.265 1232.17 613 C 1232.17 611.735 1231.93 610.547 1231.46 609.435 C 1230.98 608.324 1230.32 607.351 1229.48 606.512 C 1228.64 605.676 1227.67 605.02 1226.56 604.544 C 1225.45 604.071 1224.27 603.833 1223 603.833 C 1221.73 603.833 1220.55 604.071 1219.44 604.544 C 1218.33 605.02 1217.36 605.676 1216.52 606.512 C 1215.68 607.351 1215.02 608.324 1214.55 609.435 C 1214.07 610.547 1213.83 611.735 1213.83 613 C 1213.83 614.265 1214.07 615.452 1214.55 616.559 C 1215.02 617.665 1215.68 618.64 1216.52 619.482 C 1217.36 620.323 1218.33 620.98 1219.44 621.456 C 1220.55 621.929 1221.73 622.167 1223 622.167 Z M 1218.48 618.436 C 1218.24 618.549 1218.03 618.574 1217.85 618.51 C 1217.66 618.445 1217.54 618.322 1217.48 618.139 C 1217.41 617.955 1217.44 617.745 1217.55 617.507 L 1220.57 611.317 C 1220.75 610.964 1221 610.713 1221.32 610.563 L 1227.49 607.554 C 1227.87 607.374 1228.16 607.393 1228.38 607.608 C 1228.59 607.823 1228.6 608.115 1228.42 608.481 L 1225.42 614.661 C 1225.24 614.998 1224.99 615.247 1224.67 615.404 L 1218.48 618.436 Z M 1223 614.327 C 1223.36 614.327 1223.67 614.198 1223.93 613.938 C 1224.19 613.679 1224.32 613.367 1224.32 613 C 1224.32 612.634 1224.19 612.322 1223.93 612.067 C 1223.67 611.812 1223.36 611.684 1223 611.684 C 1222.63 611.684 1222.32 611.812 1222.06 612.067 C 1221.8 612.322 1221.67 612.634 1221.67 613 C 1221.67 613.367 1221.8 613.679 1222.06 613.938 C 1222.32 614.198 1222.63 614.327 1223 614.327 Z" style="text-wrap-mode: nowrap; fill: rgb(160, 160, 160); stroke-width: 1;"/>
          <path d="M 1223 672 C 1221.48 672 1220.06 671.714 1218.73 671.143 C 1217.4 670.57 1216.23 669.782 1215.22 668.774 C 1214.22 667.769 1213.43 666.6 1212.86 665.27 C 1212.29 663.94 1212 662.517 1212 661 C 1212 659.483 1212.29 658.06 1212.86 656.73 C 1213.43 655.4 1214.22 654.229 1215.22 653.22 C 1216.23 652.209 1217.4 651.419 1218.73 650.852 C 1220.06 650.284 1221.48 650 1223 650 C 1224.52 650 1225.94 650.284 1227.27 650.852 C 1228.6 651.419 1229.77 652.209 1230.78 653.22 C 1231.78 654.229 1232.57 655.4 1233.14 656.73 C 1233.71 658.06 1234 659.483 1234 661 C 1234 662.517 1233.71 663.94 1233.14 665.27 C 1232.57 666.6 1231.78 667.769 1230.78 668.774 C 1229.77 669.782 1228.6 670.57 1227.27 671.143 C 1225.94 671.714 1224.52 672 1223 672 Z M 1223 670.167 C 1224.27 670.167 1225.45 669.929 1226.56 669.456 C 1227.67 668.98 1228.64 668.323 1229.48 667.482 C 1230.32 666.64 1230.98 665.665 1231.46 664.559 C 1231.93 663.452 1232.17 662.265 1232.17 661 C 1232.17 659.735 1231.93 658.547 1231.46 657.435 C 1230.98 656.324 1230.32 655.351 1229.48 654.512 C 1228.64 653.676 1227.67 653.02 1226.56 652.544 C 1225.45 652.071 1224.27 651.833 1223 651.833 C 1221.73 651.833 1220.55 652.071 1219.44 652.544 C 1218.33 653.02 1217.36 653.676 1216.52 654.512 C 1215.68 655.351 1215.02 656.324 1214.55 657.435 C 1214.07 658.547 1213.83 659.735 1213.83 661 C 1213.83 662.265 1214.07 663.452 1214.55 664.559 C 1215.02 665.665 1215.68 666.64 1216.52 667.482 C 1217.36 668.323 1218.33 668.98 1219.44 669.456 C 1220.55 669.929 1221.73 670.167 1223 670.167 Z M 1218.48 666.436 C 1218.24 666.549 1218.03 666.574 1217.85 666.51 C 1217.66 666.445 1217.54 666.322 1217.48 666.139 C 1217.41 665.955 1217.44 665.745 1217.55 665.507 L 1220.57 659.317 C 1220.75 658.964 1221 658.713 1221.32 658.563 L 1227.49 655.554 C 1227.87 655.374 1228.16 655.393 1228.38 655.608 C 1228.59 655.823 1228.6 656.115 1228.42 656.481 L 1225.42 662.661 C 1225.24 662.998 1224.99 663.247 1224.67 663.404 L 1218.48 666.436 Z M 1223 662.327 C 1223.36 662.327 1223.67 662.198 1223.93 661.938 C 1224.19 661.679 1224.32 661.367 1224.32 661 C 1224.32 660.634 1224.19 660.322 1223.93 660.067 C 1223.67 659.812 1223.36 659.684 1223 659.684 C 1222.63 659.684 1222.32 659.812 1222.06 660.067 C 1221.8 660.322 1221.67 660.634 1221.67 661 C 1221.67 661.367 1221.8 661.679 1222.06 661.938 C 1222.32 662.198 1222.63 662.327 1223 662.327 Z" style="text-wrap-mode: nowrap; fill: rgb(160, 160, 160); stroke-width: 1;"/>
          <path d="M 1223 720 C 1221.48 720 1220.06 719.714 1218.73 719.143 C 1217.4 718.57 1216.23 717.782 1215.22 716.774 C 1214.22 715.769 1213.43 714.6 1212.86 713.27 C 1212.29 711.94 1212 710.517 1212 709 C 1212 707.483 1212.29 706.06 1212.86 704.73 C 1213.43 703.4 1214.22 702.229 1215.22 701.22 C 1216.23 700.209 1217.4 699.419 1218.73 698.852 C 1220.06 698.284 1221.48 698 1223 698 C 1224.52 698 1225.94 698.284 1227.27 698.852 C 1228.6 699.419 1229.77 700.209 1230.78 701.22 C 1231.78 702.229 1232.57 703.4 1233.14 704.73 C 1233.71 706.06 1234 707.483 1234 709 C 1234 710.517 1233.71 711.94 1233.14 713.27 C 1232.57 714.6 1231.78 715.769 1230.78 716.774 C 1229.77 717.782 1228.6 718.57 1227.27 719.143 C 1225.94 719.714 1224.52 720 1223 720 Z M 1223 718.167 C 1224.27 718.167 1225.45 717.929 1226.56 717.456 C 1227.67 716.98 1228.64 716.323 1229.48 715.482 C 1230.32 714.64 1230.98 713.665 1231.46 712.559 C 1231.93 711.452 1232.17 710.265 1232.17 709 C 1232.17 707.735 1231.93 706.547 1231.46 705.435 C 1230.98 704.324 1230.32 703.351 1229.48 702.512 C 1228.64 701.676 1227.67 701.02 1226.56 700.544 C 1225.45 700.071 1224.27 699.833 1223 699.833 C 1221.73 699.833 1220.55 700.071 1219.44 700.544 C 1218.33 701.02 1217.36 701.676 1216.52 702.512 C 1215.68 703.351 1215.02 704.324 1214.55 705.435 C 1214.07 706.547 1213.83 707.735 1213.83 709 C 1213.83 710.265 1214.07 711.452 1214.55 712.559 C 1215.02 713.665 1215.68 714.64 1216.52 715.482 C 1217.36 716.323 1218.33 716.98 1219.44 717.456 C 1220.55 717.929 1221.73 718.167 1223 718.167 Z M 1218.48 714.436 C 1218.24 714.549 1218.03 714.574 1217.85 714.51 C 1217.66 714.445 1217.54 714.322 1217.48 714.139 C 1217.41 713.955 1217.44 713.745 1217.55 713.507 L 1220.57 707.317 C 1220.75 706.964 1221 706.713 1221.32 706.563 L 1227.49 703.554 C 1227.87 703.374 1228.16 703.393 1228.38 703.608 C 1228.59 703.823 1228.6 704.115 1228.42 704.481 L 1225.42 710.661 C 1225.24 710.998 1224.99 711.247 1224.67 711.404 L 1218.48 714.436 Z M 1223 710.327 C 1223.36 710.327 1223.67 710.198 1223.93 709.938 C 1224.19 709.679 1224.32 709.367 1224.32 709 C 1224.32 708.634 1224.19 708.322 1223.93 708.067 C 1223.67 707.812 1223.36 707.684 1223 707.684 C 1222.63 707.684 1222.32 707.812 1222.06 708.067 C 1221.8 708.322 1221.67 708.634 1221.67 709 C 1221.67 709.367 1221.8 709.679 1222.06 709.938 C 1222.32 710.198 1222.63 710.327 1223 710.327 Z" style="text-wrap-mode: nowrap; fill: rgb(160, 160, 160); stroke-width: 1;"/>
          <path d="M 1223 768 C 1221.48 768 1220.06 767.714 1218.73 767.143 C 1217.4 766.57 1216.23 765.782 1215.22 764.774 C 1214.22 763.769 1213.43 762.6 1212.86 761.27 C 1212.29 759.94 1212 758.517 1212 757 C 1212 755.483 1212.29 754.06 1212.86 752.73 C 1213.43 751.4 1214.22 750.229 1215.22 749.22 C 1216.23 748.209 1217.4 747.419 1218.73 746.852 C 1220.06 746.284 1221.48 746 1223 746 C 1224.52 746 1225.94 746.284 1227.27 746.852 C 1228.6 747.419 1229.77 748.209 1230.78 749.22 C 1231.78 750.229 1232.57 751.4 1233.14 752.73 C 1233.71 754.06 1234 755.483 1234 757 C 1234 758.517 1233.71 759.94 1233.14 761.27 C 1232.57 762.6 1231.78 763.769 1230.78 764.774 C 1229.77 765.782 1228.6 766.57 1227.27 767.143 C 1225.94 767.714 1224.52 768 1223 768 Z M 1223 766.167 C 1224.27 766.167 1225.45 765.929 1226.56 765.456 C 1227.67 764.98 1228.64 764.323 1229.48 763.482 C 1230.32 762.64 1230.98 761.665 1231.46 760.559 C 1231.93 759.452 1232.17 758.265 1232.17 757 C 1232.17 755.735 1231.93 754.547 1231.46 753.435 C 1230.98 752.324 1230.32 751.351 1229.48 750.512 C 1228.64 749.676 1227.67 749.02 1226.56 748.544 C 1225.45 748.071 1224.27 747.833 1223 747.833 C 1221.73 747.833 1220.55 748.071 1219.44 748.544 C 1218.33 749.02 1217.36 749.676 1216.52 750.512 C 1215.68 751.351 1215.02 752.324 1214.55 753.435 C 1214.07 754.547 1213.83 755.735 1213.83 757 C 1213.83 758.265 1214.07 759.452 1214.55 760.559 C 1215.02 761.665 1215.68 762.64 1216.52 763.482 C 1217.36 764.323 1218.33 764.98 1219.44 765.456 C 1220.55 765.929 1221.73 766.167 1223 766.167 Z M 1218.48 762.436 C 1218.24 762.549 1218.03 762.574 1217.85 762.51 C 1217.66 762.445 1217.54 762.322 1217.48 762.139 C 1217.41 761.955 1217.44 761.745 1217.55 761.507 L 1220.57 755.317 C 1220.75 754.964 1221 754.713 1221.32 754.563 L 1227.49 751.554 C 1227.87 751.374 1228.16 751.393 1228.38 751.608 C 1228.59 751.823 1228.6 752.115 1228.42 752.481 L 1225.42 758.661 C 1225.24 758.998 1224.99 759.247 1224.67 759.404 L 1218.48 762.436 Z M 1223 758.327 C 1223.36 758.327 1223.67 758.198 1223.93 757.938 C 1224.19 757.679 1224.32 757.367 1224.32 757 C 1224.32 756.634 1224.19 756.322 1223.93 756.067 C 1223.67 755.812 1223.36 755.684 1223 755.684 C 1222.63 755.684 1222.32 755.812 1222.06 756.067 C 1221.8 756.322 1221.67 756.634 1221.67 757 C 1221.67 757.367 1221.8 757.679 1222.06 757.938 C 1222.32 758.198 1222.63 758.327 1223 758.327 Z" style="text-wrap-mode: nowrap; fill: rgb(160, 160, 160); stroke-width: 1;"/>
          <path d="M 1223 816 C 1221.48 816 1220.06 815.714 1218.73 815.143 C 1217.4 814.57 1216.23 813.782 1215.22 812.774 C 1214.22 811.769 1213.43 810.6 1212.86 809.27 C 1212.29 807.94 1212 806.517 1212 805 C 1212 803.483 1212.29 802.06 1212.86 800.73 C 1213.43 799.4 1214.22 798.229 1215.22 797.22 C 1216.23 796.209 1217.4 795.419 1218.73 794.852 C 1220.06 794.284 1221.48 794 1223 794 C 1224.52 794 1225.94 794.284 1227.27 794.852 C 1228.6 795.419 1229.77 796.209 1230.78 797.22 C 1231.78 798.229 1232.57 799.4 1233.14 800.73 C 1233.71 802.06 1234 803.483 1234 805 C 1234 806.517 1233.71 807.94 1233.14 809.27 C 1232.57 810.6 1231.78 811.769 1230.78 812.774 C 1229.77 813.782 1228.6 814.57 1227.27 815.143 C 1225.94 815.714 1224.52 816 1223 816 Z M 1223 814.167 C 1224.27 814.167 1225.45 813.929 1226.56 813.456 C 1227.67 812.98 1228.64 812.323 1229.48 811.482 C 1230.32 810.64 1230.98 809.665 1231.46 808.559 C 1231.93 807.452 1232.17 806.265 1232.17 805 C 1232.17 803.735 1231.93 802.547 1231.46 801.435 C 1230.98 800.324 1230.32 799.351 1229.48 798.512 C 1228.64 797.676 1227.67 797.02 1226.56 796.544 C 1225.45 796.071 1224.27 795.833 1223 795.833 C 1221.73 795.833 1220.55 796.071 1219.44 796.544 C 1218.33 797.02 1217.36 797.676 1216.52 798.512 C 1215.68 799.351 1215.02 800.324 1214.55 801.435 C 1214.07 802.547 1213.83 803.735 1213.83 805 C 1213.83 806.265 1214.07 807.452 1214.55 808.559 C 1215.02 809.665 1215.68 810.64 1216.52 811.482 C 1217.36 812.323 1218.33 812.98 1219.44 813.456 C 1220.55 813.929 1221.73 814.167 1223 814.167 Z M 1218.48 810.436 C 1218.24 810.549 1218.03 810.574 1217.85 810.51 C 1217.66 810.445 1217.54 810.322 1217.48 810.139 C 1217.41 809.955 1217.44 809.745 1217.55 809.507 L 1220.57 803.317 C 1220.75 802.964 1221 802.713 1221.32 802.563 L 1227.49 799.554 C 1227.87 799.374 1228.16 799.393 1228.38 799.608 C 1228.59 799.823 1228.6 800.115 1228.42 800.481 L 1225.42 806.661 C 1225.24 806.998 1224.99 807.247 1224.67 807.404 L 1218.48 810.436 Z M 1223 806.327 C 1223.36 806.327 1223.67 806.198 1223.93 805.938 C 1224.19 805.679 1224.32 805.367 1224.32 805 C 1224.32 804.634 1224.19 804.322 1223.93 804.067 C 1223.67 803.812 1223.36 803.684 1223 803.684 C 1222.63 803.684 1222.32 803.812 1222.06 804.067 C 1221.8 804.322 1221.67 804.634 1221.67 805 C 1221.67 805.367 1221.8 805.679 1222.06 805.938 C 1222.32 806.198 1222.63 806.327 1223 806.327 Z" style="text-wrap-mode: nowrap; fill: rgb(160, 160, 160); stroke-width: 1;"/>
        </g>
      </g>
      <text style="fill: rgb(142, 142, 146); font-family: Arial, sans-serif; font-size: 23px; letter-spacing: 0.2px; stroke: rgb(139, 139, 142); white-space: pre; stroke-width: 1;" x="348.516" y="880.035">note: New Domains are added in Safari via the "JS Blocker" pop-up.</text>
    </g>
    <g>
      <rect style="filter: url(&quot;#filter-1&quot;); fill: rgb(97, 97, 97); stroke-width: 1;" x="568" y="927" width="268" height="39" rx="10" ry="10"/>
      <text style="fill: rgb(255, 255, 255); font-family: Arial, sans-serif; font-size: 27px; white-space: pre; stroke-width: 1;" x="664.633" y="954.146">delete</text>
    </g>
  </g>
</svg>