<?xml version="1.0" encoding="utf-8"?>
<svg viewBox="0 0 2560 1600" xmlns="http://www.w3.org/2000/svg" xmlns:bx="https://boxy-svg.com">
  <defs>
    <filter id="filter-2" color-interpolation-filters="sRGB" x="-50%" y="-50%" width="200%" height="200%" bx:preset="drop-shadow 1 0 1 2 0.5 rgba(0,0,0,0.3)">
      <feGaussianBlur in="SourceAlpha" stdDeviation="2"/>
      <feOffset dx="0" dy="1"/>
      <feComponentTransfer result="offsetblur">
        <feFuncA id="feFuncA-2" type="linear" slope="1"/>
      </feComponentTransfer>
      <feFlood flood-color="rgba(0,0,0,0.3)"/>
      <feComposite in2="offsetblur" operator="in"/>
      <feMerge>
        <feMergeNode/>
        <feMergeNode in="SourceGraphic"/>
      </feMerge>
    </filter>
    <filter id="filter-1" color-interpolation-filters="sRGB" x="-50%" y="-50%" width="200%" height="200%" bx:preset="drop-shadow 1 0 1 2 0.5 rgba(0,0,0,0.3)">
      <feGaussianBlur in="SourceAlpha" stdDeviation="2"/>
      <feOffset dx="0" dy="1"/>
      <feComponentTransfer result="offsetblur">
        <feFuncA id="feFuncA-1" type="linear" slope="1"/>
      </feComponentTransfer>
      <feFlood flood-color="rgba(0,0,0,0.3)"/>
      <feComposite in2="offsetblur" operator="in"/>
      <feMerge>
        <feMergeNode/>
        <feMergeNode in="SourceGraphic"/>
      </feMerge>
    </filter>
    <clipPath id="clip-0">
      <path style="filter: none;" d="M 120.5 100.5 H 1283.5 A 19 19 0 0 1 1302.5 119.5 V 170.5 H 101.5 V 119.5 A 19 19 0 0 1 120.5 100.5 Z" bx:shape="rect 101.5 100.5 1201 70 19 19 0 0 1@526a241e"/>
    </clipPath>
    <filter id="filter-3" color-interpolation-filters="sRGB" x="-50%" y="-50%" width="200%" height="200%" bx:preset="drop-shadow 1 0 1 1 0.5 rgba(0,0,0,0.3)">
      <feGaussianBlur in="SourceAlpha" stdDeviation="1"/>
      <feOffset dx="0" dy="1"/>
      <feComponentTransfer result="offsetblur">
        <feFuncA id="feFuncA-2" type="linear" slope="1"/>
      </feComponentTransfer>
      <feFlood flood-color="rgba(0,0,0,0.3)"/>
      <feComposite in2="offsetblur" operator="in"/>
      <feMerge>
        <feMergeNode/>
        <feMergeNode in="SourceGraphic"/>
      </feMerge>
    </filter>
    <filter id="drop-shadow-filter-0" color-interpolation-filters="sRGB" x="-50%" y="-50%" width="200%" height="200%" bx:preset="drop-shadow 1 0 1 2 0.5 rgba(0,0,0,0.3)">
      <feGaussianBlur in="SourceAlpha" stdDeviation="2"/>
      <feOffset dx="0" dy="1"/>
      <feComponentTransfer result="offsetblur">
        <feFuncA id="spread-ctrl" type="linear" slope="1"/>
      </feComponentTransfer>
      <feFlood flood-color="rgba(0,0,0,0.3)"/>
      <feComposite in2="offsetblur" operator="in"/>
      <feMerge>
        <feMergeNode/>
        <feMergeNode in="SourceGraphic"/>
      </feMerge>
    </filter>
    <filter id="filter-5" color-interpolation-filters="sRGB" x="-50%" y="-50%" width="200%" height="200%" bx:preset="drop-shadow 1 0 1 2 0.5 rgba(0,0,0,0.3)">
      <feGaussianBlur in="SourceAlpha" stdDeviation="2"/>
      <feOffset dx="0" dy="1"/>
      <feComponentTransfer result="offsetblur">
        <feFuncA id="feFuncA-3" type="linear" slope="1"/>
      </feComponentTransfer>
      <feFlood flood-color="rgba(0,0,0,0.3)"/>
      <feComposite in2="offsetblur" operator="in"/>
      <feMerge>
        <feMergeNode/>
        <feMergeNode in="SourceGraphic"/>
      </feMerge>
    </filter>
    <clipPath id="clip-1">
      <path style="filter: none;" d="M 120.5 100.5 H 1283.5 A 19 19 0 0 1 1302.5 119.5 V 170.5 H 101.5 V 119.5 A 19 19 0 0 1 120.5 100.5 Z" bx:shape="rect 101.5 100.5 1201 70 19 19 0 0 1@526a241e"/>
    </clipPath>
    <filter id="drop-shadow-filter-1" color-interpolation-filters="sRGB" x="-50%" y="-50%" width="200%" height="200%" bx:preset="drop-shadow 1 0 2 1 0.5 rgba(0,0,0,0.3)">
      <feGaussianBlur in="SourceAlpha" stdDeviation="1"/>
      <feOffset dx="0" dy="2"/>
      <feComponentTransfer result="offsetblur">
        <feFuncA id="spread-ctrl" type="linear" slope="1"/>
      </feComponentTransfer>
      <feFlood flood-color="rgba(0,0,0,0.3)"/>
      <feComposite in2="offsetblur" operator="in"/>
      <feMerge>
        <feMergeNode/>
        <feMergeNode in="SourceGraphic"/>
      </feMerge>
    </filter>
    <filter id="drop-shadow-filter-2" color-interpolation-filters="sRGB" x="-50%" y="-50%" width="200%" height="200%" bx:preset="drop-shadow 1 0 10 20 0.4 rgba(0,0,0,0.3)">
      <feGaussianBlur in="SourceAlpha" stdDeviation="20"/>
      <feOffset dx="0" dy="10"/>
      <feComponentTransfer result="offsetblur">
        <feFuncA id="spread-ctrl" type="linear" slope="0.8"/>
      </feComponentTransfer>
      <feFlood flood-color="rgba(0,0,0,0.3)"/>
      <feComposite in2="offsetblur" operator="in"/>
      <feMerge>
        <feMergeNode/>
        <feMergeNode in="SourceGraphic"/>
      </feMerge>
    </filter>
    <filter id="drop-shadow-filter-3" color-interpolation-filters="sRGB" x="-50%" y="-50%" width="200%" height="200%" bx:preset="drop-shadow 1 0 10 20 0.4 rgba(0,0,0,0.3)">
      <feGaussianBlur in="SourceAlpha" stdDeviation="20"/>
      <feOffset dx="0" dy="10"/>
      <feComponentTransfer result="offsetblur">
        <feFuncA id="spread-ctrl" type="linear" slope="0.8"/>
      </feComponentTransfer>
      <feFlood flood-color="rgba(0,0,0,0.3)"/>
      <feComposite in2="offsetblur" operator="in"/>
      <feMerge>
        <feMergeNode/>
        <feMergeNode in="SourceGraphic"/>
      </feMerge>
    </filter>
    <bx:export>
      <bx:file format="png" path="screen-3.png"/>
    </bx:export>
  </defs>
  <rect width="1280" height="1600" style="fill: rgb(227, 228, 229);"/>
  <rect width="1280" height="1600" style="fill: rgb(84, 85, 84);" x="1280"/>
  <g transform="matrix(1, 0, 0, 1, -62.000004, 279)" style="filter: url('#drop-shadow-filter-2');">
    <rect style="stroke: rgb(198, 198, 198); filter: none; fill: rgb(245, 245, 245);" x="101" y="100" width="1202" height="841" rx="20" ry="20"/>
    <g>
      <path style="fill: rgb(250, 250, 250); clip-path: url('#clip-0'); filter: url('#filter-3');" d="M 120.5 100.5 H 1283.5 A 19 19 0 0 1 1302.5 119.5 V 157.5 H 101.5 V 119.5 A 19 19 0 0 1 120.5 100.5 Z" bx:shape="rect 101.5 100.5 1201 57 19 19 0 0 1@b8bb7788"/>
      <g>
        <ellipse style="fill: rgb(255, 94, 87); stroke: rgb(226, 65, 56); filter: none;" cx="130" cy="129.646" rx="12" ry="12"/>
        <ellipse style="fill: rgb(253, 188, 46); stroke: rgb(224, 157, 28); filter: none;" cx="170" cy="129.646" rx="12" ry="12"/>
        <ellipse style="fill: rgb(37, 199, 66); stroke: rgb(37, 172, 45); filter: none;" cx="210" cy="129.646" rx="12" ry="12"/>
      </g>
      <text style="fill: rgb(74, 74, 74); font-family: Arial, sans-serif; font-size: 26px; font-weight: 700; white-space: pre;" transform="matrix(1, 0, 0, 1, 88.321892, 3.082367)"><tspan x="544.678" y="134.145">JS Blocker</tspan><tspan x="544.678" dy="1em">​</tspan></text>
    </g>
    <g>
      <text style="fill: rgb(37, 37, 37); font-family: Arial, sans-serif; font-size: 32px; font-weight: 700; white-space: pre;" x="418.18" y="230.862">Domains where JavaScript is allowed</text>
      <g>
        <rect style="fill: rgb(255, 255, 255); filter: url('#filter-2');" x="1198" y="201" width="64" height="41" rx="10" ry="10"/>
        <path d="M 1238.985 210.893 L 1241.107 213.015 L 1238.773 217.045 L 1238.481 217.337 C 1238.725 217.802 1238.928 218.291 1239.088 218.8 L 1239.5 218.8 L 1244 220 L 1244 223 L 1239.5 224.2 L 1239.088 224.2 C 1238.928 224.709 1238.725 225.198 1238.481 225.663 L 1238.773 225.955 L 1241.107 229.985 L 1238.985 232.107 L 1234.955 229.773 L 1234.663 229.481 C 1234.198 229.725 1233.709 229.928 1233.2 230.088 L 1233.2 230.5 L 1232 235 L 1229 235 L 1227.8 230.5 L 1227.8 230.088 C 1227.291 229.928 1226.802 229.725 1226.337 229.481 L 1226.045 229.773 L 1222.015 232.107 L 1219.893 229.985 L 1222.227 225.955 L 1222.519 225.663 C 1222.275 225.198 1222.072 224.709 1221.912 224.2 L 1221.5 224.2 L 1217 223 L 1217 220 L 1221.5 218.8 L 1221.912 218.8 C 1222.072 218.291 1222.275 217.802 1222.519 217.337 L 1222.227 217.045 L 1219.893 213.015 L 1222.015 210.893 L 1226.045 213.227 L 1226.337 213.519 C 1226.802 213.275 1227.291 213.072 1227.8 212.912 L 1227.8 212.5 L 1229 208 L 1232 208 L 1233.2 212.5 L 1233.2 212.912 C 1233.709 213.072 1234.198 213.275 1234.663 213.519 L 1234.955 213.227 L 1238.985 210.893 Z M 1230.5 216.5 C 1227.739 216.5 1225.5 218.739 1225.5 221.5 C 1225.5 224.261 1227.739 226.5 1230.5 226.5 C 1233.261 226.5 1235.5 224.261 1235.5 221.5 C 1235.5 218.739 1233.261 216.5 1230.5 216.5 Z" style="fill: rgb(38, 38, 38);"/>
      </g>
    </g>
    <g>
      <rect x="143" y="281" width="1118" height="489" style="fill: rgb(255, 255, 255); stroke-width: 2px; stroke: rgb(220, 220, 220);"/>
      <g>
        <text style="fill: rgb(39, 39, 39); font-family: Arial, sans-serif; font-size: 23px; white-space: pre;" x="165" y="317.402">domain name</text>
        <line style="fill: rgb(216, 216, 216); stroke-width: 2px; stroke: rgb(229, 229, 229);" x1="951" y1="290" x2="951" y2="321"/>
        <text style="fill: rgb(39, 39, 39); font-family: Arial, sans-serif; font-size: 23px; letter-spacing: 0.4px; white-space: pre;" x="1014" y="317.802">with subdomains?</text>
        <line style="fill: rgb(216, 216, 216); stroke-width: 2px; stroke: rgb(220, 220, 220);" x1="144" y1="337" x2="1260" y2="337"/>
      </g>
      <g>
        <g>
          <rect x="144" y="338" width="1116" height="49" style="fill: rgb(118, 75, 178);"/>
          <text style="fill: rgb(255, 255, 255); font-family: Arial, sans-serif; font-size: 27px; white-space: pre;" x="159.408" y="371.756">example.com</text>
          <text style="fill: rgb(255, 255, 255); font-family: Arial, sans-serif; font-size: 27px; white-space: pre;" x="1086.745" y="371.756">yes</text>
        </g>
        <rect x="144" y="385" width="1116" height="48" style="fill: rgb(244, 245, 245);"/>
        <rect x="144" y="481" width="1116" height="48" style="fill: rgb(244, 245, 245);"/>
        <rect x="144" y="577" width="1116" height="48" style="fill: rgb(244, 245, 245);"/>
        <rect x="144" y="673" width="1116" height="48" style="fill: rgb(244, 245, 245);"/>
        <line style="fill: rgb(216, 216, 216); stroke-width: 2px; stroke: rgb(220, 220, 220);" x1="951" y1="338" x2="951" y2="769"/>
      </g>
      <text style="fill: rgb(142, 142, 146); font-family: Arial, sans-serif; font-size: 23px; letter-spacing: 0.2px; white-space: pre;" x="348.516" y="808.803">note: New Domains are added in Safari via the "JS Blocker" pop-up.</text>
    </g>
    <g>
      <rect style="fill: rgb(255, 255, 255); filter: url('#filter-1');" x="568" y="853" width="268" height="39" rx="10" ry="10"/>
      <text style="fill: rgb(38, 38, 38); font-family: Arial, sans-serif; font-size: 27px; white-space: pre;" x="664.633" y="880.146">delete</text>
    </g>
  </g>
  <g transform="matrix(1, 0, 0, 1, 1218, 279)" style="filter: url('#drop-shadow-filter-3');">
    <rect style="fill: rgb(44, 44, 44); stroke: rgb(114, 114, 114); filter: none;" x="101" y="100" width="1202" height="841" rx="20" ry="20"/>
    <g>
      <path style="filter: url('#drop-shadow-filter-1'); fill: rgb(58, 58, 58); clip-path: url('#clip-1');" d="M 120.5 100.5 H 1283.5 A 19 19 0 0 1 1302.5 119.5 V 157.5 H 101.5 V 119.5 A 19 19 0 0 1 120.5 100.5 Z" bx:shape="rect 101.5 100.5 1201 57 19 19 0 0 1@b8bb7788"/>
      <g>
        <ellipse style="fill: rgb(255, 94, 87); stroke: rgb(226, 65, 56); filter: none;" cx="130" cy="129.646" rx="12" ry="12"/>
        <ellipse style="fill: rgb(253, 188, 46); stroke: rgb(224, 157, 28); filter: none;" cx="170" cy="129.646" rx="12" ry="12"/>
        <ellipse style="fill: rgb(37, 199, 66); stroke: rgb(37, 172, 45); filter: none;" cx="210" cy="129.646" rx="12" ry="12"/>
      </g>
      <text style="fill: rgb(182, 182, 182); font-family: Arial, sans-serif; font-size: 26px; font-weight: 700; white-space: pre;" transform="matrix(1, 0, 0, 1, 88.321892, 3.082367)"><tspan x="544.678" y="134.145">JS Blocker</tspan><tspan x="544.678" dy="1em">​</tspan></text>
    </g>
    <g>
      <text style="fill: rgb(223, 223, 223); font-family: Arial, sans-serif; font-size: 32px; font-weight: 700; white-space: pre;" x="418.18" y="230.862">Domains where JavaScript is allowed</text>
      <g>
        <rect style="filter: url('#drop-shadow-filter-0'); fill: rgb(97, 97, 97);" x="1198" y="201" width="64" height="41" rx="10" ry="10"/>
        <path d="M 1238.985 210.893 L 1241.107 213.015 L 1238.773 217.045 L 1238.481 217.337 C 1238.725 217.802 1238.928 218.291 1239.088 218.8 L 1239.5 218.8 L 1244 220 L 1244 223 L 1239.5 224.2 L 1239.088 224.2 C 1238.928 224.709 1238.725 225.198 1238.481 225.663 L 1238.773 225.955 L 1241.107 229.985 L 1238.985 232.107 L 1234.955 229.773 L 1234.663 229.481 C 1234.198 229.725 1233.709 229.928 1233.2 230.088 L 1233.2 230.5 L 1232 235 L 1229 235 L 1227.8 230.5 L 1227.8 230.088 C 1227.291 229.928 1226.802 229.725 1226.337 229.481 L 1226.045 229.773 L 1222.015 232.107 L 1219.893 229.985 L 1222.227 225.955 L 1222.519 225.663 C 1222.275 225.198 1222.072 224.709 1221.912 224.2 L 1221.5 224.2 L 1217 223 L 1217 220 L 1221.5 218.8 L 1221.912 218.8 C 1222.072 218.291 1222.275 217.802 1222.519 217.337 L 1222.227 217.045 L 1219.893 213.015 L 1222.015 210.893 L 1226.045 213.227 L 1226.337 213.519 C 1226.802 213.275 1227.291 213.072 1227.8 212.912 L 1227.8 212.5 L 1229 208 L 1232 208 L 1233.2 212.5 L 1233.2 212.912 C 1233.709 213.072 1234.198 213.275 1234.663 213.519 L 1234.955 213.227 L 1238.985 210.893 Z M 1230.5 216.5 C 1227.739 216.5 1225.5 218.739 1225.5 221.5 C 1225.5 224.261 1227.739 226.5 1230.5 226.5 C 1233.261 226.5 1235.5 224.261 1235.5 221.5 C 1235.5 218.739 1233.261 216.5 1230.5 216.5 Z" style="fill: rgb(231, 231, 231);"/>
      </g>
    </g>
    <g>
      <rect x="143" y="281" width="1118" height="489" style="stroke-width: 2px; fill: rgb(35, 35, 35); stroke: rgb(65, 65, 65);"/>
      <g>
        <text style="fill: rgb(255, 255, 255); font-family: Arial, sans-serif; font-size: 23px; stroke: rgb(65, 65, 65); white-space: pre;" x="165" y="317.402">domain name</text>
        <line style="stroke-width: 2px; fill: rgb(114, 42, 190); stroke: rgb(65, 65, 65);" x1="951" y1="290" x2="951" y2="321"/>
        <text style="fill: rgb(255, 255, 255); font-family: Arial, sans-serif; font-size: 23px; letter-spacing: 0.4px; stroke: rgb(65, 65, 65); white-space: pre;" x="1014" y="317.802">with subdomains?</text>
        <line style="fill: rgb(216, 216, 216); stroke-width: 2px; stroke: rgb(65, 65, 65);" x1="144" y1="337" x2="1260" y2="337"/>
      </g>
      <g>
        <g>
          <rect x="144" y="338" width="1116" height="49" style="fill: rgb(105, 65, 162);"/>
          <text style="fill: rgb(255, 255, 255); font-family: Arial, sans-serif; font-size: 27px; white-space: pre;" x="159.408" y="371.756">example.com</text>
          <text style="fill: rgb(255, 255, 255); font-family: Arial, sans-serif; font-size: 27px; white-space: pre;" x="1086.74" y="371.756">yes</text>
        </g>
        <rect x="144" y="385" width="1116" height="48" style="fill: rgb(45, 45, 45);"/>
        <rect x="144" y="481" width="1116" height="48" style="fill: rgb(45, 45, 45);"/>
        <rect x="144" y="577" width="1116" height="48" style="fill: rgb(45, 45, 45);"/>
        <rect x="144" y="673" width="1116" height="48" style="fill: rgb(45, 45, 45);"/>
        <line style="fill: rgb(216, 216, 216); stroke-width: 2px; stroke: rgb(65, 65, 65);" x1="951" y1="338" x2="951" y2="769"/>
      </g>
      <text style="fill: rgb(142, 142, 146); font-family: Arial, sans-serif; font-size: 23px; letter-spacing: 0.2px; stroke: rgb(139, 139, 142); white-space: pre;" x="348.516" y="808.803">note: New Domains are added in Safari via the "JS Blocker" pop-up.</text>
    </g>
    <g>
      <rect style="fill: rgb(97, 97, 97); filter: url('#filter-5');" x="568" y="853" width="268" height="39" rx="10" ry="10"/>
      <text style="fill: rgb(255, 255, 255); font-family: Arial, sans-serif; font-size: 27px; white-space: pre;" x="664.633" y="880.146">delete</text>
    </g>
  </g>
</svg>