<?xml version="1.0" encoding="utf-8"?>
<svg viewBox="0 0 2560 1600" xmlns="http://www.w3.org/2000/svg" xmlns:bx="https://boxy-svg.com">
  <defs>
    <bx:export>
      <bx:file format="png" path="screen-2.png"/>
    </bx:export>
    <filter id="filter-3" color-interpolation-filters="sRGB" x="-50%" y="-50%" width="200%" height="200%" bx:preset="drop-shadow 1 0 10 20 0.4 rgba(0,0,0,0.3)">
      <feGaussianBlur in="SourceAlpha" stdDeviation="20"/>
      <feOffset dx="0" dy="10"/>
      <feComponentTransfer result="offsetblur">
        <feFuncA id="spread-ctrl" type="linear" slope="0.8"/>
      </feComponentTransfer>
      <feFlood flood-color="rgba(0,0,0,0.3)"/>
      <feComposite in2="offsetblur" operator="in"/>
      <feMerge>
        <feMergeNode/>
        <feMergeNode in="SourceGraphic"/>
      </feMerge>
    </filter>
    <linearGradient gradientUnits="userSpaceOnUse" x1="5.729" y1="2.612" x2="5.729" y2="12.637" id="gradient-1" gradientTransform="matrix(3.192264, 0, 0, 3.192264, -12.553222, -8.338209)">
      <stop offset="0" style="stop-color: rgb(208, 207, 0);"/>
      <stop offset="1" style="stop-color: rgb(175, 121, 0);"/>
    </linearGradient>
    <linearGradient gradientUnits="userSpaceOnUse" x1="5.729" y1="2.612" x2="5.729" y2="12.637" id="gradient-3" gradientTransform="matrix(1.420133, 0, 0, 1.444835, -2.406938, -2.935051)">
      <stop offset="0" style="stop-color: rgb(208, 207, 0);"/>
      <stop offset="1" style="stop-color: rgb(175, 121, 0);"/>
    </linearGradient>
    <filter id="window-shadow" color-interpolation-filters="sRGB" x="-50%" y="-50%" width="200%" height="200%" bx:preset="drop-shadow 1 0 10 20 0.4 rgba(0,0,0,0.3)">
      <feGaussianBlur in="SourceAlpha" stdDeviation="20"/>
      <feOffset dx="0" dy="10"/>
      <feComponentTransfer result="offsetblur">
        <feFuncA id="feFuncA-2" type="linear" slope="0.8"/>
      </feComponentTransfer>
      <feFlood flood-color="rgba(0,0,0,0.3)"/>
      <feComposite in2="offsetblur" operator="in"/>
      <feMerge>
        <feMergeNode/>
        <feMergeNode in="SourceGraphic"/>
      </feMerge>
    </filter>
    <linearGradient gradientUnits="userSpaceOnUse" x1="5.729" y1="2.612" x2="5.729" y2="12.637" id="gradient-4" gradientTransform="matrix(3.192264, 0, 0, 3.192264, -12.553222, -8.338209)">
      <stop offset="0" style="stop-color: rgb(208, 207, 0);"/>
      <stop offset="1" style="stop-color: rgb(175, 121, 0);"/>
    </linearGradient>
    <linearGradient gradientUnits="userSpaceOnUse" x1="5.729" y1="2.612" x2="5.729" y2="12.637" id="gradient-7" gradientTransform="matrix(1.420133, 0, 0, 1.444835, -2.406938, -2.935051)">
      <stop offset="0" style="stop-color: rgb(208, 207, 0);"/>
      <stop offset="1" style="stop-color: rgb(175, 121, 0);"/>
    </linearGradient>
    <filter id="filter-1" color-interpolation-filters="sRGB" x="-50%" y="-50%" width="200%" height="200%" bx:preset="drop-shadow 1 0 0 10 0.4 rgba(0,0,0,0.3)">
      <feGaussianBlur in="SourceAlpha" stdDeviation="10"/>
      <feOffset dx="0" dy="0"/>
      <feComponentTransfer result="offsetblur">
        <feFuncA id="feFuncA-1" type="linear" slope="0.8"/>
      </feComponentTransfer>
      <feFlood flood-color="rgba(0,0,0,0.3)"/>
      <feComposite in2="offsetblur" operator="in"/>
      <feMerge>
        <feMergeNode/>
        <feMergeNode in="SourceGraphic"/>
      </feMerge>
    </filter>
    <linearGradient gradientUnits="userSpaceOnUse" x1="100" y1="0" x2="100" y2="50" id="gradient-9" gradientTransform="matrix(1.499983, -0.006948, 0.006957, 1.499999, 350.002808, 359.910095)">
      <stop offset="0" style="stop-color: rgb(161, 142, 248);"/>
      <stop offset="1" style="stop-color: rgb(141, 88, 197);"/>
    </linearGradient>
    <linearGradient gradientUnits="userSpaceOnUse" x1="100" y1="0" x2="100" y2="50" id="gradient-11" gradientTransform="matrix(1.499983, -0.006948, 0.006957, 1.499999, 350.002808, 813.694214)">
      <stop offset="0" style="stop-color: rgb(161, 142, 248);"/>
      <stop offset="1" style="stop-color: rgb(141, 88, 197);"/>
    </linearGradient>
    <linearGradient gradientUnits="userSpaceOnUse" x1="100" y1="0" x2="100" y2="50" id="gradient-13" gradientTransform="matrix(2.245, 0, 0, 1.498901, 275.500732, 1012.020813)">
      <stop offset="0" style="stop-color: rgb(1, 199, 227);"/>
      <stop offset="1" style="stop-color: rgb(0, 136, 175);"/>
    </linearGradient>
    <filter id="filter-2" color-interpolation-filters="sRGB" x="-50%" y="-50%" width="200%" height="200%" bx:preset="drop-shadow 1 0 0 10 0.4 rgba(0,0,0,0.3)">
      <feGaussianBlur in="SourceAlpha" stdDeviation="10"/>
      <feOffset dx="0" dy="0"/>
      <feComponentTransfer result="offsetblur">
        <feFuncA id="feFuncA-3" type="linear" slope="0.8"/>
      </feComponentTransfer>
      <feFlood flood-color="rgba(0,0,0,0.3)"/>
      <feComposite in2="offsetblur" operator="in"/>
      <feMerge>
        <feMergeNode/>
        <feMergeNode in="SourceGraphic"/>
      </feMerge>
    </filter>
    <linearGradient gradientUnits="userSpaceOnUse" x1="100" y1="0" x2="100" y2="50" id="gradient-5" gradientTransform="matrix(1.499983, -0.006948, 0.006957, 1.499999, 350.002808, 359.910095)">
      <stop offset="0" style="stop-color: rgb(161, 142, 248);"/>
      <stop offset="1" style="stop-color: rgb(141, 88, 197);"/>
    </linearGradient>
    <linearGradient gradientUnits="userSpaceOnUse" x1="100" y1="0" x2="100" y2="50" id="gradient-6" gradientTransform="matrix(1.499983, -0.006948, 0.006957, 1.499999, 350.002808, 813.694222)">
      <stop offset="0" style="stop-color: rgb(161, 142, 248);"/>
      <stop offset="1" style="stop-color: rgb(141, 88, 197);"/>
    </linearGradient>
    <linearGradient gradientUnits="userSpaceOnUse" x1="100" y1="0" x2="100" y2="50" id="gradient-10" gradientTransform="matrix(2.245, 0, 0, 1.498901, 275.500732, 1012.020813)">
      <stop offset="0" style="stop-color: rgb(1, 199, 227);"/>
      <stop offset="1" style="stop-color: rgb(0, 136, 175);"/>
    </linearGradient>
  </defs>
  <g>
    <rect width="1280" height="1600" style="fill: rgb(227, 228, 229);"/>
    <g style="filter: url(&quot;#filter-3&quot;);" transform="matrix(1, 0, 0, 1, 178.999969, 55.000023)">
      <path style="fill: rgb(243, 243, 243); stroke: rgb(198, 198, 198);" d="M 145 102 H 1055 A 20 20 0 0 1 1075 122 V 206 H 125 V 122 A 20 20 0 0 1 145 102 Z" bx:shape="rect 125 102 950 104 20 20 0 0 1@3110c5bc"/>
      <path style="fill: rgb(255, 255, 255); stroke: rgb(198, 198, 198);" d="M 125 206 H 1075 V 315 A 20 20 0 0 1 1055 335 H 145 A 20 20 0 0 1 125 315 V 206 Z" bx:shape="rect 125 206 950 129 0 0 20 20 1@731078df"/>
      <g>
        <ellipse style="fill: rgb(255, 94, 87); stroke: rgb(226, 65, 56);" cx="177" cy="154" rx="12" ry="12"/>
        <ellipse style="fill: rgb(253, 188, 46); stroke: rgb(224, 157, 28);" cx="217" cy="154" rx="12" ry="12"/>
        <ellipse style="fill: rgb(37, 199, 66); stroke: rgb(37, 172, 45);" cx="257" cy="154" rx="12" ry="12"/>
      </g>
      <g>
        <rect style="stroke-width: 2px; stroke: rgb(230, 230, 230); fill: rgb(243, 243, 243);" x="308" y="127" width="64" height="54" rx="9" ry="9"/>
        <rect style="fill: none; stroke-width: 2px; stroke: rgb(130, 130, 134);" x="322" y="140" width="36" height="26" rx="2" ry="2"/>
        <line style="fill: rgb(216, 216, 216); stroke-width: 2px; stroke-linecap: round; stroke: rgb(130, 130, 134);" x1="326" y1="146" x2="331" y2="146"/>
        <line style="fill: rgb(216, 216, 216); stroke-width: 2px; stroke-linecap: round; stroke: rgb(130, 130, 134);" x1="326" y1="150" x2="331" y2="150"/>
        <line style="fill: rgb(216, 216, 216); stroke-width: 2px; stroke-linecap: round; stroke: rgb(130, 130, 134);" x1="326" y1="154" x2="331" y2="154"/>
        <line style="fill: rgb(216, 216, 216); stroke-width: 2px; stroke: rgb(130, 130, 134);" x1="335" y1="140" x2="335" y2="166"/>
      </g>
      <g>
        <rect style="stroke-width: 2px; stroke: rgb(230, 230, 230); fill: rgb(243, 243, 243);" x="375" y="127" width="39" height="54" rx="9" ry="9"/>
        <polyline style="fill: none; stroke-width: 3px; stroke-linecap: round; stroke-linejoin: round; stroke: rgb(130, 130, 134);" points="389.5 151.5 394.5 156.5 399.5 151.5"/>
      </g>
      <g>
        <rect style="stroke-width: 2px; fill: rgb(243, 243, 243); stroke: rgb(213, 213, 213);" x="432" y="127" width="56" height="54" rx="11" ry="11"/>
        <g transform="matrix(1.1875, 0, 0, 1.1875, 441, 135)">
          <path d="M 16.01 0 C 20.281 0 24.468 1.895 27.287 4.717 C 30.106 7.538 32 11.73 32 16.01 C 32 20.281 30.101 24.468 27.278 27.287 C 24.455 30.106 20.264 32 15.99 32 C 11.719 32 7.533 30.105 4.714 27.286 C 1.895 24.467 0 20.281 0 16.01 C 0 11.729 1.898 7.537 4.721 4.716 C 7.545 1.894 11.736 0 16.01 0 Z M 6.842 6.838 C 4.392 9.286 3 12.349 3 16.01 C 3 19.661 4.389 22.72 6.835 25.165 C 9.28 27.611 12.339 29 15.99 29 C 19.645 29 22.709 27.61 25.159 25.164 C 27.608 22.719 29 19.661 29 16.01 C 29 12.348 27.61 9.285 25.165 6.837 C 22.719 4.389 19.661 3 16.01 3 C 12.355 3 9.291 4.39 6.842 6.838 Z" style="fill: url(&quot;#gradient-1&quot;);"/>
          <text style="font-family: Tahoma; font-size: 8.3px; font-weight: 700; white-space: pre; fill: url(&quot;#gradient-3&quot;);" transform="matrix(2.247955, 0, 0, 2.209523, -1.455894, -1.857092)"><tspan x="4" y="10.924">J</tspan><tspan style="font-size: 7.24138px; line-height: 12.3103px;" dx="-0.304">s</tspan></text>
        </g>
      </g>
      <g>
        <rect style="stroke-width: 2px; stroke: rgb(213, 213, 213); fill: rgb(255, 255, 255);" x="506" y="127" width="500" height="54" rx="15" ry="15"/>
        <text style="fill: rgb(175, 175, 175); font-family: Arial, sans-serif; font-size: 21px; white-space: pre;" x="639.289" y="161.852">subdomain.example.com</text>
      </g>
    </g>
    <g style="filter: url(&quot;#filter-1&quot;);" transform="matrix(1, 0, 0, 1, 140.000031, 212.136002)">
      <path d="M 69.5 49 L 472 49 C 486 49 493.375 25 500 25 C 506.625 25 514 49 528 49 L 930.5 49 C 941.822 49 951 58.178 951 69.5 L 951 1130.5 C 951 1141.822 941.822 1151 930.5 1151 L 69.5 1151 C 58.178 1151 49 1141.822 49 1130.5 L 49 69.5 C 49 58.178 58.178 49 69.5 49 Z" style="filter: none; stroke: rgb(198, 198, 198); stroke-width: 2px; fill: rgb(233, 233, 233);"/>
      <rect style="fill: rgb(227, 232, 238); stroke-width: 2px; filter: none;" x="50" width="900" height="1100" rx="19.5" ry="19.5" y="50"/>
      <path d="M 900.566 200 L 904.432 200 C 905.553 200 906.338 199.344 906.618 198.278 L 907.739 193.493 C 908.635 193.192 909.475 192.864 910.261 192.482 L 914.463 195.052 C 915.304 195.599 916.368 195.516 917.098 194.777 L 919.842 192.071 C 920.571 191.333 920.683 190.212 920.067 189.311 L 917.546 185.156 C 917.938 184.389 918.273 183.542 918.498 182.749 L 923.376 181.6 C 924.379 181.354 925 180.562 925 179.441 L 925 175.667 C 925 174.601 924.379 173.809 923.376 173.562 L 918.554 172.387 C 918.273 171.458 917.881 170.638 917.6 169.954 L 920.122 165.716 C 920.683 164.788 920.627 163.776 919.899 163.009 L 917.098 160.303 C 916.368 159.62 915.416 159.429 914.519 159.976 L 910.261 162.601 C 909.533 162.217 908.691 161.889 907.739 161.589 L 906.618 156.722 C 906.338 155.656 905.553 155 904.432 155 L 900.566 155 C 899.502 155 898.716 155.656 898.436 156.722 L 897.314 161.533 C 896.419 161.834 895.522 162.163 894.793 162.572 L 890.535 159.976 C 889.639 159.429 888.686 159.566 887.9 160.303 L 885.155 163.009 C 884.371 163.776 884.371 164.788 884.931 165.716 L 887.453 169.954 C 887.173 170.638 886.78 171.458 886.5 172.387 L 881.736 173.562 C 880.673 173.809 880 174.601 880 175.667 L 880 179.441 C 880 180.562 880.673 181.354 881.736 181.6 L 886.556 182.749 C 886.78 183.542 887.117 184.389 887.509 185.156 L 884.988 189.311 C 884.371 190.212 884.483 191.333 885.211 192.071 L 887.9 194.777 C 888.686 195.516 889.75 195.599 890.647 195.052 L 894.793 192.482 C 895.579 192.864 896.419 193.192 897.314 193.493 L 898.436 198.278 C 898.716 199.344 899.502 200 900.566 200 Z M 902.527 185.017 C 898.38 185.017 895.018 181.628 895.018 177.5 C 895.018 173.371 898.38 169.982 902.527 169.982 C 906.674 169.982 910.036 173.371 910.036 177.5 C 910.036 181.628 906.674 185.017 902.527 185.017 Z" style="fill: rgb(210, 220, 228);"/>
      <g>
        <path style="fill: rgb(74, 155, 36);" d="M 69.5 50 H 930.5 A 19.5 19.5 0 0 1 950 69.5 V 125 H 50 V 69.5 A 19.5 19.5 0 0 1 69.5 50 Z" bx:shape="rect 50 50 900 75 19.5 19.5 0 0 1@a8a1e859"/>
        <text style="fill: rgb(255, 255, 255); font-family: Tahoma; font-size: 28px; font-weight: 700; white-space: pre;" transform="matrix(1, 0, 0, 1, 43.008286, -53.611454)"><tspan x="273.291" y="152.724">Settings have been saved.</tspan><tspan x="273.2909851074219" dy="1em">​</tspan></text>
      </g>
      <g>
        <text style="fill: rgb(69, 70, 72); font-family: Arial, sans-serif; font-size: 29px; font-weight: 700; white-space: pre;" x="321.94" y="216.283">JavaScript on the Domain</text>
        <g>
          <rect style="fill: rgb(255, 255, 255);" x="110" y="246.216" width="780" height="86" rx="22" ry="22"/>
          <text style="font-family: Arial, sans-serif; font-size: 26px; font-weight: 700; white-space: pre; opacity: 0.5;" x="315.779" y="298.301">sub3.sub2.sub1.example.com</text>
        </g>
        <g>
          <rect width="300" height="75" x="350" y="359.216" style="fill-opacity: 0.5; fill: url(&quot;#gradient-9&quot;);" rx="37.5" ry="37.5"/>
          <text style="fill: rgb(255, 255, 255); fill-opacity: 0.5; font-family: Arial, sans-serif; font-size: 27px; white-space: pre;" x="469.24" y="406.04">allow</text>
        </g>
      </g>
      <g>
        <text style="fill: rgb(69, 70, 72); font-family: Arial, sans-serif; font-size: 29px; font-weight: 700; white-space: pre;" x="218.413" y="545.982">JavaScript on the Domain + Subdomains</text>
        <g>
          <rect style="fill: rgb(255, 255, 255); stroke-width: 4px; stroke: rgb(149, 84, 202);" x="110" y="575.915" width="780" height="211.085" rx="22" ry="22"/>
          <g>
            <text style="fill: rgb(149, 84, 201); font-family: Arial, sans-serif; font-size: 26px; font-weight: 700; white-space: pre;" x="281.055" y="628">*.sub3.sub2.sub1.example.com</text>
            <path d="M 693.647 604.591 L 715.243 604.591 C 716.158 604.656 717.273 605.088 717.861 605.675 C 718.448 606.263 718.88 607.378 718.945 608.293 L 718.945 629.889 C 718.88 630.804 718.448 631.919 717.861 632.507 C 717.273 633.094 716.158 633.526 715.243 633.591 L 693.647 633.591 C 692.732 633.526 691.617 633.094 691.029 632.507 C 690.442 631.919 690.01 630.804 689.945 629.889 L 689.945 608.293 C 690.01 607.378 690.442 606.263 691.029 605.675 C 691.617 605.088 692.732 604.656 693.647 604.591 Z M 693.151 607.797 C 692.941 608.006 692.88 607.991 692.945 608.293 L 692.945 629.889 C 692.88 630.191 692.941 630.176 693.151 630.385 C 693.36 630.595 693.345 630.656 693.647 630.591 L 715.243 630.591 C 715.545 630.656 715.53 630.595 715.739 630.385 C 715.949 630.176 716.01 630.191 715.945 629.889 L 715.945 608.293 C 716.01 607.991 715.949 608.006 715.739 607.797 C 715.53 607.587 715.545 607.526 715.243 607.591 L 693.647 607.591 C 693.345 607.526 693.36 607.587 693.151 607.797 Z M 695.445 610.091 L 713.445 610.091 L 713.445 628.091 L 695.445 628.091 L 695.445 610.091 Z" style="fill: rgb(149, 84, 201);"/>
          </g>
          <g style="opacity: 0.5;">
            <text style="fill: rgb(149, 84, 201); font-family: Arial, sans-serif; font-size: 26px; font-weight: 700; white-space: pre;" x="348.956" y="670.407">*.sub2.sub1.example.com</text>
            <path d="M 693.647 646.998 L 715.243 646.998 C 716.158 647.063 717.273 647.495 717.861 648.082 C 718.448 648.67 718.88 649.785 718.945 650.7 L 718.945 672.296 C 718.88 673.211 718.448 674.326 717.861 674.914 C 717.273 675.501 716.158 675.933 715.243 675.998 L 693.647 675.998 C 692.732 675.933 691.617 675.501 691.029 674.914 C 690.442 674.326 690.01 673.211 689.945 672.296 L 689.945 650.7 C 690.01 649.785 690.442 648.67 691.029 648.082 C 691.617 647.495 692.732 647.063 693.647 646.998 Z M 693.151 650.204 C 692.941 650.413 692.88 650.398 692.945 650.7 L 692.945 672.296 C 692.88 672.598 692.941 672.583 693.151 672.792 C 693.36 673.002 693.345 673.063 693.647 672.998 L 715.243 672.998 C 715.545 673.063 715.53 673.002 715.739 672.792 C 715.949 672.583 716.01 672.598 715.945 672.296 L 715.945 650.7 C 716.01 650.398 715.949 650.413 715.739 650.204 C 715.53 649.994 715.545 649.933 715.243 649.998 L 693.647 649.998 C 693.345 649.933 693.36 649.994 693.151 650.204 Z" style="fill: rgb(149, 84, 201);"/>
          </g>
          <g style="opacity: 0.5;">
            <text style="fill: rgb(149, 84, 201); font-family: Arial, sans-serif; font-size: 26px; font-weight: 700; white-space: pre;" x="416.857" y="712.814">*.sub1.example.com</text>
            <path d="M 693.647 689.407 L 715.243 689.407 C 716.158 689.472 717.273 689.904 717.861 690.491 C 718.448 691.079 718.88 692.194 718.945 693.109 L 718.945 714.703 C 718.88 715.623 718.448 716.733 717.861 717.323 C 717.273 717.913 716.158 718.343 715.243 718.403 L 693.647 718.403 C 692.732 718.343 691.617 717.913 691.029 717.323 C 690.442 716.733 690.01 715.623 689.945 714.703 L 689.945 693.109 C 690.01 692.194 690.442 691.079 691.029 690.491 C 691.617 689.904 692.732 689.472 693.647 689.407 Z M 693.151 692.613 C 692.941 692.822 692.88 692.807 692.945 693.109 L 692.945 714.703 C 692.88 715.003 692.941 714.993 693.151 715.203 C 693.36 715.413 693.345 715.473 693.647 715.403 L 715.243 715.403 C 715.545 715.473 715.53 715.413 715.739 715.203 C 715.949 714.993 716.01 715.003 715.945 714.703 L 715.945 693.109 C 716.01 692.807 715.949 692.822 715.739 692.613 C 715.53 692.403 715.545 692.342 715.243 692.407 L 693.647 692.407 C 693.345 692.342 693.36 692.403 693.151 692.613 Z" style="fill: rgb(149, 84, 201);"/>
          </g>
          <g style="opacity: 0.5;">
            <text style="fill: rgb(149, 84, 201); font-family: Arial, sans-serif; font-size: 26px; font-weight: 700; white-space: pre;" x="484.758" y="755.22">*.example.com</text>
            <path d="M 693.647 731.814 L 715.243 731.814 C 716.158 731.879 717.273 732.311 717.861 732.898 C 718.448 733.486 718.88 734.601 718.945 735.516 L 718.945 757.108 C 718.88 758.028 718.448 759.138 717.861 759.728 C 717.273 760.318 716.158 760.748 715.243 760.808 L 693.647 760.808 C 692.732 760.748 691.617 760.318 691.029 759.728 C 690.442 759.138 690.01 758.028 689.945 757.108 L 689.945 735.516 C 690.01 734.601 690.442 733.486 691.029 732.898 C 691.617 732.311 692.732 731.879 693.647 731.814 Z M 693.151 735.02 C 692.941 735.229 692.88 735.214 692.945 735.516 L 692.945 757.108 C 692.88 757.408 692.941 757.398 693.151 757.608 C 693.36 757.818 693.345 757.878 693.647 757.808 C 693.833 757.808 715.488 757.808 715.243 757.808 C 715.545 757.878 715.53 757.818 715.739 757.608 C 715.949 757.398 716.01 757.408 715.945 757.108 L 715.945 735.516 C 716.01 735.214 715.949 735.229 715.739 735.02 C 715.53 734.81 715.545 734.749 715.243 734.814 L 693.647 734.814 C 693.345 734.749 693.36 734.81 693.151 735.02 Z" style="fill: rgb(149, 84, 201);"/>
          </g>
        </g>
        <g>
          <rect width="300" height="75" x="350" y="813" style="fill-opacity: 0.5; fill: url(&quot;#gradient-11&quot;);" rx="37.5" ry="37.5"/>
          <text style="fill: rgb(255, 255, 255); fill-opacity: 0.5; font-family: Arial, sans-serif; font-size: 27px; white-space: pre;" x="469.24" y="859.824">allow</text>
        </g>
      </g>
      <g>
        <path style="fill: rgb(210, 220, 228);" d="M 50 950 H 950 V 1130.5 A 19.5 19.5 0 0 1 930.5 1150 H 69.5 A 19.5 19.5 0 0 1 50 1130.5 V 950 Z" bx:shape="rect 50 950 900 200 0 0 19.5 19.5 1@b311f3e0"/>
        <g>
          <rect width="449" height="74.945" x="275.5" y="1012.023" rx="37.472" ry="37.472" style="fill: url(&quot;#gradient-13&quot;);"/>
          <text style="fill: rgb(255, 255, 255); font-family: Arial, sans-serif; font-size: 27px; white-space: pre;" x="391.98" y="1058.55">cancel permission</text>
        </g>
      </g>
    </g>
  </g>
  <g>
    <rect width="1280" height="1600" style="fill: rgb(84, 85, 84);" x="1280"/>
    <g style="filter: url('#window-shadow');" transform="matrix(1, 0, 0, 1, 1459, 55.000023)">
      <path style="fill: rgb(56, 56, 56); stroke: rgb(101, 106, 109);" d="M 145 102 H 1055 A 20 20 0 0 1 1075 122 V 206 H 125 V 122 A 20 20 0 0 1 145 102 Z" bx:shape="rect 125 102 950 104 20 20 0 0 1@3110c5bc"/>
      <path style="stroke: rgb(101, 106, 109); fill: rgb(255, 255, 255);" d="M 125 206 H 1075 V 315 A 20 20 0 0 1 1055 335 H 145 A 20 20 0 0 1 125 315 V 206 Z" bx:shape="rect 125 206 950 129 0 0 20 20 1@731078df"/>
      <g>
        <ellipse style="fill: rgb(255, 94, 87); stroke: rgb(226, 65, 56);" cx="177" cy="154" rx="12" ry="12"/>
        <ellipse style="fill: rgb(253, 188, 46); stroke: rgb(224, 157, 28);" cx="217" cy="154" rx="12" ry="12"/>
        <ellipse style="fill: rgb(37, 199, 66); stroke: rgb(37, 172, 45);" cx="257" cy="154" rx="12" ry="12"/>
      </g>
      <g>
        <rect style="stroke-width: 2px; fill: rgb(56, 56, 56); stroke: rgb(70, 70, 70);" x="308" y="127" width="64" height="54" rx="9" ry="9"/>
        <rect style="fill: none; stroke-width: 2px; stroke: rgb(130, 130, 134);" x="322" y="140" width="36" height="26" rx="2" ry="2"/>
        <line style="fill: rgb(216, 216, 216); stroke-width: 2px; stroke-linecap: round; stroke: rgb(130, 130, 134);" x1="326" y1="146" x2="331" y2="146"/>
        <line style="fill: rgb(216, 216, 216); stroke-width: 2px; stroke-linecap: round; stroke: rgb(130, 130, 134);" x1="326" y1="150" x2="331" y2="150"/>
        <line style="fill: rgb(216, 216, 216); stroke-width: 2px; stroke-linecap: round; stroke: rgb(130, 130, 134);" x1="326" y1="154" x2="331" y2="154"/>
        <line style="fill: rgb(216, 216, 216); stroke-width: 2px; stroke: rgb(130, 130, 134);" x1="335" y1="140" x2="335" y2="166"/>
      </g>
      <g>
        <rect style="stroke-width: 2px; fill: rgb(56, 56, 56); stroke: rgb(70, 70, 70);" x="375" y="127" width="39" height="54" rx="9" ry="9"/>
        <polyline style="fill: none; stroke-width: 3px; stroke-linecap: round; stroke-linejoin: round; stroke: rgb(130, 130, 134);" points="389.5 151.5 394.5 156.5 399.5 151.5"/>
      </g>
      <g>
        <rect style="stroke-width: 2px; fill: rgb(56, 56, 56); stroke: rgb(70, 70, 70);" x="432" y="127" width="56" height="54" rx="11" ry="11"/>
        <g transform="matrix(1.1875, 0, 0, 1.1875, 441, 135)">
          <path d="M 16.01 0 C 20.281 0 24.468 1.895 27.287 4.717 C 30.106 7.538 32 11.73 32 16.01 C 32 20.281 30.101 24.468 27.278 27.287 C 24.455 30.106 20.264 32 15.99 32 C 11.719 32 7.533 30.105 4.714 27.286 C 1.895 24.467 0 20.281 0 16.01 C 0 11.729 1.898 7.537 4.721 4.716 C 7.545 1.894 11.736 0 16.01 0 Z M 6.842 6.838 C 4.392 9.286 3 12.349 3 16.01 C 3 19.661 4.389 22.72 6.835 25.165 C 9.28 27.611 12.339 29 15.99 29 C 19.645 29 22.709 27.61 25.159 25.164 C 27.608 22.719 29 19.661 29 16.01 C 29 12.348 27.61 9.285 25.165 6.837 C 22.719 4.389 19.661 3 16.01 3 C 12.355 3 9.291 4.39 6.842 6.838 Z" style="fill: url(&quot;#gradient-4&quot;);"/>
          <text style="font-family: Tahoma; font-size: 8.3px; font-weight: 700; white-space: pre; fill: url(&quot;#gradient-7&quot;);" transform="matrix(2.247955, 0, 0, 2.209523, -1.455894, -1.857092)"><tspan x="4" y="10.924">J</tspan><tspan style="font-size: 7.24138px; line-height: 12.3103px;" dx="-0.304">s</tspan></text>
        </g>
      </g>
      <g>
        <rect style="stroke-width: 2px; fill: rgb(44, 43, 44); stroke: rgb(70, 70, 70);" x="506" y="127" width="500" height="54" rx="15" ry="15"/>
        <text style="fill: rgb(175, 175, 175); font-family: Arial, sans-serif; font-size: 21px; white-space: pre;" transform="matrix(1.000876, 0, 0, 1, -37.144077, -2.424332)" x="675.728" y="164.416">subdomain.example.com</text>
      </g>
    </g>
    <g style="filter: url(&quot;#filter-2&quot;);" transform="matrix(1, 0, 0, 1, 1420, 212.135986)">
      <path d="M 69.5 49 L 472 49 C 486 49 493.375 25 500 25 C 506.625 25 514 49 528 49 L 930.5 49 C 941.822 49 951 58.178 951 69.5 L 951 1130.5 C 951 1141.822 941.822 1151 930.5 1151 L 69.5 1151 C 58.178 1151 49 1141.822 49 1130.5 L 49 69.5 C 49 58.178 58.178 49 69.5 49 Z" style="filter: none; stroke-width: 2px; fill: rgb(60, 60, 60); stroke: rgb(101, 106, 109);"/>
      <rect style="stroke-width: 2px; filter: none; fill: rgb(63, 69, 73);" x="50" width="900" height="1100" rx="19.5" ry="19.5" y="50"/>
      <g>
        <path style="fill: lch(49.6 64.9 130);" d="M 69.5 50 H 930.5 A 19.5 19.5 0 0 1 950 69.5 V 125 H 50 V 69.5 A 19.5 19.5 0 0 1 69.5 50 Z" bx:shape="rect 50 50 900 75 19.5 19.5 0 0 1@a8a1e859"/>
        <text style="fill: rgb(255, 255, 255); font-family: Tahoma; font-size: 28px; font-weight: 700; white-space: pre;" transform="matrix(1, 0, 0, 1, 43.008286, -53.611454)"><tspan x="273.291" y="152.724">Settings have been saved.</tspan><tspan x="273.2909851074219" dy="1em">​</tspan></text>
      </g>
      <g>
        <text style="fill: rgb(236, 236, 236); font-family: Arial, sans-serif; font-size: 29px; font-weight: 700; white-space: pre;" x="321.94" y="216.283">JavaScript on the Domain</text>
        <g>
          <rect style="fill: rgb(37, 37, 36); stroke-width: 4px; stroke: rgb(30, 30, 30);" x="110" y="246.216" width="780" height="86" rx="22" ry="22"/>
          <text style="fill: rgb(255, 255, 255); font-family: Arial, sans-serif; font-size: 26px; font-weight: 700; white-space: pre; opacity: 0.5;" x="315.779" y="298.301">sub3.sub2.sub1.example.com</text>
        </g>
        <g>
          <rect width="300" height="75" x="350" y="359.216" style="fill-opacity: 0.5; fill: url(&quot;#gradient-5&quot;);" rx="37.5" ry="37.5"/>
          <text style="fill: rgb(255, 255, 255); fill-opacity: 0.5; font-family: Arial, sans-serif; font-size: 27px; white-space: pre;" x="469.24" y="406.04">allow</text>
        </g>
      </g>
      <g>
        <text style="fill: rgb(236, 236, 236); font-family: Arial, sans-serif; font-size: 29px; font-weight: 700; white-space: pre;" x="218.413" y="545.787">JavaScript on the Domain + Subdomains</text>
        <g>
          <rect style="fill: rgb(37, 37, 36); stroke-width: 4px; stroke: rgb(198, 110, 255);" x="110" y="575.72" width="780" height="211.28" rx="22" ry="22"/>
          <g>
            <text style="fill: rgb(198, 110, 255); font-family: Arial, sans-serif; font-size: 26px; font-weight: 700; white-space: pre;" x="281.055" y="628">*.sub3.sub2.sub1.example.com</text>
            <path d="M 693.647 604.591 L 715.243 604.591 C 716.158 604.656 717.273 605.088 717.861 605.675 C 718.448 606.263 718.88 607.378 718.945 608.293 L 718.945 629.889 C 718.88 630.804 718.448 631.919 717.861 632.507 C 717.273 633.094 716.158 633.526 715.243 633.591 L 693.647 633.591 C 692.732 633.526 691.617 633.094 691.029 632.507 C 690.442 631.919 690.01 630.804 689.945 629.889 L 689.945 608.293 C 690.01 607.378 690.442 606.263 691.029 605.675 C 691.617 605.088 692.732 604.656 693.647 604.591 Z M 693.151 607.797 C 692.941 608.006 692.88 607.991 692.945 608.293 L 692.945 629.889 C 692.88 630.191 692.941 630.176 693.151 630.385 C 693.36 630.595 693.345 630.656 693.647 630.591 L 715.243 630.591 C 715.545 630.656 715.53 630.595 715.739 630.385 C 715.949 630.176 716.01 630.191 715.945 629.889 L 715.945 608.293 C 716.01 607.991 715.949 608.006 715.739 607.797 C 715.53 607.587 715.545 607.526 715.243 607.591 L 693.647 607.591 C 693.345 607.526 693.36 607.587 693.151 607.797 Z M 695.445 610.091 L 713.445 610.091 L 713.445 628.091 L 695.445 628.091 L 695.445 610.091 Z" style="fill: rgb(198, 110, 255);"/>
          </g>
          <g style="opacity: 0.5;">
            <text style="fill: rgb(198, 110, 255); font-family: Arial, sans-serif; font-size: 26px; font-weight: 700; white-space: pre;" x="348.956" y="670.407">*.sub2.sub1.example.com</text>
            <path d="M 693.647 646.998 L 715.243 646.998 C 716.158 647.063 717.273 647.495 717.861 648.082 C 718.448 648.67 718.88 649.785 718.945 650.7 L 718.945 672.296 C 718.88 673.211 718.448 674.326 717.861 674.914 C 717.273 675.501 716.158 675.933 715.243 675.998 L 693.647 675.998 C 692.732 675.933 691.617 675.501 691.029 674.914 C 690.442 674.326 690.01 673.211 689.945 672.296 L 689.945 650.7 C 690.01 649.785 690.442 648.67 691.029 648.082 C 691.617 647.495 692.732 647.063 693.647 646.998 Z M 693.151 650.204 C 692.941 650.413 692.88 650.398 692.945 650.7 L 692.945 672.296 C 692.88 672.598 692.941 672.583 693.151 672.792 C 693.36 673.002 693.345 673.063 693.647 672.998 L 715.243 672.998 C 715.545 673.063 715.53 673.002 715.739 672.792 C 715.949 672.583 716.01 672.598 715.945 672.296 L 715.945 650.7 C 716.01 650.398 715.949 650.413 715.739 650.204 C 715.53 649.994 715.545 649.933 715.243 649.998 L 693.647 649.998 C 693.345 649.933 693.36 649.994 693.151 650.204 Z" style="fill: rgb(198, 110, 255);"/>
          </g>
          <g style="opacity: 0.5;">
            <text style="fill: rgb(198, 110, 255); font-family: Arial, sans-serif; font-size: 26px; font-weight: 700; white-space: pre;" x="416.857" y="712.814">*.sub1.example.com</text>
            <path d="M 693.647 689.407 L 715.243 689.407 C 716.158 689.472 717.273 689.904 717.861 690.491 C 718.448 691.079 718.88 692.194 718.945 693.109 L 718.945 714.703 C 718.88 715.623 718.448 716.733 717.861 717.323 C 717.273 717.913 716.158 718.343 715.243 718.403 L 693.647 718.403 C 692.732 718.343 691.617 717.913 691.029 717.323 C 690.442 716.733 690.01 715.623 689.945 714.703 L 689.945 693.109 C 690.01 692.194 690.442 691.079 691.029 690.491 C 691.617 689.904 692.732 689.472 693.647 689.407 Z M 693.151 692.613 C 692.941 692.822 692.88 692.807 692.945 693.109 L 692.945 714.703 C 692.88 715.003 692.941 714.993 693.151 715.203 C 693.36 715.413 693.345 715.473 693.647 715.403 L 715.243 715.403 C 715.545 715.473 715.53 715.413 715.739 715.203 C 715.949 714.993 716.01 715.003 715.945 714.703 L 715.945 693.109 C 716.01 692.807 715.949 692.822 715.739 692.613 C 715.53 692.403 715.545 692.342 715.243 692.407 L 693.647 692.407 C 693.345 692.342 693.36 692.403 693.151 692.613 Z" style="fill: rgb(198, 110, 255);"/>
          </g>
          <g style="opacity: 0.5;">
            <text style="fill: rgb(198, 110, 255); font-family: Arial, sans-serif; font-size: 26px; font-weight: 700; white-space: pre;" x="484.758" y="755.22">*.example.com</text>
            <path d="M 693.647 731.814 L 715.243 731.814 C 716.158 731.879 717.273 732.311 717.861 732.898 C 718.448 733.486 718.88 734.601 718.945 735.516 L 718.945 757.108 C 718.88 758.028 718.448 759.138 717.861 759.728 C 717.273 760.318 716.158 760.748 715.243 760.808 L 693.647 760.808 C 692.732 760.748 691.617 760.318 691.029 759.728 C 690.442 759.138 690.01 758.028 689.945 757.108 L 689.945 735.516 C 690.01 734.601 690.442 733.486 691.029 732.898 C 691.617 732.311 692.732 731.879 693.647 731.814 Z M 693.151 735.02 C 692.941 735.229 692.88 735.214 692.945 735.516 L 692.945 757.108 C 692.88 757.408 692.941 757.398 693.151 757.608 C 693.36 757.818 693.345 757.878 693.647 757.808 L 715.243 757.808 C 715.545 757.878 715.53 757.818 715.739 757.608 C 715.949 757.398 716.01 757.408 715.945 757.108 L 715.945 735.516 C 716.01 735.214 715.949 735.229 715.739 735.02 C 715.53 734.81 715.545 734.749 715.243 734.814 L 693.647 734.814 C 693.345 734.749 693.36 734.81 693.151 735.02 Z" style="fill: rgb(198, 110, 255);"/>
          </g>
        </g>
        <g>
          <rect width="300" height="75" x="350" y="813" style="fill-opacity: 0.5; fill: url(&quot;#gradient-6&quot;);" rx="37.5" ry="37.5"/>
          <text style="fill: rgb(255, 255, 255); fill-opacity: 0.5; font-family: Arial, sans-serif; font-size: 27px; white-space: pre;" x="469.24" y="859.824">allow</text>
        </g>
      </g>
      <g>
        <path style="fill: rgb(47, 53, 57);" d="M 50 950 H 950 V 1130.5 A 19.5 19.5 0 0 1 930.5 1150 H 69.5 A 19.5 19.5 0 0 1 50 1130.5 V 950 Z" bx:shape="rect 50 950 900 200 0 0 19.5 19.5 1@b311f3e0"/>
        <g>
          <rect width="449" height="74.945" x="275.5" y="1012.023" rx="37.472" ry="37.472" style="fill: url(&quot;#gradient-10&quot;);"/>
          <text style="fill: rgb(255, 255, 255); font-family: Arial, sans-serif; font-size: 27px; white-space: pre;" x="391.98" y="1058.55">cancel permission</text>
        </g>
      </g>
    </g>
  </g>
</svg>