<?xml version="1.0" encoding="utf-8"?>
<svg viewBox="0 0 1200 450" xmlns="http://www.w3.org/2000/svg" xmlns:bx="https://boxy-svg.com">
  <defs>
    <filter id="window-shadow" color-interpolation-filters="sRGB" x="-50%" y="-50%" width="200%" height="200%" bx:preset="drop-shadow 1 0 10 20 0.4 rgba(0,0,0,0.3)">
      <feGaussianBlur in="SourceAlpha" stdDeviation="20"/>
      <feOffset dx="0" dy="10"/>
      <feComponentTransfer result="offsetblur">
        <feFuncA id="spread-ctrl" type="linear" slope="0.8"/>
      </feComponentTransfer>
      <feFlood flood-color="rgba(0,0,0,0.3)"/>
      <feComposite in2="offsetblur" operator="in"/>
      <feMerge>
        <feMergeNode/>
        <feMergeNode in="SourceGraphic"/>
      </feMerge>
    </filter>
    <linearGradient gradientUnits="userSpaceOnUse" x1="5.729" y1="2.612" x2="5.729" y2="12.637" id="gradient-toolbaritem-border" gradientTransform="matrix(3.192264, 0, 0, 3.192264, -12.553222, -8.338209)">
      <stop offset="0" style="stop-color: rgb(208, 207, 0);"/>
      <stop offset="1" style="stop-color: rgb(175, 121, 0);"/>
    </linearGradient>
    <linearGradient gradientUnits="userSpaceOnUse" x1="5.729" y1="2.612" x2="5.729" y2="12.637" id="gradient-toolbaritem" gradientTransform="matrix(1.420133, 0, 0, 1.444835, -2.406938, -2.935051)">
      <stop offset="0" style="stop-color: rgb(208, 207, 0);"/>
      <stop offset="1" style="stop-color: rgb(175, 121, 0);"/>
    </linearGradient>
  </defs>
  <rect width="1200" height="450" style="fill: rgb(227, 228, 229);"/>
  <g style="filter: url('#window-shadow');">
    <path style="fill: rgb(243, 243, 243); stroke: rgb(198, 198, 198);" d="M 145 102 H 1055 A 20 20 0 0 1 1075 122 V 206 H 125 V 122 A 20 20 0 0 1 145 102 Z" bx:shape="rect 125 102 950 104 20 20 0 0 1@3110c5bc"/>
    <path style="fill: rgb(255, 255, 255); stroke: rgb(198, 198, 198);" d="M 125 206 H 1075 V 315 A 20 20 0 0 1 1055 335 H 145 A 20 20 0 0 1 125 315 V 206 Z" bx:shape="rect 125 206 950 129 0 0 20 20 1@731078df"/>
    <g>
      <ellipse style="fill: rgb(255, 94, 87); stroke: rgb(226, 65, 56);" cx="177" cy="154" rx="12" ry="12"/>
      <ellipse style="fill: rgb(253, 188, 46); stroke: rgb(224, 157, 28);" cx="217" cy="154" rx="12" ry="12"/>
      <ellipse style="fill: rgb(37, 199, 66); stroke: rgb(37, 172, 45);" cx="257" cy="154" rx="12" ry="12"/>
    </g>
    <g>
      <rect style="stroke-width: 2px; stroke: rgb(230, 230, 230); fill: rgb(243, 243, 243);" x="308" y="127" width="64" height="54" rx="9" ry="9"/>
      <rect style="fill: none; stroke-width: 2px; stroke: rgb(130, 130, 134);" x="322" y="140" width="36" height="26" rx="2" ry="2"/>
      <line style="fill: rgb(216, 216, 216); stroke-width: 2px; stroke-linecap: round; stroke: rgb(130, 130, 134);" x1="326" y1="146" x2="331" y2="146"/>
      <line style="fill: rgb(216, 216, 216); stroke-width: 2px; stroke-linecap: round; stroke: rgb(130, 130, 134);" x1="326" y1="150" x2="331" y2="150"/>
      <line style="fill: rgb(216, 216, 216); stroke-width: 2px; stroke-linecap: round; stroke: rgb(130, 130, 134);" x1="326" y1="154" x2="331" y2="154"/>
      <line style="fill: rgb(216, 216, 216); stroke-width: 2px; stroke: rgb(130, 130, 134);" x1="335" y1="140" x2="335" y2="166"/>
    </g>
    <g>
      <rect style="stroke-width: 2px; stroke: rgb(230, 230, 230); fill: rgb(243, 243, 243);" x="375" y="127" width="39" height="54" rx="9" ry="9"/>
      <polyline style="fill: none; stroke-width: 3px; stroke-linecap: round; stroke-linejoin: round; stroke: rgb(130, 130, 134);" points="389.5 151.5 394.5 156.5 399.5 151.5"/>
    </g>
    <g>
      <rect style="stroke-width: 2px; fill: rgb(243, 243, 243); stroke: rgb(213, 213, 213);" x="432" y="127" width="56" height="54" rx="11" ry="11"/>
      <g transform="matrix(1.1875, 0, 0, 1.1875, 441, 135)">
        <path d="M 16.01 0 C 20.281 0 24.468 1.895 27.287 4.717 C 30.106 7.538 32 11.73 32 16.01 C 32 20.281 30.101 24.468 27.278 27.287 C 24.455 30.106 20.264 32 15.99 32 C 11.719 32 7.533 30.105 4.714 27.286 C 1.895 24.467 0 20.281 0 16.01 C 0 11.729 1.898 7.537 4.721 4.716 C 7.545 1.894 11.736 0 16.01 0 Z M 6.842 6.838 C 4.392 9.286 3 12.349 3 16.01 C 3 19.661 4.389 22.72 6.835 25.165 C 9.28 27.611 12.339 29 15.99 29 C 19.645 29 22.709 27.61 25.159 25.164 C 27.608 22.719 29 19.661 29 16.01 C 29 12.348 27.61 9.285 25.165 6.837 C 22.719 4.389 19.661 3 16.01 3 C 12.355 3 9.291 4.39 6.842 6.838 Z" style="fill: url(&quot;#gradient-toolbaritem-border&quot;);"/>
        <text style="fill: url(&quot;#gradient-toolbaritem&quot;); font-family: Tahoma; font-size: 8.3px; font-weight: 700; white-space: pre;" transform="matrix(2.247955, 0, 0, 2.209523, -1.455894, -1.857092)"><tspan x="4" y="10.924">J</tspan><tspan style="font-size: 7.24138px; line-height: 12.3103px;" dx="-0.304">s</tspan></text>
      </g>
    </g>
    <g>
      <rect style="stroke-width: 2px; stroke: rgb(213, 213, 213); fill: rgb(255, 255, 255);" x="506" y="127" width="500" height="54" rx="15" ry="15"/>
      <text style="fill: rgb(175, 175, 175); font-family: Arial, sans-serif; font-size: 21px; white-space: pre;" x="693" y="161.852">example.com</text>
    </g>
  </g>
</svg>