<?xml version="1.0" encoding="UTF-8"?>
<!--Generator: Apple Native CoreSVG 341-->
<!DOCTYPE svg
PUBLIC "-//W3C//DTD SVG 1.1//EN"
       "http://www.w3.org/Graphics/SVG/1.1/DTD/svg11.dtd">
<svg version="1.1" xmlns="http://www.w3.org/2000/svg" xmlns:xlink="http://www.w3.org/1999/xlink" viewBox="0 0 3300 2200">
 <g id="Notes">
  <rect height="2200" id="artboard" style="fill:white;opacity:1" width="3300" x="0" y="0"/>
  <line style="fill:none;stroke:black;opacity:1;stroke-width:0.5;" x1="263" x2="3036" y1="292" y2="292"/>
  <text style="stroke:none;fill:black;font-family:sans-serif;font-size:13;font-weight:bold;" transform="matrix(1 0 0 1 263 322)">Weight/Scale Variations</text>
  <text style="stroke:none;fill:black;font-family:sans-serif;font-size:13;text-anchor:middle;" transform="matrix(1 0 0 1 559.711 322)">Ultralight</text>
  <text style="stroke:none;fill:black;font-family:sans-serif;font-size:13;text-anchor:middle;" transform="matrix(1 0 0 1 856.422 322)">Thin</text>
  <text style="stroke:none;fill:black;font-family:sans-serif;font-size:13;text-anchor:middle;" transform="matrix(1 0 0 1 1153.13 322)">Light</text>
  <text style="stroke:none;fill:black;font-family:sans-serif;font-size:13;text-anchor:middle;" transform="matrix(1 0 0 1 1449.84 322)">Regular</text>
  <text style="stroke:none;fill:black;font-family:sans-serif;font-size:13;text-anchor:middle;" transform="matrix(1 0 0 1 1746.56 322)">Medium</text>
  <text style="stroke:none;fill:black;font-family:sans-serif;font-size:13;text-anchor:middle;" transform="matrix(1 0 0 1 2043.27 322)">Semibold</text>
  <text style="stroke:none;fill:black;font-family:sans-serif;font-size:13;text-anchor:middle;" transform="matrix(1 0 0 1 2339.98 322)">Bold</text>
  <text style="stroke:none;fill:black;font-family:sans-serif;font-size:13;text-anchor:middle;" transform="matrix(1 0 0 1 2636.69 322)">Heavy</text>
  <text style="stroke:none;fill:black;font-family:sans-serif;font-size:13;text-anchor:middle;" transform="matrix(1 0 0 1 2933.4 322)">Black</text>
  <line style="fill:none;stroke:black;opacity:1;stroke-width:0.5;" x1="263" x2="3036" y1="1903" y2="1903"/>
  <g transform="matrix(0.2 0 0 0.2 263 1933)">
   <path d="m46.2402 4.15039c21.7773 0 39.4531-17.627 39.4531-39.4043s-17.6758-39.4043-39.4531-39.4043c-21.7285 0-39.4043 17.627-39.4043 39.4043s17.6758 39.4043 39.4043 39.4043Zm0-7.42188c-17.6758 0-31.9336-14.3066-31.9336-31.9824s14.2578-31.9824 31.9336-31.9824 31.9824 14.3066 31.9824 31.9824-14.3066 31.9824-31.9824 31.9824Zm-17.9688-31.9824c0 2.14844 1.51367 3.61328 3.75977 3.61328h10.498v10.5957c0 2.19727 1.46484 3.71094 3.61328 3.71094 2.24609 0 3.71094-1.51367 3.71094-3.71094v-10.5957h10.5957c2.19727 0 3.71094-1.46484 3.71094-3.61328 0-2.19727-1.51367-3.71094-3.71094-3.71094h-10.5957v-10.5469c0-2.24609-1.46484-3.75977-3.71094-3.75977-2.14844 0-3.61328 1.51367-3.61328 3.75977v10.5469h-10.498c-2.24609 0-3.75977 1.51367-3.75977 3.71094Z"/>
  </g>
  <g transform="matrix(0.2 0 0 0.2 281.506 1933)">
   <path d="m58.5449 14.5508c27.4902 0 49.8047-22.3145 49.8047-49.8047s-22.3145-49.8047-49.8047-49.8047-49.8047 22.3145-49.8047 49.8047 22.3145 49.8047 49.8047 49.8047Zm0-8.30078c-22.9492 0-41.5039-18.5547-41.5039-41.5039s18.5547-41.5039 41.5039-41.5039 41.5039 18.5547 41.5039 41.5039-18.5547 41.5039-41.5039 41.5039Zm-22.6562-41.5039c0 2.39258 1.66016 4.00391 4.15039 4.00391h14.3555v14.4043c0 2.44141 1.66016 4.15039 4.05273 4.15039 2.44141 0 4.15039-1.66016 4.15039-4.15039v-14.4043h14.4043c2.44141 0 4.15039-1.61133 4.15039-4.00391 0-2.44141-1.70898-4.15039-4.15039-4.15039h-14.4043v-14.3555c0-2.49023-1.70898-4.19922-4.15039-4.19922-2.39258 0-4.05273 1.70898-4.05273 4.19922v14.3555h-14.3555c-2.49023 0-4.15039 1.70898-4.15039 4.15039Z"/>
  </g>
  <g transform="matrix(0.2 0 0 0.2 304.924 1933)">
   <path d="m74.8535 28.3203c35.1074 0 63.623-28.4668 63.623-63.5742s-28.5156-63.623-63.623-63.623-63.5742 28.5156-63.5742 63.623 28.4668 63.5742 63.5742 63.5742Zm0-9.08203c-30.127 0-54.4922-24.3652-54.4922-54.4922s24.3652-54.4922 54.4922-54.4922 54.4922 24.3652 54.4922 54.4922-24.3652 54.4922-54.4922 54.4922Zm-28.8574-54.4922c0 2.58789 1.85547 4.39453 4.58984 4.39453h19.7266v19.7754c0 2.68555 1.85547 4.58984 4.44336 4.58984 2.68555 0 4.54102-1.85547 4.54102-4.58984v-19.7754h19.7754c2.68555 0 4.58984-1.80664 4.58984-4.39453 0-2.73438-1.85547-4.58984-4.58984-4.58984h-19.7754v-19.7266c0-2.73438-1.85547-4.63867-4.54102-4.63867-2.58789 0-4.44336 1.9043-4.44336 4.63867v19.7266h-19.7266c-2.73438 0-4.58984 1.85547-4.58984 4.58984Z"/>
  </g>
  <text style="stroke:none;fill:black;font-family:sans-serif;font-size:13;font-weight:bold;" transform="matrix(1 0 0 1 263 1953)">Design Variations</text>
  <text style="stroke:none;fill:black;font-family:sans-serif;font-size:13;" transform="matrix(1 0 0 1 263 1971)">Symbols are supported in up to nine weights and three scales.</text>
  <text style="stroke:none;fill:black;font-family:sans-serif;font-size:13;" transform="matrix(1 0 0 1 263 1989)">For optimal layout with text and other symbols, vertically align</text>
  <text style="stroke:none;fill:black;font-family:sans-serif;font-size:13;" transform="matrix(1 0 0 1 263 2007)">symbols with the adjacent text.</text>
  <line style="fill:none;stroke:#00AEEF;stroke-width:0.5;opacity:1.0;" x1="776" x2="776" y1="1919" y2="1933"/>
  <g transform="matrix(0.2 0 0 0.2 776 1933)">
   <path d="m16.5527 0.78125c2.58789 0 3.85742-0.976562 4.78516-3.71094l6.29883-17.2363h28.8086l6.29883 17.2363c0.927734 2.73438 2.19727 3.71094 4.73633 3.71094 2.58789 0 4.24805-1.5625 4.24805-4.00391 0-0.830078-0.146484-1.61133-0.537109-2.63672l-22.9004-60.9863c-1.12305-2.97852-3.125-4.49219-6.25-4.49219-3.02734 0-5.07812 1.46484-6.15234 4.44336l-22.9004 61.084c-0.390625 1.02539-0.537109 1.80664-0.537109 2.63672 0 2.44141 1.5625 3.95508 4.10156 3.95508Zm13.4766-28.3691 11.8652-32.8613h0.244141l11.8652 32.8613Z"/>
  </g>
  <line style="fill:none;stroke:#00AEEF;stroke-width:0.5;opacity:1.0;" x1="792.836" x2="792.836" y1="1919" y2="1933"/>
  <text style="stroke:none;fill:black;font-family:sans-serif;font-size:13;font-weight:bold;" transform="matrix(1 0 0 1 776 1953)">Margins</text>
  <text style="stroke:none;fill:black;font-family:sans-serif;font-size:13;" transform="matrix(1 0 0 1 776 1971)">Leading and trailing margins on the left and right side of each symbol</text>
  <text style="stroke:none;fill:black;font-family:sans-serif;font-size:13;" transform="matrix(1 0 0 1 776 1989)">can be adjusted by modifying the x-location of the margin guidelines.</text>
  <text style="stroke:none;fill:black;font-family:sans-serif;font-size:13;" transform="matrix(1 0 0 1 776 2007)">Modifications are automatically applied proportionally to all</text>
  <text style="stroke:none;fill:black;font-family:sans-serif;font-size:13;" transform="matrix(1 0 0 1 776 2025)">scales and weights.</text>
  <g transform="matrix(0.2 0 0 0.2 1289 1933)">
   <path d="m14.209 9.32617 8.49609 8.54492c4.29688 4.3457 9.22852 4.05273 13.8672-1.07422l53.4668-58.9355-4.83398-4.88281-53.0762 58.3984c-1.75781 2.00195-3.41797 2.49023-5.76172 0.146484l-5.85938-5.81055c-2.34375-2.29492-1.80664-4.00391 0.195312-5.81055l57.373-54.0039-4.88281-4.83398-57.959 54.4434c-4.93164 4.58984-5.32227 9.47266-1.02539 13.8184Zm32.0801-90.9668c-2.09961 2.05078-2.24609 4.93164-1.07422 6.88477 1.17188 1.80664 3.4668 2.97852 6.68945 2.14844 7.32422-1.70898 14.9414-2.00195 22.0703 2.68555l-2.92969 7.27539c-1.70898 4.15039-0.830078 7.08008 1.85547 9.81445l11.4746 11.5723c2.44141 2.44141 4.49219 2.53906 7.32422 2.05078l5.32227-0.976562 3.32031 3.36914-0.195312 2.7832c-0.195312 2.49023 0.439453 4.39453 2.88086 6.78711l3.80859 3.71094c2.39258 2.39258 5.46875 2.53906 7.8125 0.195312l14.5508-14.5996c2.34375-2.34375 2.24609-5.32227-0.146484-7.71484l-3.85742-3.80859c-2.39258-2.39258-4.24805-3.17383-6.64062-2.97852l-2.88086 0.244141-3.22266-3.17383 1.2207-5.61523c0.634766-2.83203-0.146484-5.0293-3.07617-7.95898l-10.9863-10.9375c-16.6992-16.6016-38.8672-16.2109-53.3203-1.75781Zm7.4707 1.85547c12.1582-8.88672 28.6133-7.37305 39.7461 3.75977l12.1582 12.0605c1.17188 1.17188 1.36719 2.09961 1.02539 3.80859l-1.61133 7.42188 7.51953 7.42188 4.93164-0.292969c1.26953-0.0488281 1.66016 0.0488281 2.63672 1.02539l2.88086 2.88086-12.207 12.207-2.88086-2.88086c-0.976562-0.976562-1.12305-1.36719-1.07422-2.68555l0.341797-4.88281-7.4707-7.42188-7.61719 1.26953c-1.61133 0.341797-2.34375 0.195312-3.56445-0.976562l-10.0098-10.0098c-1.26953-1.17188-1.41602-2.00195-0.634766-3.85742l4.39453-10.4492c-7.8125-7.27539-17.9688-10.4004-28.125-7.42188-0.78125 0.195312-1.07422-0.439453-0.439453-0.976562Z"/>
  </g>
  <text style="stroke:none;fill:black;font-family:sans-serif;font-size:13;font-weight:bold;" transform="matrix(1 0 0 1 1289 1953)">Exporting</text>
  <text style="stroke:none;fill:black;font-family:sans-serif;font-size:13;" transform="matrix(1 0 0 1 1289 1971)">Symbols should be outlined when exporting to ensure the</text>
  <text style="stroke:none;fill:black;font-family:sans-serif;font-size:13;" transform="matrix(1 0 0 1 1289 1989)">design is preserved when submitting to Xcode.</text>
  <text id="template-version" style="stroke:none;fill:black;font-family:sans-serif;font-size:13;text-anchor:end;" transform="matrix(1 0 0 1 3036 1933)">Template v.2.0</text>
  <text style="stroke:none;fill:black;font-family:sans-serif;font-size:13;text-anchor:end;" transform="matrix(1 0 0 1 3036 1951)">Requires Xcode 12 or greater</text>
  <text id="descriptive-name" style="stroke:none;fill:black;font-family:sans-serif;font-size:13;text-anchor:end;" transform="matrix(1 0 0 1 3036 1969)">Generated from inset.filled.square</text>
  <text style="stroke:none;fill:black;font-family:sans-serif;font-size:13;text-anchor:end;" transform="matrix(1 0 0 1 3036 1987)">Typeset at 100.0 points</text>
  <text style="stroke:none;fill:black;font-family:sans-serif;font-size:13;" transform="matrix(1 0 0 1 263 726)">Small</text>
  <text style="stroke:none;fill:black;font-family:sans-serif;font-size:13;" transform="matrix(1 0 0 1 263 1156)">Medium</text>
  <text style="stroke:none;fill:black;font-family:sans-serif;font-size:13;" transform="matrix(1 0 0 1 263 1586)">Large</text>
 </g>
 <g id="Guides">
  <g id="H-reference" style="fill:#27AAE1;stroke:none;" transform="matrix(1 0 0 1 339 696)">
   <path d="M0.993654 0L3.63775 0L29.3281-67.1323L30.0303-67.1323L30.0303-70.459L28.1226-70.459ZM11.6885-24.4799L46.9815-24.4799L46.2315-26.7285L12.4385-26.7285ZM55.1196 0L57.7637 0L30.6382-70.459L29.4326-70.459L29.4326-67.1323Z"/>
  </g>
  <line id="Baseline-S" style="fill:none;stroke:#27AAE1;opacity:1;stroke-width:0.5;" x1="263" x2="3036" y1="696" y2="696"/>
  <line id="Capline-S" style="fill:none;stroke:#27AAE1;opacity:1;stroke-width:0.5;" x1="263" x2="3036" y1="625.541" y2="625.541"/>
  <g id="H-reference" style="fill:#27AAE1;stroke:none;" transform="matrix(1 0 0 1 339 1126)">
   <path d="M0.993654 0L3.63775 0L29.3281-67.1323L30.0303-67.1323L30.0303-70.459L28.1226-70.459ZM11.6885-24.4799L46.9815-24.4799L46.2315-26.7285L12.4385-26.7285ZM55.1196 0L57.7637 0L30.6382-70.459L29.4326-70.459L29.4326-67.1323Z"/>
  </g>
  <line id="Baseline-M" style="fill:none;stroke:#27AAE1;opacity:1;stroke-width:0.5;" x1="263" x2="3036" y1="1126" y2="1126"/>
  <line id="Capline-M" style="fill:none;stroke:#27AAE1;opacity:1;stroke-width:0.5;" x1="263" x2="3036" y1="1055.54" y2="1055.54"/>
  <g id="H-reference" style="fill:#27AAE1;stroke:none;" transform="matrix(1 0 0 1 339 1556)">
   <path d="M0.993654 0L3.63775 0L29.3281-67.1323L30.0303-67.1323L30.0303-70.459L28.1226-70.459ZM11.6885-24.4799L46.9815-24.4799L46.2315-26.7285L12.4385-26.7285ZM55.1196 0L57.7637 0L30.6382-70.459L29.4326-70.459L29.4326-67.1323Z"/>
  </g>
  <line id="Baseline-L" style="fill:none;stroke:#27AAE1;opacity:1;stroke-width:0.5;" x1="263" x2="3036" y1="1556" y2="1556"/>
  <line id="Capline-L" style="fill:none;stroke:#27AAE1;opacity:1;stroke-width:0.5;" x1="263" x2="3036" y1="1485.54" y2="1485.54"/>
  <line id="right-margin" style="fill:none;stroke:#00AEEF;stroke-width:0.5;opacity:1.0;" x1="1507.24" x2="1507.24" y1="1030.79" y2="1150.12"/>
  <line id="left-margin" style="fill:none;stroke:#00AEEF;stroke-width:0.5;opacity:1.0;" x1="1392.45" x2="1392.45" y1="1030.79" y2="1150.12"/>
 </g>
 <g id="Symbols">
  <g id="Black-L" transform="matrix(1 0 0 1 2855.72 1556)">
   <path d="M39.8556 26.3617L115.513 26.3617C130.677 26.3617 139.284 17.7518 139.284 2.65254L139.284-73.1503C139.284-88.2496 130.677-96.8595 115.513-96.8595L39.8556-96.8595C24.7123-96.8595 16.084-88.252 16.084-73.1503L16.084 2.65254C16.084 17.7542 24.7123 26.3617 39.8556 26.3617ZM42.5864 6.35991C38.2704 6.35991 36.065 4.42973 36.065-0.182275L36.065-70.3155C36.065-74.9483 38.2704-76.8577 42.5864-76.8577L112.782-76.8577C117.093-76.8577 119.303-74.9483 119.303-70.3155L119.303-0.182275C119.303 4.42973 117.093 6.35991 112.782 6.35991ZM50.3761-4.90605L105.013-4.90605C107.046-4.90605 108.037-5.97678 108.037-8.05127L108.037-62.4881C108.037-64.5626 107.046-65.6334 105.013-65.6334L50.3761-65.6334C48.3225-65.6334 47.331-64.5626 47.331-62.4881L47.331-8.05127C47.331-5.97678 48.3225-4.90605 50.3761-4.90605Z"/>
  </g>
  <g id="Heavy-L" transform="matrix(1 0 0 1 2559.92 1556)">
   <path d="M38.8315 25.46L114.705 25.46C129.348 25.46 137.453 17.3442 137.453 2.80309L137.453-73.2821C137.453-87.8232 129.348-95.939 114.705-95.939L38.8315-95.939C24.2188-95.939 16.084-87.8344 16.084-73.2821L16.084 2.80309C16.084 17.3554 24.2188 25.46 38.8315 25.46ZM40.9557 7.92943C36.118 7.92943 33.5844 5.63471 33.5844 0.527938L33.5844-71.007C33.5844-76.1439 36.118-78.4085 40.9557-78.4085L112.581-78.4085C117.396-78.4085 119.952-76.1439 119.952-71.007L119.952 0.527938C119.952 5.63471 117.396 7.92943 112.581 7.92943ZM47.9766-2.62109L105.59-2.62109C108.137-2.62109 109.402-3.96041 109.402-6.5678L109.402-63.9716C109.402-66.579 108.137-67.9183 105.59-67.9183L47.9766-67.9183C45.3994-67.9183 44.1349-66.579 44.1349-63.9716L44.1349-6.5678C44.1349-3.96041 45.3994-2.62109 47.9766-2.62109Z"/>
  </g>
  <g id="Bold-L" transform="matrix(1 0 0 1 2264.35 1556)">
   <path d="M37.5412 24.3309L113.714 24.3309C127.667 24.3309 135.171 16.7998 135.171 2.98757L135.171-73.451C135.171-87.2633 127.667-94.7943 113.714-94.7943L37.5412-94.7943C23.6265-94.7943 16.084-87.2897 16.084-73.451L16.084 2.98757C16.084 16.8263 23.6265 24.3309 37.5412 24.3309ZM38.987 9.85111C33.4665 9.85111 30.5257 7.10309 30.5257 1.35185L30.5257-71.8153C30.5257-77.6045 33.4665-80.3145 38.987-80.3145L112.268-80.3145C117.736-80.3145 120.729-77.6045 120.729-71.8153L120.729 1.35185C120.729 7.10309 117.736 9.85111 112.268 9.85111ZM45.0328 0.258852L106.26 0.258852C109.527 0.258852 111.137-1.4184 111.137-4.76111L111.137-65.7783C111.137-69.121 109.527-70.7983 106.26-70.7983L45.0328-70.7983C41.7281-70.7983 40.118-69.121 40.118-65.7783L40.118-4.76111C40.118-1.4184 41.7281 0.258852 45.0328 0.258852Z"/>
  </g>
  <g id="Semibold-L" transform="matrix(1 0 0 1 1968.43 1556)">
   <path d="M36.6517 23.5524L113.03 23.5524C126.507 23.5524 133.598 16.4246 133.598 3.11475L133.598-73.5674C133.598-86.8772 126.507-94.0051 113.03-94.0051L36.6517-94.0051C23.2182-94.0051 16.084-86.9142 16.084-73.5674L16.084 3.11475C16.084 16.4615 23.2182 23.5524 36.6517 23.5524ZM37.6298 11.1759C31.6387 11.1759 28.4171 8.11539 28.4171 1.91986L28.4171-72.3725C28.4171-78.6114 31.6387-81.6286 37.6298-81.6286L112.052-81.6286C117.97-81.6286 121.265-78.6114 121.265-72.3725L121.265 1.91986C121.265 8.11539 117.97 11.1759 112.052 11.1759ZM43.0033 2.24426L106.722 2.24426C110.485 2.24426 112.333 0.334045 112.333-3.51559L112.333-67.0238C112.333-70.8734 110.485-72.7837 106.722-72.7837L43.0033-72.7837C39.1971-72.7837 37.3488-70.8734 37.3488-67.0238L37.3488-3.51559C37.3488 0.334045 39.1971 2.24426 43.0033 2.24426Z"/>
  </g>
  <g id="Medium-L" transform="matrix(1 0 0 1 1672.31 1556)">
   <path d="M35.9773 22.9622L112.512 22.9622C125.628 22.9622 132.405 16.14 132.405 3.21118L132.405-73.6557C132.405-86.5846 125.628-93.4067 112.512-93.4067L35.9773-93.4067C22.9086-93.4067 16.084-86.6295 16.084-73.6557L16.084 3.21118C16.084 16.185 22.9086 22.9622 35.9773 22.9622ZM36.6007 12.1804C30.2527 12.1804 26.8183 8.88295 26.8183 2.35054L26.8183-72.7951C26.8183-79.3749 30.2527-82.6249 36.6007-82.6249L111.889-82.6249C118.147-82.6249 121.671-79.3749 121.671-72.7951L121.671 2.35054C121.671 8.88295 118.147 12.1804 111.889 12.1804ZM41.4645 3.74968L107.072 3.74968C111.211 3.74968 113.24 1.66282 113.24-2.57119L113.24-67.9682C113.24-72.2022 111.211-74.2891 107.072-74.2891L41.4645-74.2891C37.2779-74.2891 35.249-72.2022 35.249-67.9682L35.249-2.57119C35.249 1.66282 37.2779 3.74968 41.4645 3.74968Z"/>
  </g>
  <g id="Regular-L" transform="matrix(1 0 0 1 1376.38 1556)">
   <path d="M35.0976 22.1923L111.836 22.1923C124.482 22.1923 130.85 15.7689 130.85 3.33696L130.85-73.7708C130.85-86.2028 124.482-92.6262 111.836-92.6262L35.0976-92.6262C22.5048-92.6262 16.084-86.2581 16.084-73.7708L16.084 3.33696C16.084 15.8242 22.5048 22.1923 35.0976 22.1923ZM35.2584 13.4907C28.4449 13.4907 24.7328 9.88413 24.7328 2.9123L24.7328-73.3462C24.7328-80.3708 28.4449-83.9245 35.2584-83.9245L111.675-83.9245C118.378-83.9245 122.201-80.3708 122.201-73.3462L122.201 2.9123C122.201 9.88413 118.378 13.4907 111.675 13.4907ZM39.4573 5.71328L107.529 5.71328C112.159 5.71328 114.423 3.39601 114.423-1.33936L114.423-69.2C114.423-73.9354 112.159-76.2527 107.529-76.2527L39.4573-76.2527C34.7747-76.2527 32.5102-73.9354 32.5102-69.2L32.5102-1.33936C32.5102 3.39601 34.7747 5.71328 39.4573 5.71328Z"/>
  </g>
  <g id="Light-L" transform="matrix(1 0 0 1 1080.5 1556)">
   <path d="M34.067 21.3335L111.206 21.3335C123.088 21.3335 129.189 15.1391 129.189 3.45147L129.189-73.9235C129.189-85.6111 123.088-91.8055 111.206-91.8055L34.067-91.8055C22.2185-91.8055 16.084-85.7046 16.084-73.9235L16.084 3.45147C16.084 15.2326 22.2185 21.3335 34.067 21.3335ZM34.2278 14.674C26.7082 14.674 22.7098 10.743 22.7098 3.12224L22.7098-73.5943C22.7098-81.2487 26.7082-85.146 34.2278-85.146L111.045-85.146C118.378-85.146 122.563-81.2487 122.563-73.5943L122.563 3.12224C122.563 10.743 118.378 14.674 111.045 14.674ZM37.6061 8.0226L107.701 8.0226C113.361 8.0226 115.912 5.43813 115.912-0.289667L115.912-70.2497C115.912-75.9775 113.361-78.562 107.701-78.562L37.6061-78.562C31.912-78.562 29.3612-75.9775 29.3612-70.2497L29.3612-0.289667C29.3612 5.43813 31.912 8.0226 37.6061 8.0226Z"/>
  </g>
  <g id="Thin-L" transform="matrix(1 0 0 1 784.884 1556)">
   <path d="M32.7039 20.1976L110.373 20.1976C121.246 20.1976 126.993 14.3061 126.993 3.60292L126.993-74.1255C126.993-84.8286 121.246-90.7201 110.373-90.7201L32.7039-90.7201C21.8399-90.7201 16.084-84.9726 16.084-74.1255L16.084 3.60292C16.084 14.4501 21.8399 20.1976 32.7039 20.1976ZM32.8648 16.2389C24.4111 16.2389 20.0342 11.8788 20.0342 3.3999L20.0342-73.9224C20.0342-82.4098 24.4111-86.7615 32.8648-86.7615L110.212-86.7615C118.378-86.7615 123.043-82.4098 123.043-73.9224L123.043 3.3999C123.043 11.8788 118.378 16.2389 110.212 16.2389ZM35.1576 11.0769L107.928 11.0769C114.952 11.0769 117.881 8.13901 117.881 1.09863L117.881-71.638C117.881-78.6784 114.952-81.6163 107.928-81.6163L35.1576-81.6163C28.1257-81.6163 25.1963-78.6784 25.1963-71.638L25.1963 1.09863C25.1963 8.13901 28.1257 11.0769 35.1576 11.0769Z"/>
  </g>
  <g id="Ultralight-L" transform="matrix(1 0 0 1 488.735 1556)">
   <path d="M32.0058 19.6158L109.947 19.6158C120.302 19.6158 125.868 13.8795 125.868 3.6805L125.868-74.2289C125.868-84.4278 120.302-90.1642 109.947-90.1642L32.0058-90.1642C21.646-90.1642 16.084-84.5977 16.084-74.2289L16.084 3.6805C16.084 14.0493 21.646 19.6158 32.0058 19.6158ZM32.1666 17.0405C23.2346 17.0405 18.6637 12.4606 18.6637 3.54212L18.6637-74.0905C18.6637-83.0045 23.2346-87.5889 32.1666-87.5889L109.786-87.5889C118.378-87.5889 123.289-83.0045 123.289-74.0905L123.289 3.54212C123.289 12.4606 118.378 17.0405 109.786 17.0405ZM33.9035 12.6412L108.044 12.6412C115.766 12.6412 118.889 9.52238 118.889 1.80971L118.889-72.3491C118.889-80.0618 115.766-83.1806 108.044-83.1806L33.9035-83.1806C26.1864-83.1806 23.063-80.0618 23.063-72.3491L23.063 1.80971C23.063 9.52238 26.1864 12.6412 33.9035 12.6412Z"/>
  </g>
  <g id="Black-M" transform="matrix(1 0 0 1 2872.54 1126)">
   <path d="M31.6184 13.1464L90.1011 13.1464C102.194 13.1464 109.259 6.08236 109.259-5.99457L109.259-64.5157C109.259-76.5927 102.194-83.6567 90.1011-83.6567L31.6184-83.6567C19.5311-83.6567 12.4609-76.5921 12.4609-64.5157L12.4609-5.99457C12.4609 6.08179 19.5311 13.1464 31.6184 13.1464ZM34.2553-4.19701C31.2643-4.19701 29.7989-5.42306 29.7989-8.65888L29.7989-61.8514C29.7989-65.0927 31.2643-66.3133 34.2553-66.3133L87.4643-66.3133C90.4564-66.3133 91.9207-65.0927 91.9207-61.8514L91.9207-8.65888C91.9207-5.42306 90.4564-4.19701 87.4643-4.19701ZM40.8399-13.3875L80.8851-13.3875C82.1578-13.3875 82.7301-14.0224 82.7301-15.3061L82.7301-55.2152C82.7301-56.4988 82.1578-57.1338 80.8851-57.1338L40.8399-57.1338C39.5617-57.1338 38.9894-56.4988 38.9894-55.2152L38.9894-15.3061C38.9894-14.0224 39.5617-13.3875 40.8399-13.3875Z"/>
  </g>
  <g id="Heavy-M" transform="matrix(1 0 0 1 2576.65 1126)">
   <path d="M30.7123 12.3442L89.37 12.3442C101.024 12.3442 107.621 5.74196 107.621-5.85796L107.621-64.6305C107.621-76.2304 101.024-82.8326 89.37-82.8326L30.7123-82.8326C19.075-82.8326 12.4609-76.235 12.4609-64.6305L12.4609-5.85796C12.4609 5.74651 19.075 12.3442 30.7123 12.3442ZM32.7562-2.77186C29.3203-2.77186 27.5605-4.32434 27.5605-7.98396L27.5605-62.5045C27.5605-66.1805 29.3203-67.7166 32.7562-67.7166L87.326-67.7166C90.7528-67.7166 92.5217-66.1805 92.5217-62.5045L92.5217-7.98396C92.5217-4.32434 90.7528-2.77186 87.326-2.77186ZM38.665-11.3669L81.4337-11.3669C83.1139-11.3669 83.9267-12.2397 83.9267-13.9527L83.9267-56.5685C83.9267-58.2816 83.1139-59.1544 81.4337-59.1544L38.665-59.1544C36.9683-59.1544 36.1556-58.2816 36.1556-56.5685L36.1556-13.9527C36.1556-12.2397 36.9683-11.3669 38.665-11.3669Z"/>
  </g>
  <g id="Bold-M" transform="matrix(1 0 0 1 2280.85 1126)">
   <path d="M29.6986 11.4467L88.5521 11.4467C99.7145 11.4467 105.79 5.36118 105.79-5.70513L105.79-64.7589C105.79-75.8252 99.7145-81.9107 88.5521-81.9107L29.6986-81.9107C18.5648-81.9107 12.4609-75.8355 12.4609-64.7589L12.4609-5.70513C12.4609 5.37145 18.5648 11.4467 29.6986 11.4467ZM31.0794-1.17762C27.1457-1.17762 25.0566-3.09527 25.0566-7.22898L25.0566-63.2351C25.0566-67.3974 27.1457-69.2864 31.0794-69.2864L87.1713-69.2864C91.0844-69.2864 93.1941-67.3974 93.1941-63.2351L93.1941-7.22898C93.1941-3.09527 91.0844-1.17762 87.1713-1.17762ZM36.232-9.10646L82.0473-9.10646C84.1834-9.10646 85.2652-10.2454 85.2652-12.4388L85.2652-58.0825C85.2652-60.2759 84.1834-61.4148 82.0473-61.4148L36.232-61.4148C34.0673-61.4148 32.9855-60.2759 32.9855-58.0825L32.9855-12.4388C32.9855-10.2454 34.0673-9.10646 36.232-9.10646Z"/>
  </g>
  <g id="Semibold-M" transform="matrix(1 0 0 1 1984.77 1126)">
   <path d="M28.9998 10.828L87.9882 10.828C98.812 10.828 104.527 5.09867 104.527-5.59978L104.527-64.8474C104.527-75.5459 98.812-81.2752 87.9882-81.2752L28.9998-81.2752C18.2131-81.2752 12.4609-75.5601 12.4609-64.8474L12.4609-5.59978C12.4609 5.11288 18.2131 10.828 28.9998 10.828ZM29.9233-0.0785673C25.6466-0.0785673 23.3305-2.24796 23.3305-6.70849L23.3305-63.7387C23.3305-68.2363 25.6466-70.3686 29.9233-70.3686L87.0647-70.3686C91.3131-70.3686 93.6576-68.2363 93.6576-63.7387L93.6576-6.70849C93.6576-2.24796 91.3131-0.0785673 87.0647-0.0785673ZM34.5548-7.54814L82.4703-7.54814C84.9208-7.54814 86.188-8.87059 86.188-11.3951L86.188-59.1262C86.188-61.6507 84.9208-62.9731 82.4703-62.9731L34.5548-62.9731C32.0673-62.9731 30.8-61.6507 30.8-59.1262L30.8-11.3951C30.8-8.87059 32.0673-7.54814 34.5548-7.54814Z"/>
  </g>
  <g id="Medium-M" transform="matrix(1 0 0 1 1688.54 1126)">
   <path d="M28.47 10.3589L87.5607 10.3589C98.1277 10.3589 103.57 4.89962 103.57-5.51989L103.57-64.9145C103.57-75.3341 98.1277-80.7933 87.5607-80.7933L28.47-80.7933C17.9464-80.7933 12.4609-75.3513 12.4609-64.9145L12.4609-5.51989C12.4609 4.91683 17.9464 10.3589 28.47 10.3589ZM29.0468 0.754783C24.5098 0.754783 22.0216-1.60549 22.0216-6.31384L22.0216-64.1206C22.0216-68.8724 24.5098-71.1892 29.0468-71.1892L86.9838-71.1892C91.4864-71.1892 94.009-68.8724 94.009-64.1206L94.009-6.31384C94.009-1.60549 91.4864 0.754783 86.9838 0.754783ZM33.283-6.36656L82.791-6.36656C85.4798-6.36656 86.8877-7.82813 86.8877-10.6038L86.8877-59.9175C86.8877-62.6932 85.4798-64.1547 82.791-64.1547L33.283-64.1547C30.5508-64.1547 29.143-62.6932 29.143-59.9175L29.143-10.6038C29.143-7.82813 30.5508-6.36656 33.283-6.36656Z"/>
  </g>
  <g id="Regular-M" transform="matrix(1 0 0 1 1392.45 1126)">
   <path d="M27.7789 9.74698L87.003 9.74698C97.235 9.74698 102.321 4.64 102.321-5.4157L102.321-65.0021C102.321-75.0578 97.235-80.1648 87.003-80.1648L27.7789-80.1648C17.5986-80.1648 12.4609-75.0789 12.4609-65.0021L12.4609-5.4157C12.4609 4.6611 17.5986 9.74698 27.7789 9.74698ZM27.9035 1.84176C23.0272 1.84176 20.3144-0.767488 20.3144-5.79908L20.3144-64.6187C20.3144-69.702 23.0272-72.2595 27.9035-72.2595L86.8784-72.2595C91.7125-72.2595 94.4675-69.702 94.4675-64.6187L94.4675-5.79908C94.4675-0.767488 91.7125 1.84176 86.8784 1.84176ZM31.6242-4.82538L83.2094-4.82538C86.2091-4.82538 87.8003-6.4684 87.8003-9.57155L87.8003-60.9497C87.8003-64.0529 86.2091-65.6959 83.2094-65.6959L31.6242-65.6959C28.5728-65.6959 26.9815-64.0529 26.9815-60.9497L26.9815-9.57155C26.9815-6.4684 28.5728-4.82538 31.6242-4.82538Z"/>
  </g>
  <g id="Light-M" transform="matrix(1 0 0 1 1096.49 1126)">
   <path d="M26.8549 8.97699L86.4383 8.97699C95.9859 8.97699 100.832 4.07534 100.832-5.31303L100.832-65.139C100.832-74.5273 95.9859-79.429 86.4383-79.429L26.8549-79.429C17.3419-79.429 12.4609-74.5827 12.4609-65.139L12.4609-5.31303C12.4609 4.13066 17.3419 8.97699 26.8549 8.97699ZM26.9795 2.90264C21.4701 2.90264 18.5006 0.00250377 18.5006-5.61085L18.5006-64.8411C18.5006-70.4892 21.4701-73.3546 26.9795-73.3546L86.3137-73.3546C91.7125-73.3546 94.7926-70.4892 94.7926-64.8411L94.7926-5.61085C94.7926 0.00250377 91.7125 2.90264 86.3137 2.90264ZM29.9644-2.75495L83.3634-2.75495C87.287-2.75495 89.135-4.63753 89.135-8.63045L89.135-61.8908C89.135-65.8838 87.287-67.7663 83.3634-67.7663L29.9644-67.7663C26.0062-67.7663 24.1582-65.8838 24.1582-61.8908L24.1582-8.63045C24.1582-4.63753 26.0062-2.75495 29.9644-2.75495Z"/>
  </g>
  <g id="Thin-M" transform="matrix(1 0 0 1 800.76 1126)">
   <path d="M25.6328 7.95861L85.6915 7.95861C94.3339 7.95861 98.8634 3.32853 98.8634-5.17725L98.8634-65.32C98.8634-73.8258 94.3339-78.4559 85.6915-78.4559L25.6328-78.4559C17.0024-78.4559 12.4609-73.9264 12.4609-65.32L12.4609-5.17725C12.4609 3.42911 17.0024 7.95861 25.6328 7.95861ZM25.7574 4.30574C19.4107 4.30574 16.1018 1.02088 16.1018-5.36192L16.1018-65.1353C16.1018-71.5302 19.4107-74.803 25.7574-74.803L85.5669-74.803C91.7125-74.803 95.2226-71.5302 95.2226-65.1353L95.2226-5.36192C95.2226 1.02088 91.7125 4.30574 85.5669 4.30574ZM27.7693-0.0166495L83.5671-0.0166495C88.7128-0.0166495 90.9002-2.21606 90.9002-7.38576L90.9002-63.1355C90.9002-68.3052 88.7128-70.5046 83.5671-70.5046L27.7693-70.5046C22.6116-70.5046 20.4242-68.3052 20.4242-63.1355L20.4242-7.38576C20.4242-2.21606 22.6116-0.0166495 27.7693-0.0166495Z"/>
  </g>
  <g id="Ultralight-M" transform="matrix(1 0 0 1 504.553 1126)">
   <path d="M25.0069 7.437L85.309 7.437C93.4878 7.437 97.855 2.94602 97.855-5.1077L97.855-65.4127C97.855-73.4665 93.4878-77.9575 85.309-77.9575L25.0069-77.9575C16.8286-77.9575 12.4609-73.5902 12.4609-65.4127L12.4609-5.1077C12.4609 3.06978 16.8286 7.437 25.0069 7.437ZM25.1315 5.0244C18.3559 5.0244 14.8731 1.54249 14.8731-5.23441L14.8731-65.286C14.8731-72.0634 18.3559-75.5448 25.1315-75.5448L85.1844-75.5448C91.7125-75.5448 95.4428-72.0634 95.4428-65.286L95.4428-5.23441C95.4428 1.54249 91.7125 5.0244 85.1844 5.0244ZM26.6449 1.3859L83.6714 1.3859C89.443 1.3859 91.8043-0.975791 91.8043-6.74824L91.8043-63.773C91.8043-69.5455 89.443-71.9072 83.6714-71.9072L26.6449-71.9072C20.8729-71.9072 18.5116-69.5455 18.5116-63.773L18.5116-6.74824C18.5116-0.975791 20.8729 1.3859 26.6449 1.3859Z"/>
  </g>
  <g id="Black-S" transform="matrix(1 0 0 1 2885.5 696)">
   <path d="M25 2.88086L70.8008 2.88086C80.3711 2.88086 86.0352-2.7832 86.0352-12.3535L86.0352-58.1543C86.0352-67.7246 80.3711-73.3887 70.8008-73.3887L25-73.3887C15.4297-73.3887 9.76562-67.7246 9.76562-58.1543L9.76562-12.3535C9.76562-2.7832 15.4297 2.88086 25 2.88086ZM27.2461-11.2793C25-11.2793 23.9258-12.1582 23.9258-14.5996L23.9258-55.9082C23.9258-58.3496 25-59.2285 27.2461-59.2285L68.5547-59.2285C70.8008-59.2285 71.875-58.3496 71.875-55.9082L71.875-14.5996C71.875-12.1582 70.8008-11.2793 68.5547-11.2793ZM32.5684-18.6035L63.2324-18.6035C64.1602-18.6035 64.5508-19.043 64.5508-19.9707L64.5508-50.5371C64.5508-51.4648 64.1602-51.9043 63.2324-51.9043L32.5684-51.9043C31.6406-51.9043 31.25-51.4648 31.25-50.5371L31.25-19.9707C31.25-19.043 31.6406-18.6035 32.5684-18.6035Z"/>
  </g>
  <g id="Heavy-S" transform="matrix(1 0 0 1 2589.39 696)">
   <path d="M24.3431 2.29311L70.2476 2.29311C79.5298 2.29311 84.8251-3.00217 84.8251-12.2498L84.8251-58.235C84.8251-67.4826 79.5298-72.7779 70.2476-72.7779L24.3431-72.7779C15.0724-72.7779 9.76562-67.4826 9.76562-58.235L9.76562-12.2498C9.76562-3.00217 15.0724 2.29311 24.3431 2.29311ZM26.0821-10.196C23.5364-10.196 22.2432-11.3169 22.2432-14.0464L22.2432-56.4383C22.2432-59.1794 23.5364-60.2888 26.0821-60.2888L68.5086-60.2888C71.0543-60.2888 72.3475-59.1794 72.3475-56.4383L72.3475-14.0464C72.3475-11.3169 71.0543-10.196 68.5086-10.196ZM30.9204-17.1399L63.6819-17.1399C64.8401-17.1399 65.4036-17.7522 65.4036-18.9335L65.4036-51.5743C65.4036-52.7556 64.8401-53.3679 63.6819-53.3679L30.9204-53.3679C29.7506-53.3679 29.1871-52.7556 29.1871-51.5743L29.1871-18.9335C29.1871-17.7522 29.7506-17.1399 30.9204-17.1399Z"/>
  </g>
  <g id="Bold-S" transform="matrix(1 0 0 1 2293.36 696)">
   <path d="M23.6084 1.63574L69.6289 1.63574C78.5889 1.63574 83.4717-3.24707 83.4717-12.1338L83.4717-58.3252C83.4717-67.2119 78.5889-72.0947 69.6289-72.0947L23.6084-72.0947C14.6729-72.0947 9.76562-67.2119 9.76562-58.3252L9.76562-12.1338C9.76562-3.24707 14.6729 1.63574 23.6084 1.63574ZM24.7803-8.98438C21.8994-8.98438 20.3613-10.376 20.3613-13.4277L20.3613-57.0312C20.3613-60.1074 21.8994-61.4746 24.7803-61.4746L68.457-61.4746C71.3379-61.4746 72.876-60.1074 72.876-57.0312L72.876-13.4277C72.876-10.376 71.3379-8.98438 68.457-8.98438ZM29.0771-15.5029L64.1846-15.5029C65.6006-15.5029 66.3574-16.3086 66.3574-17.7734L66.3574-52.7344C66.3574-54.1992 65.6006-55.0049 64.1846-55.0049L29.0771-55.0049C27.6367-55.0049 26.8799-54.1992 26.8799-52.7344L26.8799-17.7734C26.8799-16.3086 27.6367-15.5029 29.0771-15.5029Z"/>
  </g>
  <g id="Semibold-S" transform="matrix(1 0 0 1 1997.11 696)">
   <path d="M23.1019 1.18252L69.2023 1.18252C77.9401 1.18252 82.5386-3.41592 82.5386-12.0538L82.5386-58.3874C82.5386-67.0253 77.9401-71.6237 69.2023-71.6237L23.1019-71.6237C14.3974-71.6237 9.76562-67.0253 9.76562-58.3874L9.76562-12.0538C9.76562-3.41592 14.3974 1.18252 23.1019 1.18252ZM23.8827-8.14902C20.7708-8.14902 19.0639-9.72725 19.0639-13.0012L19.0639-57.44C19.0639-60.7473 20.7708-62.2922 23.8827-62.2922L68.4215-62.2922C71.5334-62.2922 73.2403-60.7473 73.2403-57.44L73.2403-13.0012C73.2403-9.72725 71.5334-8.14902 68.4215-8.14902ZM27.8063-14.3743L64.5312-14.3743C66.1249-14.3743 67.015-15.3133 67.015-16.9736L67.015-53.5342C67.015-55.1945 66.1249-56.1335 64.5312-56.1335L27.8063-56.1335C26.1793-56.1335 25.2892-55.1945 25.2892-53.5342L25.2892-16.9736C25.2892-15.3133 26.1793-14.3743 27.8063-14.3743Z"/>
  </g>
  <g id="Medium-S" transform="matrix(1 0 0 1 1700.76 696)">
   <path d="M22.7178 0.838867L68.8789 0.838867C77.4482 0.838867 81.8311-3.54395 81.8311-11.9932L81.8311-58.4346C81.8311-66.8838 77.4482-71.2666 68.8789-71.2666L22.7178-71.2666C14.1885-71.2666 9.76562-66.8838 9.76562-58.4346L9.76562-11.9932C9.76562-3.54395 14.1885 0.838867 22.7178 0.838867ZM23.2021-7.51562C19.915-7.51562 18.0801-9.23535 18.0801-12.6777L18.0801-57.75C18.0801-61.2324 19.915-62.9121 23.2021-62.9121L68.3945-62.9121C71.6816-62.9121 73.5166-61.2324 73.5166-57.75L73.5166-12.6777C73.5166-9.23535 71.6816-7.51562 68.3945-7.51562ZM26.8428-13.5186L64.7939-13.5186C66.5225-13.5186 67.5137-14.5586 67.5137-16.3672L67.5137-54.1406C67.5137-55.9492 66.5225-56.9893 64.7939-56.9893L26.8428-56.9893C25.0742-56.9893 24.083-55.9492 24.083-54.1406L24.083-16.3672C24.083-14.5586 25.0742-13.5186 26.8428-13.5186Z"/>
  </g>
  <g id="Regular-S" transform="matrix(1 0 0 1 1404.51 696)">
   <path d="M22.2168 0.390625L68.457 0.390625C76.8066 0.390625 80.9082-3.71094 80.9082-11.9141L80.9082-58.4961C80.9082-66.6992 76.8066-70.8008 68.457-70.8008L22.2168-70.8008C13.916-70.8008 9.76562-66.6992 9.76562-58.4961L9.76562-11.9141C9.76562-3.71094 13.916 0.390625 22.2168 0.390625ZM22.3145-6.68945C18.7988-6.68945 16.7969-8.59375 16.7969-12.2559L16.7969-58.1543C16.7969-61.8652 18.7988-63.7207 22.3145-63.7207L68.3594-63.7207C71.875-63.7207 73.877-61.8652 73.877-58.1543L73.877-12.2559C73.877-8.59375 71.875-6.68945 68.3594-6.68945ZM25.5859-12.4023L65.1367-12.4023C67.041-12.4023 68.1641-13.5742 68.1641-15.5762L68.1641-54.9316C68.1641-56.9336 67.041-58.1055 65.1367-58.1055L25.5859-58.1055C23.6328-58.1055 22.5098-56.9336 22.5098-54.9316L22.5098-15.5762C22.5098-13.5742 23.6328-12.4023 25.5859-12.4023Z"/>
  </g>
  <g id="Light-S" transform="matrix(1 0 0 1 1108.45 696)">
   <path d="M21.3994-0.290522L67.9575-0.290522C75.7017-0.290522 79.5913-4.21045 79.5913-11.8232L79.5913-58.6172C79.5913-66.23 75.7017-70.1499 67.9575-70.1499L21.3994-70.1499C13.689-70.1499 9.76562-66.2603 9.76562-58.6172L9.76562-11.8232C9.76562-4.18017 13.689-0.290522 21.3994-0.290522ZM21.4971-5.75098C17.4214-5.75098 15.1924-7.9126 15.1924-12.0894L15.1924-58.3511C15.1924-62.5615 17.4214-64.6894 21.4971-64.6894L67.8599-64.6894C71.875-64.6894 74.1645-62.5615 74.1645-58.3511L74.1645-12.0894C74.1645-7.9126 71.875-5.75098 67.8599-5.75098ZM24.1177-10.5708L65.2729-10.5708C67.9946-10.5708 69.3447-11.9546 69.3447-14.7437L69.3447-55.7642C69.3447-58.5532 67.9946-59.937 65.2729-59.937L24.1177-59.937C21.3623-59.937 20.0122-58.5532 20.0122-55.7642L20.0122-14.7437C20.0122-11.9546 21.3623-10.5708 24.1177-10.5708Z"/>
  </g>
  <g id="Thin-S" transform="matrix(1 0 0 1 812.615 696)">
   <path d="M20.3184-1.19139L67.2969-1.19139C74.2403-1.19139 77.8496-4.87108 77.8496-11.7031L77.8496-58.7773C77.8496-65.6094 74.2403-69.2891 67.2969-69.2891L20.3184-69.2891C13.3887-69.2891 9.76562-65.6797 9.76562-58.7773L9.76562-11.7031C9.76562-4.80077 13.3887-1.19139 20.3184-1.19139ZM20.416-4.50978C15.5996-4.50978 13.0703-7.01173 13.0703-11.8691L13.0703-58.6113C13.0703-63.4824 15.5996-65.9707 20.416-65.9707L67.1992-65.9707C71.875-65.9707 74.5449-63.4824 74.5449-58.6113L74.5449-11.8691C74.5449-7.01173 71.875-4.50978 67.1992-4.50978ZM22.1758-8.14847L65.4531-8.14847C69.2558-8.14847 70.9062-9.81253 70.9062-13.6426L70.9062-56.8652C70.9062-60.6953 69.2558-62.3593 65.4531-62.3593L22.1758-62.3593C18.3594-62.3593 16.709-60.6953 16.709-56.8652L16.709-13.6426C16.709-9.81253 18.3594-8.14847 22.1758-8.14847Z"/>
  </g>
  <g id="Ultralight-S" transform="matrix(1 0 0 1 516.35 696)">
   <path d="M19.7647-1.65282L66.9585-1.65282C73.4917-1.65282 76.9576-5.20946 76.9576-11.6416L76.9576-58.8594C76.9576-65.2915 73.4917-68.8482 66.9585-68.8482L19.7647-68.8482C13.2349-68.8482 9.76562-65.3823 9.76562-58.8594L9.76562-11.6416C9.76562-5.11864 13.2349-1.65282 19.7647-1.65282ZM19.8623-3.87405C14.6665-3.87405 11.9834-6.55031 11.9834-11.7564L11.9834-58.7446C11.9834-63.9541 14.6665-66.6269 19.8623-66.6269L66.8609-66.6269C71.875-66.6269 74.7397-63.9541 74.7397-58.7446L74.7397-11.7564C74.7397-6.55031 71.875-3.87405 66.8609-3.87405ZM21.1812-6.90776L65.5454-6.90776C69.9018-6.90776 71.706-8.71537 71.706-13.0786L71.706-57.4292C71.706-61.7924 69.9018-63.6001 65.5454-63.6001L21.1812-63.6001C16.8213-63.6001 15.0171-61.7924 15.0171-57.4292L15.0171-13.0786C15.0171-8.71537 16.8213-6.90776 21.1812-6.90776Z"/>
  </g>
 </g>
</svg>
